<svg version="1" xmlns="http://www.w3.org/2000/svg" width="666.667" height="666.667" viewBox="0 0 500.000000 500.000000"><path d="M169.4 66c-5 2.5-13.5 10-18 15.8-2.9 3.9-3.9 4.4-7.6 4.7-5.1.3-15 4.4-14.1 5.8.7 1.2.4 1-9.3-4.9-3.9-2.4-8.5-4.7-10.2-5-3.2-.7-9.2 1.1-9.2 2.7 0 .5-.6.9-1.2.9-3.2.1-8.4 6.5-10.8 13.3-.5 1.5-2 3.2-3.2 3.7-4.5 1.8-6 3.8-6.4 8.2l-.3 4.3.8-3.8c.8-3.8 4-7.7 6.3-7.7.9 0 1.3 1.7 1.1 6-.1 5.3-.5 6.3-3.1 8.5-1.6 1.4-4.1 2.5-5.4 2.5-4.8 0-10.2 7.7-9.1 13 .5 3-.1 3.2-3.9 1.5-1.6-.6-1.6-.9.5-2.7 2.1-1.8 2-1.8-.9.1-2.5 1.6-3.8 1.9-6.2 1.2-3.5-1.1-15.2-2.5-19.7-2.4-10 .1-21.3 2.2-21.6 4-.1.5-.3 6-.4 12.3-.2 6.3-.3 12-.4 12.6 0 .6-1.6 1.7-3.3 2.5-5 1.9-11.6 6.7-12.2 8.7-.3 1 .3 4.2 1.5 7.2 1.1 3 3.3 8.9 4.9 13 11.5 30.2 19.8 47.1 30.7 61.9l3.3 4.4-3.4 3.7c-1.8 2.1-3.9 5.5-4.6 7.6-.7 2.2-3 5.8-5.2 8.2-3.8 4.2-5.8 7.9-7.2 13.2-.4 1.4.7-.4 2.4-4 3.8-8 8.4-12.9 7.5-7.9-.3 1.2-.1 1.8.3 1.5.4-.4.7-1.1.7-1.4.2-2.4 1.9-5.2 3.1-5.2.8 0 1.2-.5.9-1-.3-.6-.3-1 .2-1 .4 0 .9-1.1.9-2.5.1-1.4-.2-2.5-.8-2.5-.5 0-.6-.5-.3-1 .4-.6 1-.8 1.5-.5.5.3 1.1-.3 1.5-1.4.8-2.5 4.1-5.4 5.4-4.7.9.6-1.8 5.8-5.1 9.6-.7.9-1.4 2.7-1.5 4-.5 6.9-.7 7.9-1.8 7-.8-.7-1.2-.5-1.2.5 0 .8.3 1.5.7 1.5.4 0 .7.6.7 1.2.1 2.7 1.5 12.3 2 13.1.2.4-.2 1.3-1 2.1-1.2 1.2-1.6 1-3-1.4-1-1.5-1.7-3.5-1.7-4.4 0-.9-.5-1.6-1-1.6-.6 0-.3 1.6.6 3.7.9 2.1 1.8 4.3 2.1 5 .2.6-1.2 2.9-3.1 4.9-2 2.1-3.4 4.4-3.2 5.1.3.7-.1 1.3-.8 1.3-1.7 0-3.6 6.5-3.6 12.5 0 3.2-.9 6.7-2.7 10.3-3.6 7.4-3.8 14.5-.6 20.8 2.9 5.7 5.2 7.9 11.8 11.1 9.9 4.7 13.5 7.4 15.6 11.4 5 10 16.7 10.4 26.7 1.1 1.8-1.7 3.2-2.6 3.2-2.2 0 .5-1.8 2.3-4 4-4.1 3.2-5.4 5.4-8.9 14.8-2.6 7.1-1.6 10.1 5.1 14.4 9.1 5.9 17.8 2.1 17.8-7.7 0-2.2.3-2.3 2.4-1.5 3 1.1 6 .6 9.1-1.4 1.3-.8 5-1.7 8.3-2 3.4-.3 7.7-1.2 9.8-2.1 2-.8 4-1.5 4.5-1.5.4 0 3.7 2.9 7.3 6.4 3.6 3.5 7.4 6.7 8.5 7.1 1.2.3 2.1 1.1 2.1 1.6s.6.9 1.4.9c.7 0 2 .7 2.7 1.6.7.9 2.2 2 3.4 2.5 1.1.6 4.9 2.8 8.5 4.9 8.2 5 21.3 10 35.5 13.4 15 3.5 15.8 3.6 34 4.2 30.4 1.1 36.1.7 53.8-3.3 3.9-.8 8.7-1.8 10.5-2 1.7-.3 3.2-.8 3.2-1.2 0-.4.6-.8 1.3-.8 4-.1 23.2-6.1 33.9-10.6 9.2-3.9 23.2-11.5 26.5-14.4 1.7-1.5 5.5-4.4 8.3-6.3 2.8-1.9 6.9-5 9.1-6.9 2.2-1.9 4.2-3.1 4.6-2.7.3.3.3.6-.1.6-.3 0 .1 1.4.9 3 2.1 4 9.1 9 12.7 9 2.4 0 3.2.7 4.7 4.4 3 7 9.9 12 16.6 12 7.6 0 15.3-3.5 13.6-6.2-.6-1.1-1.5-.9-4.2.7-6 3.7-14.5 2.3-20-3.3-3.8-3.8-4.3-7.3-1.2-8.1 1.3-.3 4.2-2.4 6.4-4.6 3.4-3.4 4.5-3.9 7.7-3.6 2 .2 6 1.4 8.7 2.6 8.4 3.9 18.3 2.7 26.1-3.2l4-3.1-.8-5.9c-.4-3.2-1-6.2-1.3-6.6-.8-1.4 1.8-8.1 3.1-8.1 1.2 0 4.5-4 7-8.5.6-1.1 2-2.2 3-2.4 2.3-.4 6.4-4.7 6.4-6.7 0-2.1-2.8-1.7-4 .6-1.6 3-2.9 2.4-2.8-1.3.1-3.6-.3-5.9-1.4-6.7-.4-.3-.3-1.1.1-1.9.6-1 1.5-.8 4.2.8 1.9 1.2 4.8 2 6.4 2 2.6-.1 2.4-.3-1.3-1.1-5.2-1.1-11.6-7.1-12.5-11.4-.4-2.4.1-3.5 3.4-6.8 2.1-2.1 4.6-5.6 5.6-7.7.9-2.2 2.7-4.3 4.3-4.9 4.9-2 14.8-11.3 15.6-14.7.4-1.6 1.7-2.6 4.6-3.4 2.2-.5 3.8-1.2 3.6-1.4-.2-.3-1.8-.1-3.4.3-2.9.8-11.5.8-14.4-.1-5.3-1.5-7.9-3.6-10.4-8.4-2.4-4.7-.4-11.8 3.9-13.9 8.1-3.9 12.1-11.4 6.7-12.7-3.7-.8-7.5 1.8-11.8 7.8-1.2 1.7-1.7 1.8-3.5.7-1.2-.8-2.3-1.1-2.6-.8-.3.3.6 1 2 1.7 2 .9 2.4 1.6 1.8 3.8-.6 2.2-1.5 2.7-5.4 3.5-2.6.4-6.3.5-8.2.2-3.2-.6-3.4-.9-2.2-2.7 1.4-2.2 8.6-6.1 9.9-5.3.4.3.8 0 .8-.5 0-1.4-.4-1.4-4.8.5-2 .8-4.8 2.6-6.2 3.9-2.4 2.3-2.7 2.4-4.9.9-2.1-1.5-2.1-1.7-.5-3.5.9-1 1.7-3.6 1.8-5.9 0-3 .5-3.9 1.6-3.7 1 .1 1.4-.5 1.3-2.1-.2-1.3.3-2.2 1.1-2.2 2.2 0 6.6-5.9 6.6-8.9 0-3.3-3.3-7.1-6.1-7.1-1.1 0-3.1 1.1-4.5 2.5s-2.8 2.5-3.2 2.5c-1.9-.1-4.4-5.5-4.4-9.3.1-4.7 2.1-6.7 9-9 3.7-1.3 4.4-1.3 6 .2 3.6 3.4 8 14.4 9.7 24.3.4 2.5 1.1 3.8 2.2 3.8 1.2 0 1.4-.9 1-4.7-1.2-9.9-3.9-17.2-8.3-23l-2.5-3.3 3.1-3.9c1.9-2.3 3.4-5.5 3.7-7.8.5-3.5 1-4.2 5.4-6.3 8.9-4.2 17.4-17.2 17.6-27l.2-4.5-1 5.4c-1.1 6.4-3.2 11.3-7.3 16.6-3.7 4.9-5 6-9.9 8.6-3.7 2-3.9 2-5.3.2-.7-1-1.4-2.3-1.4-3 0-.6-.5-1.3-1.2-1.5-.8-.3-.3-1.6 1.4-3.9 3-3.9 5.1-10.4 4.6-13.9-.2-1.9-.9-2.5-2.8-2.5-1.4 0-3.1-.4-3.7-.8-2.2-1.4-1.4.3 1.1 2.7 2.3 2.1 2.4 2.5 1.2 6-.7 2-2.2 4.9-3.3 6.4-1.8 2.4-2.6 2.7-8.1 2.6-6 0-9.2-1.4-9.2-4 0-.7 1.3-3.2 2.9-5.6 3-4.7 5.1-9.9 5.1-13.1 0-2.9-.8-1.7-1.5 2.2-.6 3.4-3.9 10.5-5.8 12.6-.9 1-1.8.8-3.9-.8-1.5-1.1-4.3-2.1-6.2-2.1-4.1-.1-6.6-3-3.8-4.4.9-.5 2.6-.8 3.6-.6 1.1.1 4.3-.2 7-.8 2.8-.5 5.7-1 6.4-1.1 1.4 0 1.7-2.3.4-3.1-.5-.3-3.1.1-5.9.8-3 .8-5.6 1-6.4.5-.8-.5-.9-.9-.3-.9.6 0 1.8-1.5 2.6-3.3.8-1.7 1.2-2.5 1-1.7-.2 1.2 0 1.2.9.3.7-.7.9-1.9.3-3-.4-1-.8-2.7-.9-3.8 0-1.1-.6-3-1.3-4.1-.9-1.8-.9-2.4.2-3.3 1.9-1.6 2.4-.4 2.1 5.2-.1 2.9.1 4.3.6 3.5.5-.7.9-3.2.9-5.6 0-4 .2-4.3 2.3-3.6 1.2.3 2.6 1.3 3 2 .4.8 1.3 1.4 2 1.4 2.1-.1-4.3-5-6.4-5-3.1 0-1.3-1.8 3.1-3.1 7.7-2.3 13.1 3 14.6 14.4.4 2.6 1 4.7 1.4 4.7 1.5 0-2.3-13.5-4.6-16.7-2.8-3.7-8.1-5.2-12-3.4-3.1 1.4-4.7 1.4-3.9.1.3-.6.1-1-.5-1-.7 0-1 .6-.7 1.4.6 1.5-4.4 6.9-5.9 6.4-.5-.1-1.9.3-3.1 1-1.8 1-2.3.9-2.7-.6-.4-1-2-3.2-3.7-4.8-2.4-2.3-4-2.9-7.9-3-5-.2-7.8-1.2-6.4-2.3.5-.3 2.2-2.4 3.9-4.6 2.6-3.6 5.7-6.6 8.9-8.7.6-.4.8-.9.5-1.2-.7-.8-8.1 6.1-11.4 10.7-2.5 3.3-3 3.6-4.4 2.3-2.3-2-8.1-4.8-8.1-3.9 0 .5 1.9 1.7 4.3 2.9 3.5 1.7 4.2 2.5 4 4.7-.1 1.4-1.2 4.1-2.5 5.9-1.3 1.8-2.4 3.5-2.6 3.7-.1.3-1.2-.5-2.5-1.7-4.1-3.9-12.8-2.4-20.3 3.3-4.3 3.3-4.7 3.1-3.1-.8.8-1.7 1.5-3.7 1.6-4.2.1-.6.4-2.6.7-4.7.6-3.4.9-3.6 5-4.3 2.4-.3 4.4-1 4.4-1.5s-1.3-.4-3 .1c-1.6.6-3.7.9-4.7.7-1.5-.4-1.3-.7.9-1.8 1.5-.7 2.6-1.6 2.4-1.9-.2-.3 1.8-.6 4.5-.7 2.6 0 4.6.3 4.3.8-.3.4-1.2.8-2 .8s-1.4.4-1.4 1c0 1.5 1.6 1.2 3-.5.7-.8 2.3-1.5 3.6-1.5 1.4 0 2.4-.6 2.4-1.4 0-.8.3-1.6.8-1.8 1.1-.5 6.6-7.9 7.9-10.8 3-6.3 4-9.9 4.2-15.6.2-6.4-.5-7.9-2.9-6.3-1.2.7-1.1.9.4.9 1.7 0 1.8.6 1.3 6.6-.6 7.4-4.7 17-10 22.8-2.8 3.2-3.9 3.7-8.7 4l-5.5.5 3-1.6c7.3-3.8 13.9-12.9 13.3-18.5-.2-2.1-.9-3.4-1.9-3.6-2-.4-3.5 2.8-1.8 3.8 1.2.8-.8 5.9-3.9 9.5-2.4 2.9-9.3 7.5-11.3 7.5-2.3 0-1.4-5.2 2.3-12.7 5.1-10.3 4.5-19.8-1.4-24.8-3.6-3-3.9-3-6.9-.5-2.1 1.7-2.2 2.1-.9 2.9 1 .7 1.6.7 1.8.1 1.1-3.3 6 1.1 7.2 6.4.8 3.6-.7 12.6-2.2 12.6-.4 0-.8-.4-.8-.9 0-1.4-8.2-14.3-8.7-13.7-.3.2.3 1.6 1.3 3.1l1.8 2.8-2.4-.8c-4.1-1.3-9.2-.7-14.2 1.8-5.1 2.5-6 1.9-3.1-2.3 2.4-3.5 5.5-5.9 7.5-6 .9 0 2-.5 2.4-1.1.9-1.6-3.4-.2-6.6 2-3 2.1-5.9 6.9-6.6 10.7-.3 1.5-.8 3.2-1.2 3.8-.8 1.3-.9 1.8-1.1 5-.1 3-3.3 2.5-5.1-.8-2.7-5.2-10.3-7-16.3-4-4.2 2-10.7 9.9-10.2 12.2 1.4 7.4 3.3 11 8.2 15.8l5.3 5.1-2.3 2.1c-1.2 1.1-4.6 2.7-7.5 3.6l-5.2 1.5.6-4.7c1.1-7.9 1-9.6-.8-13.4-2.3-4.8-6-7.6-11.3-8.4-3.1-.4-4.2-1-3.8-2 .2-.7-.2-2.8-1.1-4.5-.9-1.8-1.5-3.3-1.4-3.4 6.9-4.3 10-5.5 11.4-4.5.9.8 1.4.9 1.4.2 0-.6-.5-1.2-1.1-1.4-.7-.2.3-2.3 2.4-5.1l3.5-4.6 1.6 2.4c2.1 3.2 2 7.2-.1 8.4-1 .5-1.5 1.2-1.1 1.6 1.1 1.1 4.7-3.6 4.3-5.6-.2-1.1-1.3-3.2-2.4-4.8-1.7-2.3-1.9-3.8-1.4-7.8.3-3.1.1-5.3-.5-5.7-.9-.5-.6-10.4.4-11.5.1-.1 2-.3 4.1-.3 2.3 0 3.1-.3 2-.7-1-.4-3.7-.6-6-.6h-4.2l-.1 5.5c-.1 3.1-.9 7-1.8 8.8-1.6 3.1-1.7 3.2-4.5 1.7-3.6-1.8-3.2-4 1.6-9 1.8-1.9 3-3.5 2.5-3.5-1 0-5.3 4.6-7.5 8.2-1.4 2.2-2.1 2.5-4.4 1.9-3.2-.9-8.6 1-11.9 4-1.1 1-2.3 1.9-2.5 1.9-.3 0-1.6-2.2-2.8-5-2.9-6.4-7.6-9.5-13.1-8.6-2.4.4-4.1.2-4.6-.5-.3-.6-2.2-1.7-4-2.5-3-1.3-3.8-1.2-6.6.2-1.7.9-4.6 3.2-6.4 5.1-3 3.2-3.7 3.4-7.6 2.9-3.1-.4-3.6-.3-1.8.3 1.4.5 2 .9 1.3 1-.6.1-3.2 2.1-5.7 4.6l-4.6 4.4-1.5-2.3c-.9-1.3-1.3-3.1-.9-4 .3-.9.7-1.6.8-1.6 0 0 1.9-.7 4.1-1.5 2.3-.8 3.1-1.4 2-1.5-1.1 0-3.5.9-5.2 2l-3.3 2-2.3-3.8c-1.3-2-4.6-7.6-7.3-12.4-2.7-4.8-5.5-9-6.2-9.3-1.1-.4-9.5 2.1-16.3 5-1.2.4-3.2-1.3-7.5-6.9-3.3-4.1-6.6-7.5-7.4-7.6-.8 0-3.3.9-5.6 2zm-50.3 21.7c7.2 4.4 9 6.3 6.1 6.3-2.3 0-3.7 1.5-2.3 2.4.5.4 1.2.2 1.6-.4.3-.5 1.1-1 1.7-1 .6 0 .4.8-.5 1.8-1.6 1.8-1.9 1.6-7-3.3s-13.7-9.2-15.8-7.9c-.5.3-.9.3-.9-.1 0-1.2 4.6-2.4 7.9-1.9 1.8.2 6 2.1 9.2 4.1zm26.9.8c-.3.5-3 1.1-6 1.1l-5.5.2 4-1.3c4.5-1.5 8.2-1.5 7.5 0zm105.7 1.7c-1.4 1.8-2.7 4-2.8 4.9-.3 1.3-.9 1.5-2.9.7l-2.4-.9 3-2.7c2.6-2.3 6.3-5 7.2-5.1.2-.1-.8 1.4-2.1 3.1zm-142 1.1c1.5.8 3.9 2.4 5.2 3.6l2.3 2.1-3.1 3.5c-1.7 2-3.1 4.2-3.1 4.9 0 .8-1.1 2.4-2.5 3.7-1.3 1.3-2.5 3-2.5 3.8 0 1.1-.4 1-1.4-.4-1.1-1.5-2.1-1.7-6.1-1.2-2.6.4-5.4 1.2-6.1 1.8-1.6 1.3-2.6-.5-2-3.6.3-1.1.5-3.1.5-4.4.1-1.6.5-2.1 1.6-1.7.8.3 1.5.1 1.5-.4 0-.6-.5-1-1.1-1-1.4 0-.2-3.7 2.4-7.4 2.1-3 7.1-5.6 9.8-5.1.9.2 3 1 4.6 1.8zm149.6.9c.2.7-.5 3-1.6 5.2-1.1 2.1-2.1 5-2.2 6.4-.2 3.8-2.2 3.8-3.4 0-1.3-3.8-.8-7.1 1.4-10.4 1.6-2.6 5.1-3.2 5.8-1.2zM144 93.4c0 .2-.8 2.1-1.7 4.2-.9 2.2-1.7 4.1-1.8 4.4-.1.3-.5 1.8-1 3.3-.7 2.6-.9 2.7-2.8 1.4-1.2-.8-2.5-2.5-2.8-3.8-.6-2.2-.7-2.2-.8-.3-.1 1.6-.8 2.1-3.1 2.2-3.8.1-4.4-1-2.6-4.6 2.5-4.9 5.9-5.5 10.8-2 1.6 1 2.8 1.5 2.8 1s-1.5-1.7-3.4-2.7c-1.9-1.1-3.3-2.3-3-2.7.5-.8 9.4-1.2 9.4-.4zm129 2.1c2.1 1.3.8 2-4 2-4.9 0-6.1-1-3.9-3.2 1-1 5.3-.4 7.9 1.2zm-154.5 5.4c-.3 1.2-1.9 2.8-3.5 3.6-2.7 1.4-2.9 1.4-2.3-.2.7-2 5.4-6.5 6.1-5.9.2.3.1 1.4-.3 2.5zm157.6-.8c1.4 2.2 2.2 9.4 1.4 12.8-.5 2.6-1.1 3.1-3.6 3.1-1.6 0-2.9-.4-2.9-.8 0-.5-2-2.3-4.5-4.1-4-2.9-4.3-3.4-3.5-5.7.6-1.4.8-2.9.5-3.4-.3-.5.2-1.6 1.2-2.5 2-2 10-1.6 11.4.6zm-31.3.3c2.1 1.1 2.7 2.1 2.7 4.3-.1 2.2-1 3.3-4.3 5.1l-4.2 2.3v-4.6c0-4.2 1.3-8.5 2.6-8.5.3 0 1.7.6 3.2 1.4zm58.5 1.1l2.8 1.8-2.3 2.4c-1.7 1.9-2.4 2.1-3 1-.4-.8-.6-2.4-.3-3.5.2-1.2-.1-2.4-.6-2.8-.6-.3-.8 1.2-.5 3.9.4 4.4.3 4.5-4 6.6-2.4 1.2-5.6 2.4-7.1 2.7-1.4.3-3 .7-3.4 1-.4.2-1-1.9-1.4-4.6-.7-4.7-.5-5.3 2.1-7.5 1.5-1.3 3.7-2.6 4.9-2.9 3.9-.8 10.1.1 12.8 1.9zm-64.9 4.9c-.2 7.1-.9 8.8-4.1 10.4-1.9 1.1-2.3.8-4.1-2.7l-2-3.9 2.1-2.9c1.1-1.6 3.4-3.9 5.1-5.1 1.7-1.1 3.1-2.1 3.1-2.1 0-.1-.1 2.8-.1 6.3zm72.8-3.9c-.2 1.4-.8 2.5-1.3 2.5s-.6.7-.3 1.5c.4.8-.6 3.1-2.1 5.2-2.7 3.4-2.9 3.5-4.2 1.7-1.2-1.6-.9-2.3 2.5-5.9 2.2-2.2 4.2-4.8 4.5-5.8.9-2.5 1.5-2.1.9.8zM122 104.2c0 .5-.8.5-3.9-.1-.2-.1.2-.8.9-1.6 1.1-1.3 1.5-1.3 2.1-.3.5.7.9 1.6.9 2zm138.4-1.7c-.4.8-.8 1.5-1 1.5-.2 0-.4-.7-.4-1.5s.4-1.5 1-1.5c.5 0 .7.7.4 1.5zm-142.3 7.6c-1.2 1-2.7 1.6-3.2 1.3-.5-.3-.9 0-.9.5 0 .6-.9 1.1-2.1 1.1-2.1 0-2.1 0 .2-1.9 1.7-1.4 2.6-1.6 3.1-.8s.8.7.8-.3c0-.9 1-1.6 2.3-1.7l2.2-.2-2.4 2zm16.7-.6c1.3.4 2.2 1.4 2.2 2.7 0 1.4-.5 1.8-1.6 1.4-.9-.3-1.8-.6-2-.6-.3 0-.2-.5.1-1 .3-.6.1-1-.4-1-.6 0-1.1.4-1.1 1 0 .5-.6 1-1.4 1-1.4 0-2.8-3.4-1.8-4.5.5-.5 1-.4 6 1zm121.9 3.1c-1 1-3.7-1.6-3.7-3.4 0-1.3.4-1.2 2.2.5 1.2 1.3 1.9 2.5 1.5 2.9zm-7.9-2.4c.9 1.2.7 5.6-.2 6.6-.3.2-1.3-.1-2.5-.7-1.1-.6-3.1-1.2-4.5-1.3-2.9-.3-2.5-1.3 1.8-3.9 3.7-2.2 4-2.3 5.4-.7zm17.8 2.4c3.4 2.6 4.5 4.7 2.2 4-.7-.3-2.5-.7-3.9-1-2.7-.6-4.4-3-3.3-4.7.8-1.3 1.2-1.2 5 1.7zm16.2-.1c.1 1.4-.2 2.5-.6 2.5-.7 0-.8-3.1-.3-4.8.3-.8.7.2.9 2.3zm19.9 3.8c-.3.8-2.5 2.3-4.9 3.5-3.6 1.7-4.6 1.8-6.2.8-3.2-2.1-2.9-3.2 1.1-4.4 2.1-.6 4.7-1.8 5.8-2.6 1.7-1.2 2.2-1.3 3.4-.1.7.7 1.1 2 .8 2.8zm-180.6-1.8c-.1 1.5-2.4 1.2-2.9-.3-.3-.9.2-1.3 1.2-1 1 .1 1.7.7 1.7 1.3zm-18.1.4c.9.1.6.7-1 1.8-3.7 2.5-8.5 7.5-10 10.2-2.2 4.2-2.2 9.6 0 11.6 1.1 1 2 1.3 2 .7 0-.7-.4-1.2-1-1.2-.5 0-1-1.1-1-2.5 0-2.5 2.6-4.6 4.8-3.8 1.8.7 1.5 6.4-.5 7.9-1.7 1.3-1.7 1.3 0 1.4 3.9 0 1.1 3.9-3.4 4.6l-3.4.6.3-4.6c.4-4.4.3-4.5-3-5.4-3.4-.9-9.8.4-9.8 2 0 1.5-2.8.8-3.4-.8-.7-1.8.4-3.8 5.2-9.4 2.6-3.1 3.1-3.3 4.7-2 1.1.9 1.5 2.4 1.3 4.2-.6 3.8 1.8 5.9 3 2.7 1.3-3.4.9-6.5-1.1-8.7-2.3-2.5-2.3-2.5 2.2-5.6 4.1-2.9 8.6-4.5 11.1-4 .8.1 2.2.3 3 .3zm9 .1c0 .5-.8 1-1.7 1-1.5 0-1.6-.2-.3-1 1.9-1.2 2-1.2 2 0zm18 0c0 .5-.4 1-1 1-.5 0-1-.5-1-1 0-.6.5-1 1-1 .6 0 1 .4 1 1zm4 7.6c-2.4 8.7-3.2 9.4-5.5 4.4-1.6-3.5-1.6-4.4-.5-6.8 2.5-4.8 4.1-6.2 6-5.2 1.7.9 1.7 1.3 0 7.6zm235.8-6.7c1.2.6 2.5 1.9 3 2.9 1 2 .8 7.2-.3 9.8-.6 1.5-1 1-1.9-2.6-.7-2.7-1.8-4.5-2.6-4.5-1.5 0-1.5.6-.6 7.7.4 2.9-1.1 4.6-5.5 6.5-2.1.9-3.2.8-5.6-.6-3.9-2.4-6.6-6.8-6.5-10.5.2-7.3 12.6-12.7 20-8.7zm-251.4 0c.3.5-.1 1.2-1 1.5-.9.4-1.5.9-1.2 1.2.3.2 1.7 0 3-.5 2.2-.8 2.7-.6 3.7 1.6.7 1.4 1 2.7.9 2.8-3.1 2.4-4.3 2.2-6.9-1.4-1.8-2.5-2.3-4-1.6-4.9 1.1-1.4 2.4-1.6 3.1-.3zm134.1 1.2c-1 1.5-2.5 1-1.9-.6.4-.8 1-1.2 1.5-.9.5.3.7 1 .4 1.5zm-145.1 2.3c-2.4 1.8-2.9 1.4-1.2-1.3.8-1.3 1.6-1.7 2.2-1.1.6.6.3 1.5-1 2.4zm-5.9.3c-.5 1-1.4 3.8-2 6.3-.7 2.5-1.8 4.4-2.4 4.2-.7-.1-2 .2-3 .8-2.8 1.4-3.1.2-.9-3.5 1.8-3.1 7.6-9.5 8.6-9.5.2 0 .1.8-.3 1.7zm141.4 0c1.4.9 2.1 1.1 1.7.5-.4-.7-.2-1.2.3-1.2 1.4 0 1.4 1.3-.1 2.8-1.5 1.5-9.4 1.6-10.3.1-.8-1.2 2.3-3.8 4.5-3.9.9 0 2.6.8 3.9 1.7zm15.1-.9c0 .5-1.2 1.4-2.7 2.1l-2.8 1.1 2.4-2c2.6-2.2 3.1-2.4 3.1-1.2zm31.1 1.8c1.4 1.7 1.7 1.6-5.3 1.9-5.4.3-5.7.2-4.7-1.6.5-1.1 1.3-1.7 1.7-1.5.5.3 1.4.1 2.1-.3 1.7-1.1 4.7-.3 6.2 1.5zm-26.5-.5c.3.6 2.8 2.1 5.5 3.3l4.9 2.1-2.6 2.8c-1.4 1.5-4.3 3.9-6.5 5.3-3.5 2.2-4.2 2.3-5.4 1-.8-.8-1.5-2-1.5-2.7 0-1.4 4-8.1 5.4-9.1.6-.4.7-1 .4-1.4-.4-.3-2.2 1.7-3.9 4.5-4.2 6.7-4.8 6.7-6.3-.2-.5-1.9-.2-2.7.8-2.7.7 0 2.4-.9 3.7-2 2.7-2.2 4.5-2.5 5.5-.9zm9.4.9c0 .5-.2 1-.4 1-.3 0-.8-.5-1.1-1-.3-.6-.1-1 .4-1 .6 0 1.1.4 1.1 1zm4-.6c0 .3-.4.8-1 1.1-.5.3-1 .1-1-.4 0-.6.5-1.1 1-1.1.6 0 1 .2 1 .4zm-160 8.1c0 .7-.7 2.1-1.6 3-1.5 1.5-1.7 1.5-3-.3-1-1.4-1.3-7-.5-8.9.3-.7 5.1 5.1 5.1 6.2zm219.9-4.3c1.6 1.1 1.6 1.5.5 2.6-.8.7-1.4 1-1.4.8 0-.3-1.1-.1-2.4.4-1.8.6-2.8.4-4.3-.9-1-1-2.4-1.6-3.1-1.3-2.2.7-1.3-1.5 1.1-2.5 2.7-1.3 7.1-.8 9.6.9zM77 125.9c-.5 1.1-1.5 2.3-2.2 2.7-.7.5-.8.2-.3-.7 2.1-3.7 4.4-5.5 2.5-2zm46 1.1c-.9 1.7-1.4 2-2 .9-.6-.8-.2-1.7.8-2.5 2.2-1.6 2.6-1.1 1.2 1.6zm6.4 3.3c.1 1.3.5 2.7.9 3.3.3.6-.8 1.9-2.5 2.9s-4.4 3.2-6 4.9l-2.8 3.1.6-2.8c.4-1.6.2-2.7-.5-2.7-.6 0-.8.6-.5 1.4.3.8-.9 3-2.6 5-3.2 3.6-3.6 5-.5 2 2-2 2.5-1.6 1.4 1.3-.7 2.1-1.1 2.2-3.6 1.1-1.5-.7-3-1.3-3.2-1.5-1-.7 2.5-6.6 4.8-7.9 2.6-1.5 2.6-1.5.1-.8-2.1.6-2.2.5-.9-.8.8-.9 2.4-1.8 3.6-2.2 1.2-.4 2.7-1.3 3.3-2.1.7-.8 2.1-1.5 3.2-1.5s1.6-.5 1.3-1.1c-.4-.5-.1-2.4.6-4.1 1-2.5 1.4-2.7 2.1-1.4.5.9 1.1 2.7 1.2 3.9zm121.5 2.5c.1 1.5-.7 2.6-2.1 3.2-1.8.7-1.9.9-.5.9.9.1 1.7.5 1.7 1 0 .4-1.8.3-3.9-.2-4.4-1.2-4.4-2 .2-6.9 1.4-1.5 2.3-2.9 2-3.2-.3-.2-.1-1.1.3-1.8.9-1.3 2 2.2 2.3 7zm45.4-5c1.9 3.8 1.2 5.4-3.4 7.9-4.9 2.7-7.5 2-11.3-3-4-5.2-3.5-6.4 2.5-6.4 2.7-.1 5.2-.3 5.4-.5.2-.2 1.5-.4 2.9-.6 1.9-.1 2.9.5 3.9 2.6zm-51.9-1c-.6.4-1.4 1.7-1.8 2.9-.8 2.7-3.2 3.7-4 1.6-.4-.9.1-1.7 1.4-2 1.1-.3 2-.9 2-1.5 0-.5-.8-.4-1.9.1-1.7 1-3.1.6-3.1-.9 0-.3 1.9-.7 4.2-.7 2.4-.1 3.8.1 3.2.5zm-137.2 7.9c-2.1 3.4-4.4 3-3.9-.6.3-1.5 1-3.9 1.7-5.1l1.3-2.3 1.2 2.9c1 2.4.9 3.3-.3 5.1zm174.4 0c.8 1.1 2.8 2.7 4.4 3.3 2.9 1.2 2.9 1.3 1.4 4.1-1.2 2.4-2.1 2.9-5.2 3-2 0-4.5.2-5.5.4-1.6.3-1.8-.1-1.2-2.3 1.2-4.7 1.6-7.7 1-7.1-.3.4-.8 1.7-1 3-.7 3.6-2.6 7.9-3.5 7.9-.5 0-2.6-1.8-4.8-4-2.1-2.2-4.2-3.7-4.5-3.3-.4.3-.7.4-.7.1 0-.3.8-1.2 1.7-1.9 1.1-1 1.4-1 .9-.2-.4.7-.3 1.3.2 1.3 1.2 0 8.3-5.5 10-7.7 1.1-1.6 1.2-1.6 1.2 0 0 .9.4 1.7.9 1.7s.7-1 .4-2.3c-.4-2.2-.4-2.2 1.1-.2.9 1.1 2.3 3 3.2 4.2zm45.7-4.7c.6 0 .1 1-1.1 2.3-1.2 1.3-2.2 3.1-2.2 4 0 1.5-.4 1.6-2 .7-1.1-.6-2-1.6-2-2.3 0-2.3 3.2-5.9 4.7-5.3.8.3 2 .6 2.6.6zm14.7 2c1.2 1.8 1.3 7 .3 7.1-6 .6-6.1.5-7.2-3.5-.6-2.5-.6-4.3-.1-4.6 1.8-1.1 6.1-.5 7 1zm9.2 3.4c1.9 2.3.9 3.6-2.8 3.6-1.8 0-2.1-.6-2.1-4 0-3.5.2-3.8 1.6-2.8.9.7 2.4 2.1 3.3 3.2zM133 133c0 .5-.2 1-.4 1-.3 0-.8-.5-1.1-1-.3-.6-.1-1 .4-1 .6 0 1.1.4 1.1 1zm122.5 2.2c-.7 3.4-1.5 3.4-1.5-.1 0-1.8.4-3 .9-2.6.6.3.8 1.5.6 2.7zm76.6 1.1c.7 2.7.2 3.2-3.1 2.7-2.2-.3-2.2-.5-.9-3.4 1.5-3.2 3-2.9 4 .7zm42.2-1.8c-.3.9-.8 1.4-1 1.1-.3-.3-.2-.9.2-1.5.9-1.6 1.5-1.3.8.4zm-263 1c.6 1.4-4 5.5-6.2 5.5-1.8 0-1.3-1.1 1.7-4.1 3.1-3.3 3.8-3.5 4.5-1.4zm147.5.3c.6 1.8-1.5 1.4-2.2-.4-.4-1-.1-1.4.6-1.2.6.2 1.4 1 1.6 1.6zm-169.7 2.6c.2 1.9-.3 7.1-.7 7.5-.2.2-1.6-.5-3.1-1.5s-3.1-1.7-3.5-1.6c-.5.1-.8-.3-.8-.8 0-.6-.9-1-2.1-1-2.7 0-1.5-1.9 2.3-3.4 3.3-1.4 7.7-1 7.9.8zm39.7 6.1c-2.9 5.9-6.4 7.8-7.4 3.8-.9-3.4 1.2-7.1 5.6-10.1 3.4-2.3 3.5-2.3 3.8-.4.2 1.1-.7 4.1-2 6.7zM301 138c0 .5-.8 1-1.8 1-1.9 0-7.2 4.5-7.2 6.1 0 .6 1.3-.3 2.9-2 2.6-2.7 4.7-3.7 7.4-3.2.5.1.5-.4.1-1.1-.6-.9-.3-.9.9.1.9.7 1.7 1 1.7.7 0-.4.9-.2 2 .4 3.2 1.7 5.6 7.6 5.1 12.7-.1.6-1 .9-2.1.6-1.6-.4-1.8-.1-1.4 1.8.3 1.3.7 3.1.8 3.9.5 2.2-3.3 2.8-8.2 1.4-5.9-1.7-8.2-4-8.2-8.1 0-1.8-.5-3.3-1.1-3.3-.5 0-.7-.5-.4-1 .3-.6.1-1-.5-1-2.5 0-.5-5.5 2.9-7.7 3.5-2.4 7.1-3 7.1-1.3zm-38.5 4.7c1.1 2.5 2.8 3.2 1.9.8-.9-2.3.2-1.8 3 1.2 1.9 2 2.2 3 1.4 4-1.5 1.9-2.7 1.6-3.9-1-.8-2-.9-1.9-.5.8.3 2-.3 3.8-1.7 5.6-1.2 1.4-2.8 3.6-3.6 4.7-.8 1.1-2.8 2.8-4.5 3.8-1.7.9-5 4.2-7.3 7.3-3.4 4.6-4.7 5.7-7 5.6-1.5 0-3.4-.5-4-1.2-1.8-1.7-1.6-2.2.7-1.6 1.2.3 2 0 2-.7 0-1.8 5-6.2 6.4-5.7.6.2 2 .1 3.1-.4 1.8-.7 1.7-.8-.7-.8-2.6-.1-2.6-.2-1.6-3.1.6-1.7.8-4.4.4-6.1-.4-2.3.2-3.9 2.6-7.4 1.8-2.5 3.5-4.5 4-4.5.4 0 .5-.7.2-1.5-.4-.8-.2-1.5.3-1.5.6 0 1.5 1.9 2.2 4.2 1.5 5 3.9 8.8 5.5 8.8.8 0 .8-.2 0-.8-1.5-1-4.4-6.7-4.4-8.7 0-.9 1-2 2.3-2.6l2.2-1-2.2.5c-1.3.2-2.3 0-2.3-.6 0-1.8 4.5-.3 5.5 1.9zm100-1.7c.8 1.3-.5 1.3-2.5 0-1.3-.8-1.3-1 .2-1 .9 0 2 .4 2.3 1zm-252.1 3c-1.4 2.3-2.1 2.7-3.1 1.8-1.1-.9-.8-1.5 1.4-2.9 3.7-2.5 3.7-2.4 1.7 1.1zm134.8-2.1c.3-.8 1-1 2.4-.4 1.7.7 1.8.8.1 1.2-.9.3-1.5.8-1.2 1.2.2.5-.2 1.7-1 2.7-1.4 1.8-1.4 1.8-1.5-.3 0-1.2-.3-3-.6-4-.4-1.3-.3-1.5.4-.4.8 1.1 1 1.1 1.4 0zm79.3 1.1c1 1.1 1.3 2 .7 2-.6 0-1.6-.9-2.2-2-.6-1.1-.9-2-.7-2 .2 0 1.2.9 2.2 2zm29 1.4c.4 3.2-.8 4.1-7.7 5.9l-5.7 1.5 2.7-4.2c1.4-2.2 2.7-4.3 2.9-4.5.3-.5 6.7-1.8 7.2-1.5.2.2.5 1.5.6 2.8zm6.4-.3c-2.2 1.4-2.9 1.1-2.9-1.1 0-1.8.3-1.9 2.1-.9 1.7.9 1.9 1.3.8 2zm18.1-2.7c0 .2-.7.6-1.5 1-.8.3-1.5.1-1.5-.4 0-.6.7-1 1.5-1s1.5.2 1.5.4zm-46 3.9c-.1 2.1-.1 2.1-1.5.3-.8-1-1.2-2.3-.9-2.8.9-1.4 2.4.2 2.4 2.5zm38-2.9c0 .3-1.2 1.8-2.7 3.4-2.7 2.9-12.5 8.4-10.4 5.8.6-.7.8-1.6.4-2-.4-.4.1-.4 1.1 0 1.5.6 1.7.4 1.1-.7-.4-.8-.5-1.1 0-.7.4.4 1.4 0 2.2-1 .8-.9 1.1-1.1.8-.3-.5.9 0 .8 1.8-.4 1.4-.9 2.8-2.3 3.1-3.1.5-1.2 2.6-2.1 2.6-1zm-30 3.6c-3.7 5.2-5.4 5.3-4.4.2.6-2.7 1.1-3.2 3.6-3.2h2.9l-2.1 3zm-238 4.9c2 4.9.8 5.5-4 2-3.9-2.9-4.2-3.3-2.5-4 3.7-1.4 5.3-.9 6.5 2zm4.1-1.2c1.3 1.6 1.2 1.7-.3.4-1-.7-1.8-1.5-1.8-1.7 0-.8.8-.3 2.1 1.3zm264.6 3.3c-1.3 4.6-1.9 4.8-5.4 2-1.4-1.1-2.3-2-2-2 .3 0 1.3-.3 2.1-.6 1.2-.5 1.5-.2 1.1 1.2-.4 1.1.3.2 1.5-1.9 2.6-4.7 4.1-4 2.7 1.3zm-93.4-2c-.3 1.3-1.4 2-2.8 2-1.3 0-3.2.3-4.2.7-1.6.6-1.6.5-.4-1 .7-.9 1.7-1.4 2.2-1.1.5.3.9.1.9-.5 0-.8 1.4-1.5 4.2-2 .3 0 .4.8.1 1.9zm8.7 6.1c0 4.3-.9 4.8-3.2 2.1-2.4-2.6-3-5.9-1.7-8.4l1.2-2.2 1.8 2.3c1.1 1.4 1.9 3.9 1.9 6.2zm129.9-4.6c1 .3 2.3 1.6 3 2.9 1.1 2 1 2.8-1.3 6.3-2.6 3.9-2.6 4.2-1.3 8.2 1.3 3.7 1.3 4.3-.4 6.2-1.3 1.5-2.4 1.9-4.1 1.3-3.9-1.2-6.8-3.5-8.5-6.8-3.4-6.2-2.3-10.1 1.5-5.7 2.4 2.7 5.8 3.5 6.6 1.6.3-.8.1-1.5-.4-1.5-.6 0-1 .4-1 1 0 1.4-4.8-.9-5.4-2.6-.7-1.9 4.3-1.8 6.8.1 1.1.8 2.5 1.5 3 1.5.6 0 .3-.7-.6-1.4-1-.7-2.1-2.8-2.4-4.7-.4-1.9-1.1-4.1-1.5-5-1.4-2.8.5-3.2 6-1.4zM113 154c0 1-2.6 2-3.4 1.3-1.4-1.4-.5-3.1 1.4-2.6 1.1.3 2 .9 2 1.3zm295.9.2c.4 1.3 1.1 3.4 1.4 4.8.6 2.4.5 2.5-4.3 2.2-3.5-.3-4.8-.7-4.3-1.5.4-.7.8-1.6.8-2 0-.8 4.4-5.7 5.1-5.7.3 0 .8 1 1.3 2.2zm-127.8 8.2l3 2.6-2 2.8c-3.4 4.8-4.5 5.4-7.4 4.1-2.1-1-3.1-.9-5.1.4-2.3 1.5-2.5 1.5-5-1-2.9-2.9-3.1-3.7-1.5-8.1.9-2.6 3.1-4.3 5.9-4.7 2-.2 7-3 7.1-3.9 0-.6.5.3 1 2.1.5 1.7 2.3 4.3 4 5.7zm58.7-6.5c1.1.6.8 1.6-1.1 4.4-2.2 3.3-2.6 3.5-4.3 2.2-1.1-.8-2.7-1.5-3.6-1.5-2.2 0-2.3-1.6-.2-2.4 1-.4 1.3-.2.8.6-.5.7.8 0 2.6-1.5 3.9-3 4-3 5.8-1.8zm-233 3.6c-.3.3-.9-.2-1.2-1.2-.6-1.4-.5-1.5.5-.6.7.7 1 1.5.7 1.8zm242.2-2c0 1.2-7.9 8.5-9.2 8.5-2.7 0-2.7-1.2-.1-5.1 2.1-3.3 3.1-3.9 5.9-3.9 1.9 0 3.4.2 3.4.5zm13.6.3c.6.4 1.3 2.4 1.6 4.5.4 3.5 0 4.3-4.7 9.1-2.8 2.8-6.8 6.1-8.7 7.3l-3.7 2.2-1.5-4.6c-1.4-4.2-1.4-4.7.4-8.1 4.6-8.6 12.2-13.4 16.6-10.4zm32.4 2.4c0 .6.7.5 1.5-.2 1.4-1.2 1.5-1 1.1 1.5-.7 4-1.1 4-3.4.1-1.5-2.5-1.7-3.3-.6-2.9.8.3 1.4 1 1.4 1.5zm-28.8 3c-.9.9-1.2.7-1.2-1.2s.3-2.1 1.2-1.2c.9.9.9 1.5 0 2.4zm25.9 1.6c.6 1.5.7 4.2.3 6.2-.4 1.9-.8 4.2-.8 5-.1.8-.6 2.3-1.2 3.3-1 1.7-1.1 1.7-3.1 0-2-1.8-5.8-8.3-4.9-8.3.3 0 .1-1.1-.4-2.5-1.9-5.1 2.6-9.5 7.3-7.2 1 .4 2.3 2 2.8 3.5zm-97.1-1.7c0 .5-.4.9-1 .9-.5 0-1-.7-1-1.6 0-.8.5-1.2 1-.9.6.3 1 1 1 1.6zm37.7 0c2.9 1.1 3.5 2.3 2 4.2-1.4 1.9-5.6 2.4-10.4 1.3-3.1-.7-4.7-2.6-2.2-2.6.6 0 2.2-.9 3.6-2 3.3-2.6 2.3-2.5-2.2.1-2.7 1.6-3.9 1.9-4.8 1-.8-.8-.7-1.1.5-1.1.9 0 2.9-.7 4.4-1.5 2.8-1.4 4-1.3 9.1.6zm46.3.4c0 .8-.7 1.5-1.5 1.5-1.6 0-2-1.2-.8-2.3 1.1-1.2 2.3-.8 2.3.8zm48.4.2c-.5 1.6-.4 1.6 1-.1 1.4-1.8 1.6-1.8 2.2-.2.4.9.2 2.7-.4 3.9-.9 1.8-1.1 1.9-1.1.4-.1-.9-.5-1.7-1.1-1.7-1.3 0-1.3.6 0 3.1.8 1.5.7 2.3-.4 3.4-2.8 2.8-3.8 1.8-3.1-3.3.8-6.1 1.2-7.2 2.4-7.2.6 0 .8.8.5 1.7zm-168.7 3.5c.2 2.5-4 9.3-6.3 10.2-1.9.7-4.4-.3-4.4-1.9 0-1.3 8.5-10.5 9.8-10.5.4 0 .9 1 .9 2.2zm118.3.3c.5 1.4.7 3.2.4 4-.4 1 0 1.5 1 1.5.9 0 1.6.7 1.6 1.5s1.6 3.3 3.6 5.5l3.6 4-2.3 2c-1.3 1-3.7 2.4-5.2 3.1-2.6 1.1-3.1.9-6.2-2.1-2.9-2.8-3.2-3.6-2.4-5.7.5-1.4.7-2.8.4-3.3-.3-.5-.1-1.1.3-1.4.5-.3.8-2.7.6-5.3-.2-4.4.6-6.2 2.9-6.3.4 0 1.2 1.1 1.7 2.5zm-88.5-.5c-.4.6-.8 2.5-1.1 4.2-.2 1.7-.8 3.6-1.4 4.2-1.3 1.3-1.3-.9 0-3.5 1.8-3.3.3-2.1-1.9 1.6-1.1 1.9-2.7 3.5-3.6 3.5-2.1 0-1.9-1.7.4-3 1.1-.5 2.9-2.6 4.1-4.5 1.2-1.9 2.6-3.5 3.1-3.5.6 0 .7.5.4 1zm25.5-.2c0 1.6 9.7 5.5 14.5 5.8 4.9.2 5 .3 6 4.3.5 2.2 1.3 4.3 1.8 4.7 1.3 1.3.8 3.4-.9 3.4-.8 0-2.5.5-3.7 1.2-4.5 2.5-6.6 2.1-7.6-1.4l-1-3.3.2 3.5.2 3.5-5.2.3c-4.5.3-5.3 0-5.4-1.5 0-1-.3-1.3-.6-.6-.9 2.5-3.3 1.4-3.3-1.5 0-2.3 1.8-6.7 2.1-5.2.6 3.4.8 4.3 1.3 4.8.4.3.4-1 .2-3-.4-3.3-.3-3.5 2-3 1.3.2 2.7.8 3 1.3.9 1.5 3.4 1 3.4-.6 0-2.8-3.9-5.7-7.2-5.3-2.5.2-3.2-.2-3.9-2-.7-2-.5-2.5 1.1-2.9 1.1-.3 2-1 2-1.5s-.4-.6-1-.3c-.5.3-1 .1-1-.4 0-.6.7-1.1 1.5-1.1s1.5.4 1.5.8zm24.5.2c.3.5-.1 1-1 1s-1.3-.5-1-1c.3-.6.8-1 1-1 .2 0 .7.4 1 1zm59.9 1.6c1 3.9 4.7 8.4 8.5 10.4 3.5 1.7 3.5 1.7 1.2 2.9-3 1.6-12.2 2.5-13.9 1.3-1.2-.8-1.1-1.5.2-4 .9-1.7 1.7-5.4 1.8-8.1.3-5.6 1.2-6.6 2.2-2.5zm-106.2 3c-.4 2.1-1 3.4-1.3 2.9-.7-1.1 1-8 1.7-7.3.2.3.1 2.2-.4 4.4zm9.3-3.6c.6.9-5.5 5.3-6.2 4.6-.2-.2.1-1.4.6-2.7.9-2.5 4.5-3.6 5.6-1.9zm39.1 9c.1 3.8-.2 7-.7 7-.5 0-1.6-1.1-2.5-2.5-2-3-2.5-10-.7-10 .6 0 1.5-.3 1.9-.8 1.6-1.5 1.9-.5 2 6.3zm-78.2 1.6c-1.3 1.2-2.4 2.5-2.4 2.9 0 .5.8.1 1.8-.7 2.7-2.3 4.2-3 4.2-1.9 0 .6-1.3 1.7-3 2.6-1.6.9-3 1.3-3 .9s-.6-.1-1.3.5c-1.1.8-1.9.5-3.6-1.5l-2.2-2.5 3.3-3.9 3.3-3.9 2.6 2.7 2.7 2.7-2.4 2.1zM309 173c.8 1.6.7 2.6-.5 4.2-1.5 2.2-1.5 2.1-1.5-2 0-4.7.4-5.1 2-2.2zm56.4 2.3c-.1 2.4.1 5 .6 5.7 1.1 1.8-1.3 6.6-4 8-1.6.9-2 .8-2-.5 0-.8-.4-1.5-1-1.5-.5 0-.9.5-.7 1.1.4 2.3-5.7 2-8.6-.3l-2.8-2.3 5.5-3.7 5.6-3.6.1 4.1c.2 4.1.2 4.1.8-1 .5-4.1 1.3-5.7 3.6-7.7 1.7-1.4 3-2.6 3.1-2.6 0 0-.1 1.9-.2 4.3zm4.6-1.9c0 .3-.4.8-1 1.1-.5.3-1 .1-1-.4 0-.6.5-1.1 1-1.1.6 0 1 .2 1 .4zM231 177c0 .5-.5 1-1.1 1-.5 0-.7-.5-.4-1 .3-.6.8-1 1.1-1 .2 0 .4.4.4 1zm72 3.1c-1.2 4.2-1.4 4.2-3.5 1.9-1.8-1.9-1.7-2.1.5-4 2.9-2.6 4.1-1.7 3 2.1zm42.9.9c0 .8-.5.4-1.3-1-.7-1.4-1-2.9-.8-3.4.6-1.1 2 2 2.1 4.4zM242 179.9c0 .4-.6 1.6-1.4 2.6-1.3 1.8-1.4 1.8-2.6-.4-1-1.9-1-2.5.1-3.1 1.3-.9 3.9-.2 3.9.9zm51-1.1c0 1.6-2.5 4-4.8 4.7-2.2.6-2.3.5-1.1-1.7.6-1.2 1.7-2.6 2.3-3 1.5-1 3.6-1 3.6 0zm-46.2 3.3c-2.1 1.4-2.6 1-2.1-1.1.4-1.6.8-1.8 2-.9 1.1 1 1.1 1.4.1 2zm-9.7 4c2.6 2.7 6.3 11.9 4.9 11.9-.4 0-1.9-.9-3.3-2-3.2-2.5-3.7-2.5-3.7.1 0 1.6.5 2 2 1.6 4.8-1.3 4.5 4.1-.6 8.9-2.2 2.1-2.3 2.1-5.3.3s-3.3-2.3-3.4-5.2c-.1-2.7 2.7-6.7 5.4-7.6 1.6-.5 2.9-1.5 2.9-2.1 0-1.2-3.4.3-6.3 2.8-1.6 1.4-1.9 1.3-3.8-.7-2.9-3.1-1.7-6.5 2.1-5.8 1.5.3 4 .2 5.6-.3l2.9-.8-2.6-.1c-3-.1-4.2-2.8-2.6-5.7 1-1.8 1.1-1.8 2.1.1.6 1.1 2.3 3.1 3.7 4.6zm38.9-4c0 .5-.4.9-.9.9-.4 0-.6 1-.4 2.2.2 1.3-.3 3.2-1.1 4.3l-1.5 2-.6-2c-.4-1.1-1.1-2.8-1.6-3.7-1.2-2.3-1.2-3.8.1-3.8.6 0 1 .7 1 1.6 0 .8.5 1.2 1.1.9.6-.4.8-1.3.5-2-.2-.7-.2-1.5.1-1.8.7-.8 3.3.3 3.3 1.4zm6.2-1.5c.8.7-1.9 7.4-3.7 9.3-1.2 1.2-1.3 1.1-.8-1 .3-1.3 1-2.9 1.4-3.5.5-.6.6-1.4.3-1.7-.4-.3-.4-1.3-.1-2.2.7-1.5 1.9-2 2.9-.9zm-62.2.8c0 .2-1.1.6-2.5.8-1.4.3-2.5.1-2.5-.3 0-.5 1.1-.9 2.5-.9s2.5.2 2.5.4zm33 2.7c0 1-5.3 2.6-7.2 2.1-2.5-.5-2.2-1.5 1-3.3 2-1.1 3.1-1.3 4.5-.5.9.6 1.7 1.4 1.7 1.7zm159.5 1.9c-2.1 2.1-5.4 4.7-7.3 5.6-3.3 1.5-3.5 1.5-5.8-.7-3.1-2.9-3-3.7.4-3.4 1.6.1 5.5-1 8.8-2.6 8-3.7 8.5-3.6 3.9 1.1zm9.2-1.8c.2 1.6-1.4 3.8-5 7-2.8 2.7-5.5 4.8-5.9 4.8-1.7 0-.7-2.1 2.6-5.3 1.8-1.9 4.1-4.6 5.1-6 2.1-3.3 3-3.4 3.2-.5zm-192 1.7c.2 1.5-.2 1.8-1.7 1.4-2.3-.6-2.5-1.4-.8-3.1 1.4-1.4 2.1-.9 2.5 1.7zm68.1-1c2.9 2.5 2.8 3.2-.7 6.5-3.8 3.6-5.1 2.8-4-2.6.4-2.4.8-4.6.9-5.1 0-1.2 1.4-.8 3.8 1.2zm-8.1 4.8c-.1 3.2-.6 6.1-1.2 6.5-1.3 1-6.4.9-8.9-.1-1.7-.6-1.6-.9.9-3.9 2.6-3.1 2.8-3.1 4.1-1.5.7 1 1.4 1.3 1.4.7 0-.5-.5-1.5-1-2-1.5-1.5-.2-4.2 2.3-4.7 1.2-.2 2.3-.5 2.4-.6.1 0 .1 2.5 0 5.6zM154 188.1c1.6 1.8 3 3.6 3 4 0 1.8-6.4-3.1-6.7-5-.4-2.8.2-2.6 3.7 1zm112.6-.4c.3 1.5-.5 2.8-2.2 4-1.4 1-3.5 2.6-4.7 3.6l-2.2 1.8 2.5-1.3c1.4-.7 3.5-2.2 4.7-3.2 1.8-1.6 2.5-1.7 3.8-.6 2 1.7 1.9 3.3-.5 5.5-2.1 1.9-2.8 2.2-9.2 3.1-3.6.4-5.1-.7-2.8-2.1.6-.4 1-1.4.9-2.3-.6-6.2.1-8.2 3.4-9.6 4.2-1.9 5.9-1.6 6.3 1.1zM211 187c0 .5-.7.7-1.5.4-.8-.4-1.5-.8-1.5-1 0-.2.7-.4 1.5-.4s1.5.4 1.5 1zm8.4-.4c.9.3 1.6 1.3 1.6 2.1s-.6 1.3-1.2 1c-.7-.2-1.2-.9-1.1-1.4.1-.6-1-.8-2.4-.5-1.8.3-2.4.1-1.9-.7.8-1.2 2.6-1.4 5-.5zm177.9 3.6c2.9 3.2 2.9 5.1-.1 3-.9-.7-2.8-1.8-4.2-2.4-1.4-.7-2.8-1.7-3.2-2.3-2.9-4 3.6-2.5 7.5 1.7zm38.2-.3c-.7.6-5.5-2.1-5.5-3.1 0-.5 1.3-.1 3 .8 1.6 1 2.7 2 2.5 2.3zm-288.2-.7c.3 1.3.9 4.4 1.2 7 .6 4 .4 4.8-1 4.8-2.1 0-6.8-2.5-8.5-4.5-1-1.3-1.5-1.3-2.1-.3-.5.8-.7.2-.5-1.5.3-3.4 1.7-4.8 5.9-6.4 4.4-1.6 4.4-1.6 5 .9zm58.1-.6c.4.9.4 1.9.1 2.2-.8.8-5.5-2-4.9-3 .9-1.4 4.2-.9 4.8.8zm164.6.3c0 .5-1.2 1.6-2.6 2.5l-2.5 1.7 1.6-3.1c1.4-2.7 3.5-3.3 3.5-1.1zm-159.4.1c.8 0 1.4.4 1.4.9 0 1.5-4.9.9-5.5-.6-.4-1.1-.1-1.3 1.1-.9.8.3 2.2.6 3 .6zm131-.2c1.4.9 3.1 4.4 2.8 5.9-.1.7-.2 2.2-.3 3.2-.1 1.6-.7 1.8-3.3 1.5-3.4-.4-11.8-4.4-11.8-5.5 0-1.1 3.2-3.3 6.4-4.5 3.9-1.5 4.8-1.5 6.2-.6zm84.2 1c-2.2.4-2.2 1.1-.2 4 1.4 2 1.4 2.2-.3 2.2-1 0-2.8.3-4.1.6-1.9.5-2.1.3-1.6-1.2 1.1-3 5.6-7.4 6.8-6.6.7.4.4.8-.6 1zM253.2 193c-.3 4.1-2.6 6.4-5.2 5-1.7-.9-5.1-7-4.5-8 .2-.3 2.5-.5 5.2-.5h4.8l-.3 3.5zm53-1.3c.7 1.6 2.3 4.2 3.5 5.9l2.4 3.2-3.1 2.6c-4.5 3.7-7 3.3-8.9-1.4-.7-1.8-1-2-1-.7-.1 1 1 2.9 2.4 4.3 2.4 2.4 2.7 2.5 4.8 1 7.2-5.3 6.4-5 10.7-3.1 3.3 1.5 3.8 2 2.9 3.6-.6 1.3-.6 1.9.1 1.9.5 0 1 1.1 1 2.5 0 2.2-.3 2.4-4.4 2.2-2.4-.1-4.1-.6-3.8-1.1.3-.5-.6-.6-1.9-.3-1.6.4-3.8-.2-6.3-1.6-4.1-2.3-4.6-3-6.6-8.5-.7-1.7-1.7-3.2-2.2-3.2-.7 0-.7.4-.1 1.2 1.2 1.6 2.4 4.8 1.8 4.8-.2 0-1.1-1.3-2-3-1.5-2.9-1.5-3 3.2-7.9 2.7-2.7 5.1-5 5.6-5 .4-.1 1.3 1.1 1.9 2.6zm-146.2-.2c.7.9.8 1.5.2 1.5-.5 0-1.2-.7-1.6-1.5-.3-.8-.4-1.5-.2-1.5s.9.7 1.6 1.5zm36.5 4.7c.7 8.5 1.6 12.2 3.3 14.1 1.6 1.8 1.5 1.8-1.3.6-7.5-3.3-11.7-7-14-12.6-1.7-4-1.7-4.2 1.4-4.8 1.3-.2 3-.7 4-1 1.2-.4 2.1.2 2.9 2 .6 1.4 1.7 2.5 2.3 2.5.8 0 .6-.7-.4-1.8-2-2.2-2.2-3.9-.4-4.5 1.7-.6 1.8-.5 2.2 5.5zm10.2-1.1c.3 1 .9 1.6 1.4 1.3.5-.3.9-.3.9.1 0 1.1-5.3 2.5-7.1 2-1.1-.4-1.9-1.6-1.9-2.7 0-1.4.5-1.8 1.5-1.4 1.3.5 1.3.2-.1-1.9l-1.6-2.4 3.2 1.6c1.8.9 3.5 2.4 3.7 3.4zm13-3.9c.5.7.7 2.4.3 3.8l-.6 2.5-1.7-3.2c-.9-1.8-1.7-3.4-1.7-3.8 0-1 2.8-.5 3.7.7zm139.9.1c.4.4 0 .7-.9.7s-1.8-.4-2.1-.9c-.7-1 2-.9 3 .2zm12.9-.3c.3.5-.1 1-.9 1-.9 0-1.6-.5-1.6-1 0-.6.4-1 .9-1 .6 0 1.3.4 1.6 1zm12.5-.6c0 .2-.8 1-1.7 1.7-1.6 1.3-1.7 1.2-.4-.4 1.3-1.6 2.1-2.1 2.1-1.3zm-226.2 4.8c.2.4 1.1 0 2-.9 1.6-1.6 1.7-1.4 2 2.1.3 3.8-.7 6.3-1.5 3.8-.3-.6-.9-1.2-1.4-1.2-.6 0-.8.4-.5.8.3.5-1.3.9-3.4 1-3.5.2-4-.1-3.9-2.1 0-1.2-.2-3.1-.4-4.2s-.3-2.3 0-2.7c.4-.7 6.6 2.2 7.1 3.4zm165.4-.1c-2.4 4.4-6.3 5.4-9.5 2.6-5.5-5.1-5.4-5.4 2.5-5.6 4-.1 7.4-.4 7.7-.6 1.3-1.4 1 .7-.7 3.6zm25.9-1.7c1.2-.7 4.9.5 4.9 1.7s-6.8 4.5-7.6 3.6c-.4-.3-.3-1.4.1-2.4.5-1 .8-2.7.7-3.8-.1-1.6 0-1.7.4-.2.3.9 1 1.5 1.5 1.1zm44.2-1c2.1 1.7 1.2 2.4-2.5 2.2-3.2-.2-4.3-1-3.3-2.5.9-1.5 3.6-1.3 5.8.3zm34.6 0c1.9 2.3-.4 2.8-2.4.6-1.5-1.7-1.6-2-.3-2 .9 0 2.1.6 2.7 1.4zm-220.2 1.8c-.3.8-.6.5-.6-.6-.1-1.1.2-1.7.5-1.3.3.3.4 1.2.1 1.9zm4.7-.6c.9 2.5.7 3-1.3 3.1-1.4.1-1.8-.5-1.7-2.3.1-2.7 2.1-3.2 3-.8zm-78.3 2.4c.6 1.6 1.5 3 2.1 3 .5 0 .6-.5.3-1-1-1.6.3-1.2 2.5.7 1.1 1 3.7 2.3 5.7 2.9 2.7.8 3.9 1.8 4.7 4 1.7 4.7 5 8.2 9.7 10.4 2.4 1.1 3.9 2 3.3 2-.6 0-1.1.6-1.1 1.4 0 .7-1 3-2.3 5.1l-2.4 3.9-.7-2.6c-1.2-4.5-6.9-11.8-12-15.5-2.7-1.9-5.2-4.6-5.5-5.9-.3-1.3-1-2.4-1.5-2.4s-.4 1.1.1 2.5c1.1 2.9.4 3.1-3 .8-3.2-2.2-4-3.3-4-6.1 0-2.3 1.6-6.2 2.6-6.2.3 0 1 1.3 1.5 3zm281.3-.6c-.3.9-1.6 1.6-2.8 1.6-2 0-2-.1.4-2 2.8-2.1 3.3-2 2.4.4zm-245.7 3.9c1.4 2.3 4.4 6.3 6.5 8.8 3.9 4.7 4.5 5.9 2.8 5.9-.6 0-1.4-1-1.9-2.3-1.2-3.1-4-6.1-8-8.5-2.8-1.7-3.5-2.8-3.8-5.7-.3-4.4.8-3.9 4.4 1.8zm3.8-4.5c1.4 1 1.6 4.4.2 3.9-.6-.2-1.7-1.3-2.5-2.5-1.2-1.8-1.2-2.2-.1-2.2.8 0 1.9.4 2.4.8zm7.9 1.4c.8 1.2 1.3 2.5 1 2.9-.2.5.3 1.8 1.3 2.9 3.9 4.7 7.4 8 8.1 7.8 1.5-.4 8.2 3.5 8.2 4.8 0 2.4-2.7 1.6-5.3-1.6-1.4-1.7-2.8-2.6-3.1-2.1-.8 1.2-4.7.6-8.3-1.3-3.2-1.6-4.3-4.1-4.8-11.4-.4-4.6.6-5.3 2.9-2zm44.4 3.2c-.6 1.1-1.1 2.2-1 2.3.1.2-.1.2-.5 0-.4-.1-.9-.8-1-1.5-.2-.6-.5-2-.7-3-.6-2.8.5-3.5 2.5-1.6 1.5 1.3 1.6 2 .7 3.8zm152.3-4.4c.8 0 .3 4.3-.8 6.3-.4.6-5.8-1.8-7.3-3.3-.5-.5-.9-.6-5.2-.9-3.4-.2-1.8-.9 3.6-1.5 2.7-.3 5.2-.8 5.5-1.1.3-.3 1.1-.3 1.9 0 .7.3 1.8.5 2.3.5zm26.3 2.5c-4.5 4-5.4 4.3-5.4 1.6 0-1.3.9-2.1 3-2.6 1.6-.4 3.2-1.1 3.5-1.6.4-.5 1.1-.9 1.7-.9.7 0-.6 1.6-2.8 3.5zm30.1-2.4c.4.5.4 2.2 0 3.7l-.7 2.7-1.4-3.5c-.8-1.9-1.2-2.5-1-1.3.5 2.7 0 2.9-2 .9-1.8-1.9-1.8-2.4.4-2.9 3-.8 4.1-.7 4.7.4zm-103.3 2.4c3.8 2.1 6.9 3.2 10.2 3.4.5.1.7.4.4.7-.3.3-3.7.7-7.5 1-8.4.6-11.1-.8-9.2-5 .7-1.4 1.3-2.6 1.4-2.6.2 0 2.2 1.1 4.7 2.5zm53.6 2c.3 1 0 1.5-.7 1.1-.6-.4-2-.2-3.1.4-2.1 1.1-2.7-.1-1.4-3.4.8-2 4.8-.6 5.2 1.9zm47.1 2.3c.2 3.1-7.2 10.2-10.6 10.2-1.3 0-3.3-4.7-3.5-8-.2-5.2.1-5.7 4.5-6.7 3.6-.8 4.6-.6 6.9 1.2 1.5 1.1 2.7 2.6 2.7 3.3zm-212.9.8c2.5 3.1 5.7 6.8 7.2 8.3l2.8 2.8-4.5.1c-4.9 0-13.7 3.7-17.3 7.2-2.2 2.1-2.7 2.1-6.8 1-2.5-.7-4.4-1.9-4.4-2.6 0-1.7 1.2-1.8 2.9-.2 1.1 1.1 1.3 1 .8-.4-.8-2.3 1.7-3 3.1-.8.8 1.3.7 2.1-.1 2.9-.9.9-.8 1.1.5.6 1-.4 2-1.5 2.3-2.5.3-1 2.2-2.7 4.2-3.7s3.8-2.3 4-2.9c.6-1.9-2.7-2.5-4.3-.9-1.8 1.7-2.4 1.8-4.2.6-1.1-.7-1.1-1.7.3-5.6 2.7-8.2 3.1-8.5 5.1-3.5 1 2.4 1.9 3.9 2.1 3.3.3-.7-.3-2.5-1.1-4.2-.9-1.6-1.6-3.2-1.6-3.5 0-.4 2.4-1.2 4-1.4.3-.1 2.5 2.4 5 5.4zm190-5.1c0 .4-.7 2-1.6 3.6-.8 1.7-1.6 5-1.7 7.4-.1 3.7-.4 4.2-1.8 3.5-2-1.1-4.9-5.4-4.9-7.3 0-.7 1.9-2.7 4.2-4.5 3.9-3 5.8-3.9 5.8-2.7zm32.9.4c1.8 1.1.5 3.1-2 3.1-1.2 0-1.9-.7-1.9-2 0-2.1 1.6-2.6 3.9-1.1zm-164.3 1.5c2.2.7 4.5 1.1 5.2.8 1.5-.5.8 1-2.4 5.5-.9 1.3-1.3 2.3-.8 2.3.5-.1 1.8-1.5 2.9-3.2 1.1-1.7 2.9-3.7 4.1-4.5 1.9-1.2 2.3-1 5.5 3.9 1.8 2.9 3.5 5.6 3.7 6 .2.4-1.2 1.4-3 2.4-1.8.9-4.5 2.7-6 4.1-2.5 2.4-2.6 2.4-3.2.5-1.4-4.2-8.8-3.3-9.6 1.3-.6 3.6-2.5 4.3-4 1.5-.9-1.7-.8-2.5.4-3.9 1.8-2 2.1-5.7.6-6.6-1.2-.7-4.3 6.1-3.5 7.5.4.6-.2 1-1.2 1.1-1.4 0-1.4.2.5.9 1.2.5 2.2 1.5 2.2 2.1 0 .7-.9.9-2.2.5-1.3-.3-2.9-.6-3.5-.6-.7 0-1.3-.5-1.3-1.1 0-.5.5-.7 1-.4.6.3 1 .1 1-.5s-.6-1-1.2-.8c-2.1.3-5.8-1.2-5.8-2.5 0-1.9 4.1-8.1 6.4-9.7 2-1.4 2.4-1.6 4.6-1.9.6 0 1-.7 1-1.5s1-2.2 2.2-3c2.7-1.9 1.8-1.9 6.4-.2zm120.7.6c.8 3.1-2 4.1-5.9 2.1-5.3-2.6-5.1-4.1.5-4.1 4 0 5 .3 5.4 2zm15.7 2c0 2.2.7 5.7 1.5 7.7.8 1.9 1.5 3.7 1.5 3.9 0 .2-2.2.2-5 .1-3.6-.1-5-.6-5.1-1.7-.7-6.5 2.1-14 5.1-14 1.7 0 2 .7 2 4zm-290-.8c0 1.3 1.6 4.8 3.5 7.8s3.5 6 3.5 6.7c0 .7.4 1.2.9 1 1-.3 7.7 7.6 9.7 11.5.8 1.6 1.4 4.2 1.2 5.7l-.3 2.8-2.5-2.5c-1.4-1.4-1.6-1.9-.6-1.1 1.5 1 1.1-.1-1.4-4.8-1.9-3.4-4.2-7.2-5.3-8.5-1.1-1.4-.8-.4.8 2.7 1.5 2.7 3.1 5.4 3.6 6 .5.5.9 1.4.9 2 0 .5-.9-.1-2-1.5-1.3-1.8-2.2-2.2-3-1.4-.7.7-.3 1.4 1.5 2.4 2.6 1.4 4.3 6.6 3.1 9.6-.7 1.9-2.6.9-2.6-1.5 0-1-1.3-4.4-2.9-7.6-2.3-4.5-2.8-6.8-2.6-10.5.3-3.3-.1-5.2-1.1-6.1-.8-.6-1.4-.8-1.5-.3-.2 2.1-1.1 6.9-1.3 7.1-.7.8-6.6-6.2-6.6-7.9 0-1-.3-1.7-.7-1.5-.5.3-.6-1.7-.5-4.4.3-3.6 1-5.3 2.5-6.4 2.9-2 3.7-1.9 3.7.7zm82-.6c0 .8-.7 3.2-1.7 5.5-1.4 3.5-1.7 3.9-2.6 2.3-1.1-1.9-2.6-8.1-2.2-8.6.2-.2 1.7-.3 3.4-.4 2-.1 3.1.4 3.1 1.2zm40.4.7l2.9 2.3-2.8 3c-2.3 2.4-2.7 2.6-2.4.9.4-2.2-.7-4.5-2.2-4.5-.5 0-.9.4-.9 1 0 .5.3.9.8.9 1.9-.3 2.2.3 1.2 2.1-1.2 2.2-5.5 2.9-4.6.7.2-.6 1-2.9 1.7-5 1.4-4.3 2.4-4.5 6.3-1.4zm208.5.4c1.2 1.4 1.9 2.8 1.6 3.1-1 1-10.5 1.2-10.5.2 0-.5-.7-.7-1.7-.3-1 .4-.5-.6 1.2-2.5 3.5-3.9 6.7-4.1 9.4-.5zM322 201c0 .5-.7.7-1.5.4-.8-.4-1.5-.8-1.5-1 0-.2.7-.4 1.5-.4s1.5.4 1.5 1zm47.1 1.8c2 1.2 4.1 2.2 4.8 2.2.6 0-.2 1.3-1.7 3-1.6 1.6-3.6 4.4-4.6 6.2-1.7 3.2-8.8 7.5-11.1 6.8-.5-.2-1.8-.2-2.7-.2-1 0-2.9-1.4-4.3-3.2-2-2.6-2.3-3.9-1.7-5.7l.9-2.3 1.8 2.7c2 3.1 3.2 3 1.6-.1-.8-1.5-.8-2.2.2-2.5.6-.3.2-.6-1.1-.6-2-.1-2.1-.3-1-2.1 1.6-2.6 9.8-6.7 13-6.6 1.3.1 4 1.2 5.9 2.4zm4.5.9c-.6.6-3.6-.9-3.6-1.8 0-.5.9-.4 2 .3 1 .7 1.8 1.4 1.6 1.5zm-209.5 2.7c.6 2.3 1.3 4.4 1.6 4.8.2.5.1.8-.2.8-.3 0-1.5-1.9-2.5-4.3-1.4-2.9-2-3.5-2-2.1 0 1.2 1.4 3.6 3 5.4 1.7 1.8 2.9 3.4 2.8 3.6-.2.1-2.1-.5-4.3-1.5-4.5-2.1-7.9-5.5-9-8.9-.6-2.1-.4-2.2 4.4-2.1 5.1.2 5.1.2 6.2 4.3zm277.1-3.2c-.9.9-1.5.9-2.4 0-.9-.9-.7-1.2 1.2-1.2s2.1.3 1.2 1.2zM173 206.8c4.5 4.4 4.9 5.7 1.9 6.5-2.3.6-5.5-2-6.9-5.9-2.2-5.7-.6-5.8 5-.6zm174.3-1.4c-1.5 2.1-1.9 2.2-2.4.8-.4-1.1 0-2 1-2.4 2.9-1.2 3.2-.8 1.4 1.6zM255 205c0 .6 1 .6 2.7-.1 2.7-1 2.7-1 .8 1-2.3 2.6-2.7 2.6-4.3.1-.7-1.2-.8-2-.2-2 .5 0 1 .4 1 1zm134.5 0c.4.6-1.4 1-4.7.9-3.9 0-4.8-.3-3.3-.9 2.8-1.2 7.3-1.2 8 0zm49.9-.2c.3.5-.3 2.9-1.2 5.4-1.2 3.5-2.3 4.8-4.7 5.7-1.7.6-3.5 1.1-3.9 1.1-1.5 0 .7-4.5 4.3-8.7 3.6-4.3 4.6-5 5.5-3.5zM238.3 208c-.3 1.1-.9 1.7-1.5 1.4-.5-.3-.4-1.2.3-2 1.6-1.9 1.8-1.8 1.2.6zm14.7-.1c0 1.3-1.1 2.3-3.2 3l-3.3 1.2 3-3c3.7-3.6 3.5-3.5 3.5-1.2zm76.8 1.3c.2 1.9-.2 2.8-1.7 3.3-2.8.9-3.6.2-3.9-3.5-.2-2.9 0-3.1 2.5-2.8 2.2.2 2.9.9 3.1 3zm7.6-1.8c-2.4 1.7-6.4 1.7-6.4.1 0-.7 1.9-1.2 4.2-1.3 4-.2 4.1-.1 2.2 1.2zm109.2-.1c.2.7.5 2.4.6 3.7.2 5.4-.1 5.7-4.6 4-2.5-.9-2.5-.9-.9-5 1.6-3.9 3.9-5.2 4.9-2.7zm10.9 1.7c-.5 2.7-2 5.3-4.3 7.4-3.2 2.9-4.7 1.6-4.8-4.2l-.1-5.1 4.1-.3c5.1-.4 5.6-.2 5.1 2.2zm-113.8-1.4c-.3.4-.2 1.4.3 2.4.7 1.3.4 2.4-1 4-1.1 1.3-2 2.9-2 3.6 0 .7-.3 1.9-.6 2.8-.3.9-.1 1.6.6 1.6.6 0 .9-.3.7-.8-.3-.4 0-2.1.7-3.7l1.3-3 .1 3.3c0 1.8 1.2 5.7 2.6 8.8 2.1 4.5 2.3 5.9 1.4 7.9-1.4 3.1-2.8 3.6-5.9 1.9-1.5-.8-1.8-1.3-.8-1.4.8 0 1.9.4 2.5 1 .6.6 1.6-.1 2.8-2.1 1.8-3.1 1.8-3.1-.2-2-2.9 1.6-3 1.5-3.8-2.4-.3-1.9-1.1-3.8-1.6-4.1-.6-.4-.8.1-.5 1.2 1.9 6.2 1.9 7.1-.2 7.7-2.7.7-8.3-4.8-11.7-11.4-2.4-4.9-2.5-6.9 0-6.9 1.7 0 15.4-6.9 13.8-7-1.6 0-.6-2 1-2 .6 0 .8.3.5.6zm36.3 5.6c0 1.6-1.3 2.2-4.7 2.1-.7-.1-1.3.4-1.3 1 0 1-3 3.6-4.2 3.7-1.4 0-.8-1.9 1.6-5.5 2-2.9 2.5-3.2 2.9-1.8.3 1.2.5 1 .6-.8 0-1.4.6-3 1.3-3.7 1-1 1.5-.7 2.5 1 .7 1.3 1.2 3.1 1.3 4zm14-3.7c2.4 2.5 2.4 2.6.4 4.5-1.8 1.8-2.1 1.8-6.6.3-2.7-.8-4.8-2.1-4.8-2.8 0-.8-.3-2-.6-2.9-.5-1.3.2-1.6 4.3-1.6 4 0 5.4.5 7.3 2.5zm-254.7 1.6c4 2.1 12.7 11.3 13.8 14.7 1.6 5 .3 5-2.1.1-1.1-2.4-3.3-5.8-4.8-7.5-2.8-3.3-8.9-7.4-10.7-7.4-.5.1.7 1 2.7 2.1 4.5 2.3 11.7 11 12.5 15.1.3 1.5.9 2.8 1.4 2.8.5 0 .8 1.1.7 2.5-.1 1.4-.5 2.5-.8 2.4-2.4-.3-4.5-1.9-4.5-3.5-.1-3.1-3.1-8.5-8.6-15.2-2.7-3.4-4.7-6.2-4.3-6.2.5 0-.1-.7-1.2-1.5-1.8-1.4-1.7-1.4.9-.5 1.6.5 3.8 1.5 5 2.1zm-27.2 1.8c-2 3.8-4 14.3-2.5 12.9.4-.5.8-2.3 1-4 .1-1.8.7-4.4 1.2-5.8 1-2.3 1.1-2.2 1.1 1.6.1 3.1 1.1 5.6 3.7 9.5 4.7 7 7.4 12.4 7.4 14.6-.1 1.1-.6.7-1.4-1.2-1.6-3.7-6.8-9.1-9.6-10-1.1-.4-2-1.4-2-2.3 0-1.2-.3-1.3-.8-.5-.6.9-1.6.8-4-.7-3.7-2.3-4.1-4.5-.9-5.4 2.1-.6 2.1-.7.3-2.1-1.8-1.4-1.7-1.6 2.5-6 2.4-2.5 4.7-4.5 5.2-4.5.4 0-.1 1.7-1.2 3.9zm159.4 1c-.3 1.2-1.1 2.1-1.6 2.1-.6 0-.8-.3-.6-.8.2-.4.7-1.6 1.1-2.6.9-2.5 2-1.3 1.1 1.3zm28-1.9c.3.5-.1 1-.9 1-.9 0-1.6-.5-1.6-1 0-.6.4-1 .9-1 .6 0 1.3.4 1.6 1zm-44.7 3.7c-.6 2.1-.8 6.4-.4 9.5.4 4.5.3 5.6-.7 5.2-.9-.3-1.2-1.6-.9-3.5.6-4.1-1.6-8.9-4.7-10.1-2.5-1-2.5-1.1 2.4-2.8 2.8-1 5.1-1.8 5.2-1.9.1 0-.3 1.6-.9 3.6zm147.9 1.8c1.6 3.3 1.6 3.4-1.2 5.8l-2.9 2.4-4.8-2c-2.7-1.1-4.7-2.5-4.5-3.1.3-.6.9-1 1.5-.9.6.2 1.6-.7 2.2-1.8.7-1.1 1.9-2.9 2.8-3.9 2-2.5 4.7-1.1 6.9 3.5zm-285.1-.2c1.5 2.4 4 5.3 5.6 6.3 2.6 1.7 2.9 2.3 2.4 5.4-.3 1.9-.6 4.5-.6 5.7 0 1.3-.4 2.3-1 2.3-.5 0-1-.5-1-1.1 0-.5-1.9-3.8-4.2-7.1-3-4.5-4.3-7.5-4.6-11-.2-2.6-.2-4.8.1-4.8.3 0 1.8 2 3.3 4.3zm310.7-3.2c-.6.6-1 1.7-.9 2.3.2.6.1.8-.1.3-.3-.4-1.2-.7-2.1-.7-1.2-.1-1-.5.8-1.5 3.1-1.7 3.8-1.9 2.3-.4zm-231.9 1.4c.3.8.2 1.5-.2 1.6-.4 0-1.6.2-2.6.4-1.1.2-2.8-.2-3.9-1-2-1.4-2-1.4 4.9-2.4.7 0 1.4.6 1.8 1.4zm10.6.6c0 1.8-2 1.8-2.9 0-.9-1.6-.8-1.8.9-1.4 1.1.3 2 .9 2 1.4zm31.2.3c1.5.4 1.6.9.6 3.1-.6 1.4-1.5 2.5-2 2.5s-.8 1.5-.6 3.2c.5 4.8-2.6 5-5.3.4-2.3-3.9-3.2-4.7-2.2-1.9 1 2.9 4.5 6.3 6.5 6.3 1.5 0 1.6.3.6 2.5-.6 1.4-1.9 2.5-2.8 2.5-3.2 0-6.2 3.4-6.4 7-.1 3.3-.5 3.7-6.6 6.6-3.6 1.8-6.9 2.9-7.4 2.6-.5-.3-2.5-.5-4.4-.4-5.1.2-9.6-4.6-8.7-9.1 1.2-5.9 2.6-9.5 4.3-11 1.6-1.5 2-1.4 4.4.8 2 1.8 2.9 2.1 3.6 1.2 1.1-1.4-.2-5.7-1.8-5.7-2.1 0-.9-3 1.5-3.6 1.4-.3 2.5-1 2.5-1.5 0-1.3 8.5-4.9 11.4-4.9 2.3 0 3.1.9 2.7 3.2-.2 1.3 1.6.9 2.9-.7.6-.8.9-1.9.5-2.5-1.1-1.8.4-3 2.8-2 1.2.4 3 1.1 3.9 1.4zm74.1 1c1.7.5 1.7.7.3 2.2-2.2 2.1-4.2 6.2-5 10-.5 2.2-1.5 3.3-4 4.2-4.4 1.6-4.9 1.5-4.3-.8.3-1.1.1-2.3-.4-2.6-.5-.3-1 .5-1 1.8-.1 2-.2 2-.6.4-.3-1.1.1-2.4.8-3 .8-.6 1.9-2.2 2.5-3.6 1.2-2.5 3.5-7.7 4.3-9.5.2-.6-.3-.4-1.2.4-1.8 1.4-2 1.2-1.1-1.2.5-1.3 1.1-1.3 4.2-.2 2 .8 4.5 1.6 5.5 1.9zm-28.3 1c0 1.3-4.8 3.6-7.5 3.6-2 0-.4-5.1 1.9-6 2.4-.9 5.6.5 5.6 2.4zm-33.8 1.5c1.5 2 2.3 9.1 1 9.1-2.4-.1-3.2-1.8-2.2-4.4 1.3-3.5 1.3-3.4-1-4.6-1.2-.6-2-.7-2-.1 0 .5.7 1.1 1.5 1.3 1.3.3 1.3.6.1 3-1.4 2.6-1.3 2.9 1.2 4.6 2.4 1.8 2.5 2.1 1.2 5.1-1.7 4.1-2.3 4.4-4.7 2.3-3.1-2.7-3.8-5.9-1.4-7.1 2.1-1.2 2.2-3.1.2-5.5-.9-1.1-1-1.6-.2-1.6.6 0 1.1-.5 1.1-1.1 0-.5-.5-.7-1.1-.3-.6.3-1.5.1-1.9-.6-.5-.8-.8.1-.7 2.2.1 3-1.9 6.8-3.6 6.8-1.2 0 .1-6 1.8-8.6 1.1-1.6 1.9-3.2 1.8-3.5-.5-1.5 7.3 1.2 8.9 3zm172.4-.2c-.4 1.1-.2 1.3.9.9.8-.3 1.5-.1 1.5.4 0 1.5-1.7 1.2-4.5-.6-1.4-.9-4-1.6-6-1.7-4.9-.1-4.4-1.5.8-1.9 5.1-.4 8.1.8 7.3 2.9zm-127.4-2.1c.3.3.2 2-.3 3.7-.4 1.8-1 4.5-1.3 6.2-.5 2.8-3.7 6.5-5.6 6.5-2.5 0-1.1-9.7 2.1-14.2 1.9-2.6 3.9-3.5 5.1-2.2zm59.1 5.4c.5 0 .2.9-.8 2s-2.2 2-2.7 2c-.9 0-2.7-4.1-3.5-8-.4-2.4-.3-2.4 2.8.7 1.7 1.8 3.6 3.3 4.2 3.3zm33.1-5.4c2.3.9 2 1.9-1 3.3-3.2 1.4-3.4 1.3-2.3-1.7.9-2.4 1-2.5 3.3-1.6zm21.6.8c-.7.7-1.4.6-2.1-.1-.9-.9-.7-1.2.9-1 1.4.1 1.8.5 1.2 1.1zM265.3 222c2.6 0 2.7 1.5.6 5.8-3.5 7-7.6 5-8.3-4.1-.5-5.6 0-6.1 3.4-3.7 1.5 1.1 3.5 2 4.3 2zm115.4-3.4c-.3.3-1.2.4-1.9.1-.8-.3-.5-.6.6-.6 1.1-.1 1.7.2 1.3.5zm64.3.4c2.8.1-1.2 2-4.2 2-2.1 0-2.6-.4-2.1-1.6.4-1 1.3-1.4 2.7-1 1.1.3 2.8.6 3.6.6zm-271.6 1.5c2.7.8 6.5 2.4 8.3 3.5 4.3 2.5 5.7 2.5 5-.1-.4-1.6-.3-1.8.9-.8.8.6 1.4.8 1.4.4 0-.5.2-.6.5-.3s-.1 2.3-.9 4.4c-2 5.5-2.7 9.2-1.9 9.7.5.3.9-.6 1-2 .2-4 3.3-11.3 4.9-11.3.7 0 3.2.7 5.4 1.6 3.6 1.5 3.9 1.8 2.7 3.3-4.7 5.4-6.7 14.6-4 18.7 1.7 2.7 1.7 2.7-.7 1.9-3.2-1-5.8-3.8-7.2-7.5-.5-1.7-1.4-3-1.9-3-2.8 0 4.9 10.5 8.5 11.6 1.2.3 3.7 1.3 5.6 2.2 2.1 1 5.7 1.6 9 1.5 7.1-.1 14.1-1.3 13.5-2.2-.2-.4.9-1.5 2.5-2.5 2.2-1.2 3.5-1.4 4.7-.7 1.6.9 1.3 1.1-1.5 1.7-1.8.4-3.5 1.1-3.8 1.5-.7 1.2-.3 1.1 4.5-.6 3.9-1.3 4.2-1.3 6.3.8 6.2 6.1 12.2 7.3 19.1 3.8 3.6-1.8 3.7-1.8 4.3.1.3 1.1 2.2 3.8 4.1 5.9 6.7 7.4 18 7.8 26.2 1 2.4-2 3.2-3.3 2.8-4.5-.6-1.5-1.2-1.3-4.8 1.8-9.4 8-23.2 4.1-25.5-7.2-.1-.8.7-2.3 1.8-3.4l2-2 1.4 2c2.7 3.8 13.4 9 13.4 6.4 0-.4-1.1-.9-2.5-1-3-.2-8.8-3.9-10.5-6.5-1.8-3 1.8-6.2 7.2-6.4 2.3-.1 5.4-.7 6.9-1.4 2.6-1 3.2-.8 7.8 3.3 2.8 2.3 5.1 4.5 5.1 4.8 0 .8-8.6 6-9.9 6-.6 0-1.1.4-1.1 1 0 1.4 2.8.1 8.2-3.7 4.1-2.9 5.5-3.3 9.9-3l5.2.3 1.5 4.7c1.8 5.8 7.3 12.3 11 13.1 1.5.4 3.6 1.9 4.6 3.5 3.5 5.1 10.9 8.9 19 9.6 1.6.2 3.3 1 3.8 1.9 1.7 3 5.4 6.5 9.4 8.8 3.5 2.1 3.9 2.7 4.2 6.8.5 8.4 4 16.4 9.9 22.8 3.8 4.1 12.5 8.8 14.3 7.7 1.5-.9 2.7 2.5 3.3 9.2.3 4.1 1.4 7.9 3.1 10.9 1.4 2.6 2.6 5 2.6 5.3 0 .4-2.5 3.3-5.5 6.5s-5.9 7.3-6.4 9.2c-1.2 4.3-10.3 16.1-15.6 20.2-2.3 1.8-5.2 4.1-6.5 5.2-1.2 1.1-5.7 4.1-9.9 6.7-4.2 2.6-7.8 4.9-8.1 5.3-.8.9-12.4 6.4-13.2 6.2-.3-.1-4.6 1.4-9.5 3.4-4.8 1.9-9.5 3.7-10.3 3.9-.8.3-6.4 1.8-12.5 3.5-6 1.6-15.7 3.7-21.5 4.5-5.8.9-12.5 1.9-15 2.3-6.1.9-42.2.9-49-.1-13.5-1.8-16.8-2.4-26-4.8-9.8-2.6-13.4-4-26-10.2-19.1-9.3-22.4-12-36.5-30.5-.5-.8-2.9-3.5-5.2-6.1-2.4-2.7-4.3-5.3-4.3-5.9 0-.6-1-2.6-2.3-4.5-1.2-1.8-4.4-8.2-7.1-14.2-2.7-6.1-6.1-13.5-7.5-16.5-1.4-3-2.7-7.3-2.9-9.5-.4-5.4-1-6.7-2.5-6.2-.6.2-2.3-.4-3.6-1.4-1.3-1.1-3.2-1.9-4.2-1.9-1.3 0-1.7-.5-1.2-1.8.6-1.5.4-1.4-1.3.2-1.9 2-1.9 1.9-2.2-1.9-.2-2.4.2-4.3 1.2-5.3 1.4-1.4 1.6-1.3 2.4.9.6 1.3.8 2.7.5 3.1-.2.5.1.8.6.8 1.4 0 1.4-.4-.2-4.3-1.2-3-1.1-3.4 1.5-5.9 3.3-3.4 4-2.6 4.5 5.5.6 8.8 2.3 11.9 2 3.5-.1-3.7.2-6.4.7-6.1.5.4.6-.8.1-2.8-.4-1.9-.8-4.4-.8-5.7-.1-1.4-.6-2.1-1.4-1.8-.7.3-1.3 0-1.3-.7s2.6-2.4 5.8-3.8c6.5-2.9 8.7-6.2 9.8-14.2.4-2.6 1.7-5.7 3.1-7.3 1.3-1.6 2.2-2.3 1.8-1.7-.9 1.9.3 1.6 2.8-.7 1.2-1.1 2.8-1.8 3.5-1.5.9.3 1.2 0 .9-.9-.4-1 0-1.2 1.3-.9 3.1.8 17-8.5 17-11.3 0-.3 1.4-3 3.2-5.9 2.8-4.8 3.5-5.3 5.9-4.8 2.2.4 2.7.1 3.3-2.2.6-2.5 1-2.6 4.1-2.1 3.3.7 3.5.5 3.5-2.1 0-2 .7-3.1 2.2-3.8 1.3-.6 3.7-3.1 5.4-5.7 2.5-3.9 6.4-8.8 6.8-8.8.1 0 2.3.7 5 1.5zm143.2 3.9c-1.4 1.8-2.3 3.6-2 3.8.2.3 0 1.8-.6 3.4-.6 1.6-1.4 4.7-1.7 6.9-.5 3.7-2.2 7.2-2.4 5-.5-4.8.5-10.4 2.2-12.8 1.1-1.5 1.5-2.7.9-2.7-1.7 0-1.1-1.4 2.2-5.4 3.8-4.7 5.1-3 1.4 1.8zM435 220c0 .5-.2 1-.4 1-.3 0-.8-.5-1.1-1-.3-.6-.1-1 .4-1 .6 0 1.1.4 1.1 1zm-111.8 3c.3 1.6.1 3-.3 3s-1.2-1.4-1.8-3c-.8-2.4-.7-3 .3-3 .8 0 1.6 1.3 1.8 3zm56.8-1.2c0 2.8-1.1 3.4-2.6 1.4-1.2-1.6-1.3-1.6-1.4 0 0 .9-.9 2-2.1 2.3-3.8 1.3-3.3-.8 1.1-3.7 3.3-2.2 5-2.2 5 0zm-96 0c0 .4-1.1 2-2.5 3.5-3.1 3.3-2.1 3.6 1.3.4 1.4-1.2 2.1-1.5 1.7-.7-.5.8-1 3-1.1 5-.1 1.9-.2 3.7-.3 3.9-.2 1-5.1-4.4-5.1-5.6 0-.7-.4-1.3-1-1.3-.5 0-1-.6-1-1.3 0-.9 3.3-2.9 7.8-4.6.1-.1.2.2.2.7zm107.1 1.8c2.7 1.3 3 2 2.7 5.2-.3 2.6-.9 3.8-2.2 4-2.8.6-9.6-3-9.6-5.1 0-.9.4-1.7.9-1.7s1.2.8 1.4 1.7c.4 1.4.5 1.2.6-.5 0-1.2-.5-2.2-1.1-2.2-1.4-.1 2-3 3.4-3 .5 0 2.3.7 3.9 1.6zm21.9-.5c0-.6.9-1.1 2.1-1.1 1.2 0 1.9.5 1.6 1.2-.2.7-1.1 1.2-2 1-.8-.1-1.8.2-2.2.8-1.2 1.9-3.3 1.1-2.8-1 .4-1.6.8-1.8 1.9-.9 1 .8 1.4.8 1.4 0zm19.5.4c.6 0 1 1.1 1 2.5 0 1.8-.6 2.6-2.2 2.8-1.4.2-2.3-.2-2.4-1 0-.7-.5-.4-1 .7l-.9 2 .3-2c.1-1.1 1-2 1.9-2 .9 0 2-.4 2.4-.8.4-.4 0-.7-.9-.7s-1.7-.7-1.7-1.6c0-1 .4-1.2 1.3-.7.6.4 1.7.8 2.2.8zM275 224.6c0 .7.2 1.9.6 2.7.5 1.4-1.6 2.6-7.3 4.2-2.9.8-3-.9-.3-5.2 1.5-2.5 2.6-3.2 4.5-3.1 1.4.1 2.5.8 2.5 1.4zm46.4 1.2c1.4 2.7 1.3 3.2-1.4 7.8-6.4 10.7-8.1 11-5.6.9 1.4-5.8 4-11.5 5.2-11.5.2 0 1 1.3 1.8 2.8zm98.9-1.2c.3.4-.3 2.4-1.4 4.5-1 2.1-2.3 5.6-2.8 7.6-.8 3.3-1 3.5-1.6 1.6-.5-1.4-1.3-2-2.6-1.8-1.2.3-1.9-.2-2-1.3 0-.9-.2-3-.3-4.6-.2-3.3 3.5-5.9 5.6-3.8.7.7 1.9 1.2 2.8 1.2 1.2-.1 1.2-.3-.3-1.1-.9-.6-1.5-1.4-1.2-2 .7-1 2.9-1.2 3.8-.3zm7.2.4c-.3.5-1.2 1-1.8 1-.7 0-.6-.4.3-1 1.9-1.2 2.3-1.2 1.5 0zm11.4 1.1c-1.6 1-2.3.4-1.4-1 .3-.6 1.1-.8 1.7-.5.6.4.5.9-.3 1.5zm-76.7 2.8c.5 3.8-1.7 7.8-4.9 8.6-6.7 1.7-7.7 1.7-6.3 0 .7-.8.9-1.5.5-1.5-.7 0 2.9-6.4 5.2-9.1 2-2.4 5.1-1.2 5.5 2zm42.9-2.5c-.8 1-.8 1.6.3 2.5 3.2 2.6 0 11.1-4.2 11.1-.7 0-1.1.4-.8.9.4.5-.3.7-1.3.4-2.1-.5-3.5-4.2-2.5-6.6.3-.8 2.4-2.2 4.6-3.1 2.3-.9 3.9-1.9 3.5-2.2-.4-.4-1.2-.2-1.9.3s-2.1 1.3-3 1.6c-1.5.5-1.6.4-.5-1.3.6-1.1 1.7-2 2.3-2 .7 0 1.4-.7 1.8-1.5.3-.8 1.1-1.5 1.7-1.5.9 0 .9.3 0 1.4zm-27.1.4c0 1.3-3.2 3.9-5.9 4.7-2 .6-2.3.4-1.8-1 .4-.9.7-2 .7-2.5 0-.8 2.2-1.5 5.8-1.9.6 0 1.2.3 1.2.7zm19-.1c0 .5-.5 1.5-1 2.3-.8 1.2-1 1.1-1-.8 0-1.2.5-2.2 1-2.2.6 0 1 .3 1 .7zm-69 2.9c0 .8.4 1.4.9 1.4s1.3.9 1.6 2c.3 1.1 1.1 2 1.7 2 .6 0 2.6 1.1 4.3 2.4 1.8 1.4 4.4 2.8 5.9 3.2 2.3.5 2.6 1.1 2.7 5 .1 2.4.2 5.2.3 6.1 0 1-1 2.3-2.4 3-1.7.9-2 1.3-.8 1.3.9 0 2-.5 2.3-1 .9-1.5 2.5-1.2 2.5.5 0 .9.6 1.8 1.4 2.1 1.1.4.9 1.4-1 4.8-1.3 2.4-2.5 6.2-2.7 8.5-.1 2.8-.7 4.1-1.7 4.2-1 0-.8.3.5.9 1.8.8 1.7.9-.8.9-3.3.1-8.8-2.1-12.4-4.9-2.9-2.3-1.8-2.8 1.3-.5 2.1 1.4 7.3.9 7.4-.8V269c0-.5-.6-.7-1.3-.4-3.7 1.4-12.1-5-11.5-8.8.2-1.3.9-2.2 1.7-2 .8.2 1.1-.3.8-1.1-.3-.7.4-1.9 1.4-2.6 2.1-1.3 1.6-3.6-.7-2.7-2.3.9-.3-2.6 4.2-7.4 2.4-2.4 4.1-4.6 3.8-4.9-.2-.2-2.2 1.6-4.5 4-2.2 2.4-4.4 4.4-4.9 4.4s-1.2.3-1.6.7c-.4.5-1.4.8-2.3.8-1 0-.6-.9 1.4-3 2.3-2.4 2.9-3.9 2.9-7.8.1-6.4-1.9-6.2-5.5.8-1.6 3-3 5.8-3.1 6.2-.2.3-1.6 1-3.3 1.4l-3 .7 3.6-3.9c2-2.2 4.6-5.8 5.8-8.1 1.6-3.2 2.5-4.1 3.9-3.6 1.4.5 1.5.3.5-.8-1.5-1.6-1.7-4.3-.3-3.4.6.3 1 1.3 1 2.1zm-226 7.1c2.3 4.7 3.1 8.9 2.1 11.7-1.7 4.5-8.1-9.8-7.5-16.7.2-1.6-.1-2.5-.7-2.1-.9.5-.6 5.6.7 9.5.5 1.9-4.3 3.6-5.8 2.1-1.2-1.2 1.9-10.3 4-12 1.9-1.5 3.6.3 7.2 7.5zm280.7-3.5c-.3 1-.1 1.8.4 1.8s.9-.6.9-1.4c0-1.1.8-1.1 4.3-.3 5.3 1.4 5.2 1.4 3.8 3-.6.8-1.3 4.1-1.5 7.4-.4 7.4-2.7 11.3-6.8 11.3-1.6 0-2.7-.4-2.3-.9.3-.5-.3-1.6-1.3-2.3-1-.7-2.2-2.6-2.6-4.2-.4-1.5-.9-2.6-1.2-2.3-.4.3-.1 2.2.6 4.2 1.1 3.2 1 3.8-.7 5.1-3.4 2.6-8.6 0-9.9-5-.5-2.1-.3-2.6 1.2-2.6 1.1 0 3.9-1 6.4-2.1 4.1-1.8 4.5-1.9 5.7-.4.6 1 .9 2.4.6 3.3-.5 1.3-.3 1.4.6.6 1-.9.9-1.8-.3-4.2-1-1.9-1.2-3.3-.6-3.7.5-.3 1.5-1.6 2.1-2.8.8-1.7.4-1.5-1.6.7-2.2 2.4-2.9 2.6-3.6 1.5-.7-1.2-.9-1.1-.9.2 0 .9-.9 2.4-2 3.4-2.2 2-9.6 2.9-10.6 1.3-.4-.6-.2-.8.4-.4.7.4 1.3-1 1.7-3.9.8-5.1 2-5.7 3.7-2 .6 1.4 1.5 2.5 1.9 2.5.4 0 1.6.3 2.6.6 1.5.5 1.5.4-.2-.7-2-1.2-4.4-3.9-4.5-4.9 0-.3 1.2-.7 2.7-.8 3.1-.2 7.2-2.7 8-4.8.8-2.1 3.6.4 3 2.8zM278 230.9c0 .6 1.4 1.8 3 2.8 1.7.9 3 2.1 3 2.5 0 1.4-8.4 3-12.9 2.5-2.5-.3-5-1.2-5.6-2.1-.7-.9-1.7-1.6-2.3-1.6-.6 0-1.3-.4-1.6-.9-.3-.5.4-.9 1.7-.8 2.7 0 6.3-.8 9.7-2.1 3.2-1.4 5-1.4 5-.3zm155.2 2.1c.5 3.5-1.6 4.2-2.5.9-.3-1.2-1-1.8-1.6-1.4-.6.3-1.1.1-1.1-.5 0-.7.7-1 1.5-.6.8.3 1.5.1 1.5-.4 0-2.4 1.8-.7 2.2 2zm-301.8 2c.9 2.2 1.6 4.8 1.6 5.8s.5 2.3 1.1 2.9c.8.8.3 2.4-1.6 5.9-1.5 2.7-3.1 5.3-3.6 5.8-1.8 1.9-.8-.8 2.1-6.1 1.7-2.9 2.8-5.3 2.5-5.3-.9 0-5.4 7.8-6.1 10.4-.3 1.4-1.2 3-1.9 3.6-1.1.9-1.3.6-1.1-1.3.2-1.3.6-3 1.1-3.7.4-.7.9-3.1 1-5.4.2-2.2.6-5.7 1-7.6.3-1.9.7-4.7.7-6.3.1-3.8 1.3-3.4 3.2 1.3zm124.4-2.3c4.4 3.8-1.6 12.3-10.4 14.8-3.6 1.1-8.3.3-8.5-1.4 0-.3-.2-1.4-.4-2.4-.2-.9.1-3.3.7-5.3.9-3.5 1-3.5 3.4-1.9 1.3.8 2.4 1.1 2.4.5 0-.6-.7-1.3-1.5-1.6-1.7-.7-2.1-3.4-.5-3.4.6 0 1 .6 1 1.4 0 .8 1.2 2.4 2.6 3.5l2.7 2.1-4.2 4c-2.2 2.2-3.7 4-3.1 4 .5 0 2.7-1.8 4.9-4.1 2.3-2.2 4.5-3.8 5.1-3.4.5.3 1 .1 1-.4 0-.6-.4-1.1-.9-1.1s-.1-1.6.7-3.5c1.8-4 2.2-4.1 5-1.8zm169.9 3.6c.3 1.9-4.3 8.7-5.8 8.7-2.1 0 0-10.6 2.7-13.3.9-.8 2.7 1.8 3.1 4.6zM111 233.5c2 2.4.6 2.8-1.5.5-1-1.1-1.3-2-.8-2 .6 0 1.6.7 2.3 1.5zm183.5 1.5c.3.5-.1 1-1 1s-1.3-.5-1-1c.3-.6.8-1 1-1 .2 0 .7.4 1 1zm12.1 4.4v5.5l-2.8-2c-2.5-1.9-5.4-5.8-4.6-6.3 1.1-.7 5.5-2.5 6.3-2.5.6-.1 1 2.3 1.1 5.3zm-219.3-1.2c-.7 3.8-2.6 6.3-4.2 5.4-1.7-1.1-1.3-3.8 1.1-6.3 3-3.2 3.9-2.9 3.1.9zm28.9-1.5c.9 1 2.1 2.9 2.8 4.3l1.3 2.5-2.8-2.5c-3-2.8-5-6-3.7-6 .5 0 1.6.8 2.4 1.7zm.7 10.4c.5 1.5.7 3 .4 3.3-.4.3-.1.6.6.6.8 0 1-.8.6-2.3-.5-2-.5-2 .9.3.9 1.4 1.5 3.9 1.6 5.7 0 3.2-2.4 6.8-4 5.8-.5-.3-1.2 0-1.5.5-.8 1.2-4.4 2.8-6 2.7-.5-.1-.9-.7-.7-1.4.2-.7-.2-1.3-.7-1.3-.5 0-.8.9-.6 1.9.2 1.1-.8 3.2-2.1 4.8-1.4 1.5-3.2 4.5-4.1 6.5-.8 2.1-1.9 3.5-2.4 3.2-1.2-.7-1.1.3.1 2.6.7 1.3.6 2.1-.5 3-1.2 1-1.5.9-1.5-.7 0-1-.5-2.4-1.1-3-.8-.8-.5-1.4 1.1-2.3 1.2-.6 1.9-1.4 1.6-1.7-.3-.3.2-2 1.1-3.7.9-1.7 1.7-5.3 1.9-7.9.1-3.3.9-5.7 2.3-7.3 1.2-1.3 2.1-3 2.1-3.7 0-.8.3-1.7.7-2.1 1.4-1.4 1.7-4.6 1-9.8l-.5-3.8 4.3 3.7c2.5 2 4.9 4.9 5.4 6.4zm179.1-8.4c0 .6 1.2 2.5 2.6 4.2 2.9 3.5 2.7 3.7-2 1.7-3.3-1.4-7.6-5.2-7.6-6.8 0-.4 1.6-.7 3.5-.5 1.9.1 3.5.7 3.5 1.4zm139.7 4.5c1.7 2-.5 6.5-5.3 11-3.7 3.6-4.4 5.1-1.6 4.1.9-.3-.2 1.3-2.4 3.6-2.3 2.4-5 5.8-6 7.7-2.2 4-3.6 4.4-9.1 2.6-5.9-1.9-6.1-2.9-1.1-4.3 5.7-1.6 11.8-4.1 11.8-4.9 0-.4 1.2-1.2 2.6-1.9 1.5-.6 2.4-1.4 2.1-1.7-.2-.3-2.6.9-5.3 2.6-4.4 2.8-4.9 2.9-5.6 1.3-.6-1.6-.7-1.5-.7.3-.1 2.1-.5 2.3-8.8 4-1.5.3-2.8-.4-4.2-2.2l-2-2.5 4.2-4.4c2.3-2.3 5.6-5.9 7.2-7.8 2.3-2.6 3.3-3.2 4.3-2.4 1.3 1 1.2 3.6-.5 10.4-.3 1.3-.1 2.3.5 2.3.5 0 1-.6.9-1.3 0-.6.1-2.6.1-4.2l.2-3 3.1 3.3c1.7 1.8 3.6 3.1 4.2 2.9 3.7-1.2 7.5-14.4 5.5-18.8-1.8-4 1.6-2.1 5.9 3.3zm-1.6-4.5c1.3 1.6 1.2 1.7-.3.4-1.7-1.3-2.2-2.1-1.4-2.1.2 0 1 .8 1.7 1.7zm-70 3c-.9 1.5-1 1.4-.7-.7.6-3.5.7-3.7 1.2-2.3.3.7.1 2-.5 3zm88.8-.6c2.1 3.8 0 8.4-5 11-2.2 1.1-3.9 1.7-3.9 1.4 0-.3-.8-.1-1.8.4s-2.4.6-3.1.2c-1-.7-1-1.5.3-4 .9-1.7 1.2-3.1.7-3.1-.6 0-1.5 1.7-2.1 3.8-.8 2.4-2.1 4.2-3.8 5-4.1 1.9-4.8 1.4-2-1.6 1.4-1.5 3.3-4.1 4.2-5.9 1.4-2.8 2-3.1 4.8-2.7 2.3.3 4-.1 5.7-1.4 3-2.4 2-4.8-1.2-3.1-2.2 1.2-2.2 1.2-.3-1 2.5-2.8 5.6-2.4 7.5 1zm-192.8 1.3c-1.2 1.8-2.1 4.5-2.1 5.8 0 3-1.2 4.1-6.1 5.7-2.6.8-4.4.8-7 0-4.7-1.6-5.3-2.4-2-2.5 4.5-.2 11.9-4.3 15.3-8.5 3.9-4.8 4.7-5 1.9-.5zm136.3-1.7c.4.9 0 2.3-.9 3.2-1.3 1.4-1.5 1.2-1.5-1.7 0-3.4 1.4-4.3 2.4-1.5zm-36.5 5.1c-1.1.5-5.9-1.7-5.9-2.7 0-.5 1.2-1.4 2.8-1.9 2.4-.8 2.8-.6 3.2 1.7.3 1.4.3 2.7-.1 2.9zm51.5-3.5c-.4 5.1-.5 5.3-1.4 3.2-1.3-3-1.2-5.7.3-5.3.6.3 1.1 1.2 1.1 2.1zm-331.5 3.1c-.9.8-1 .7-.5-.7.3-1 .7-2.4.7-3 .1-.7.3-.4.6.7.3 1-.1 2.3-.8 3zm346.7.5c-.7 6.1-1.5 8.1-3 8.1-1.2 0-3.6-4-3.6-6 0-.8 6-7 6.9-7 .1 0 0 2.2-.3 4.9zm-75.1-.3c-.8 2-1.5 3.8-1.5 4 0 .2-.4.4-.8.4s-.7-1.4-.7-3.2c.1-2.8 1.1-3.9 4.3-4.7.1-.1-.5 1.5-1.3 3.5zM78 245c-.6 1.1-1.4 2-1.8 2-.4 0-2.6 1.8-4.8 4-2.3 2.1-4.5 3.6-4.8 3.2-.7-.7 10.3-11.2 11.7-11.2.4 0 .3.9-.3 2zm321-1c0 .5-.4 1-.9 1s-1.2 1.2-1.6 2.7c-.6 2.5-.8 2.6-1.4.9-.5-1.2-.2-2.7.8-3.8 1.7-2 3.1-2.3 3.1-.8zm6 0c0 .5-.4 1-1 1-.5 0-1-.5-1-1 0-.6.5-1 1-1 .6 0 1 .4 1 1zm-304.6 4.2c2.4 3.6 2.4 3.8.8 5.8l-1.7 2.1-2.7-2.9c-1.4-1.6-3.3-4.1-4.3-5.5-1.6-2.6-1.6-2.6 1.7-2.9 1.8-.2 3.4-.3 3.5-.3.1 0 1.3 1.7 2.7 3.7zm163.6-2.8c0 .3-.4.8-1 1.1-.5.3-1 .1-1-.4 0-.6.5-1.1 1-1.1.6 0 1 .2 1 .4zm94.5 1.3c1.2.3 2.7 1.8 3.4 3.4.7 1.7 2.5 4.1 4 5.5 2 1.9 2.3 2.6 1.3 3.3-.9.6-2.4-.3-4.6-2.5-3.5-3.6-6.3-4.2-9.6-2.2-1.7 1.1-2.2 1-3-.1-1.2-2.1 3-9.3 5-8.5.8.4 2.4.9 3.5 1.1zm45.5.3c0 1.2-4 5.3-4.6 4.7-.9-.8 1.9-5.7 3.3-5.7.7 0 1.3.4 1.3 1zm-318 1.7c0 1 .9 3.6 2 5.8 1.1 2.2 1.7 2.9 1.3 1.5-1.5-5.8-.2-6 4.6-.7l3.5 3.9-2.4 4.4c-2 3.6-2.6 4.1-3.2 2.7-.3-1-.7-3-.7-4.6-.1-1.5-.6-2.7-1.2-2.7s-.9.7-.5 1.5c.3.8.8 3.5 1.1 5.9.6 3.8.4 4.4-1.4 4.9-2.7.7-3.4-.6-2.7-4.9.4-1.9.3-3.4-.2-3.4s-.9 1.4-1 3.1c-.1 4-.9 4.7-2.7 2.3-2.4-2.9-3.7-6.5-4.2-11-.5-4.6.2-5.6 3.5-4.7 2.1.5 3.4 2.9 3.6 6.7.1 1.1.6 2.1 1.2 2.3 1.6.5.8-5.1-1.1-8-.8-1.3-1.2-2.6-.9-3 .3-.3.3-1.1-.1-1.6-.4-.8-1.1-.6-2.1.4-1.4 1.4-4.4 2.1-4.4 1 0-.7 5.3-3.4 6.8-3.5.6 0 1.2.8 1.2 1.7zm3-.7c0 .5-.4 1-1 1-.5 0-1-.5-1-1 0-.6.5-1 1-1 .6 0 1 .4 1 1zm320 .4c0 .3-.4.8-1 1.1-.5.3-1 .1-1-.4 0-.6.5-1.1 1-1.1.6 0 1 .2 1 .4zm-90.3 2.1c0 .8-.4 1.2-.9.9-.5-.3-.6-1-.3-1.5.9-1.3 1.2-1.1 1.2.6zm7.8 1.5c-1.7 3.3-3 3.8-3.9 1.4-.9-2.3-.8-2.4 1.7-3.4 3.6-1.4 3.8-1.2 2.2 2zm-9.5.3c1.2 1 5 10.1 5 12.1 0 .9-3.4-.6-5-2.4-1.8-2-3.8-5.3-5-8.6-.8-2.1-.7-2.4 1.3-2.4 1.2 0 2.9.6 3.7 1.3zm76.4.6c1.6 1.7 1.6 1.9 0 2.5-.9.4-2.5.4-3.5.1-1.5-.5-1.7-1-.9-2.6 1.3-2.4 2.2-2.4 4.4 0zM77 256.4c0 4 3 11.5 5.4 13.5 2.1 1.8 2.1 4.3-.1 3.9-.9-.2-2-1.7-2.5-3.3-1-3.6-7.7-13-8.6-12-.4.4.1 1.2 1.1 1.9.9.7 1.7 1.6 1.7 1.9 0 .3 1.1 2.3 2.5 4.3 3.4 5.1 3.1 6-.9 2.9-1.9-1.4-4-2.5-4.8-2.4-.7.1-2.4.1-3.7 0l-2.4-.1 2.3-2.5c1.3-1.4 2.1-2.8 1.7-3.1-1-1 2.2-5.9 4.7-7.1 3.3-1.7 3.6-1.5 3.6 2.1zm280.5-1.4c-2.8 1.2-3.7 1.2-3 0 .3-.6 1.6-1 2.8-.9 2.1 0 2.1.1.2.9zm49.5-.6c0 .8-6.4 6.6-7.2 6.6-.5 0-.8-.8-.8-1.8 0-1.1 1.3-2.5 3.3-3.4 3.5-1.7 4.7-2 4.7-1.4zM66 256c0 .5-.7.7-1.5.4-.8-.4-1.5-.8-1.5-1 0-.2.7-.4 1.5-.4s1.5.4 1.5 1zm413.3 4.8c-.3.9-1.3 2.5-2.1 3.4-1.9 2.3-9.1 6-10.2 5.3-.5-.3-.9.9-.8 2.8.2 4.9-.7 5.7-6.2 5.7-5.4 0-9.8 2.9-12.5 8-2.7 5.2-7.5 4-10.9-2.7-2.6-5.2-2.1-9.6 1.2-11.5 2.6-1.5 3.1-1.6 5-.2 2 1.4 2.1 1.7.7 4.3-1.9 3.8-3.5 11-2.5 11.6.4.2 1-1.2 1.2-3.3.3-2 1.3-5.4 2.1-7.5 1.4-3.3 1.9-3.7 3.6-2.8 2.1 1.2 8.7 1.3 13.5.2 2.3-.5 3.2-1.4 3.9-4.1 1.8-7.1 9.1-13.9 12.8-11.9 1.2.6 1.6 1.6 1.2 2.7zM62 259c1.6.9 1.7 1.4.8 4.3-1.3 3.9-.9 3.3-3.5 4.1-1.8.6-2.2.4-1.7-.8.3-.9 1.3-1.6 2.2-1.6.8 0 1.2-.3.9-.7-.4-.3 0-1.5 1-2.5 2.3-2.6.7-2.2-3.1.7-1.8 1.4-4.4 2.5-5.7 2.5-1.3 0-3.1.5-3.9 1-1 .6-.4.8 2.1.4s3.9-.2 4.4.7c.5.8.5 1.1 0 .7-.8-.8-6 2.7-11.3 7.6l-3.3 3.1 1.6-4.5c.8-2.5 2.2-5 3.1-5.6.8-.7 1.3-1.6 1.2-2-.5-1.5 2.5-5 5.7-6.7 3.5-1.9 6.8-2.1 9.5-.7zm298.4-.1c.3.4-.6.6-1.9.3-1.4-.2-2.5-.6-2.5-.8 0-.8 3.9-.4 4.4.5zm74 4.8c-1.3 2.5-2.4 5.2-2.4 6 0 1.4-3.1 2.9-7.5 3.7-1.4.3-2.5.2-2.5-.1 0-.9 6.4-8.7 9.5-11.5 4.5-4.1 5.5-3.4 2.9 1.9zm-48.9-1.4c1.7 1.5 1.7 1.9.5 2.7-.8.5-1.7.7-2.1.4-.4-.2-1 0-1.4.5-.3.6.5.8 1.9.5 1.9-.3 2.8.2 3.7 1.8.6 1.3 2.1 3.3 3.2 4.5l2 2.3-2 2.2c-2.4 2.7-4.1 7.4-3.8 10.5.2 2.6-.3 2.7-4 1.3l-2.6-1 2.6-2.7c4.7-5.1 4.6-9.2-.3-11.7-2.8-1.5-3.2-1.4-6.5.8-4.2 2.9-7.7 4.1-7.7 2.7 0-.5-.3-1.8-.6-2.8-.3-1 .1-.8 1.1.7l1.6 2.5-.7-2.5c-1.2-4.3-.6-8.2 1.6-10.4 1.5-1.5 2.3-1.8 2.8-.9 1 1.6 6.2 3.5 6.2 2.3 0-.6-.8-1-1.8-1-1.8 0-4.2-1.8-4.2-3.1 0-2.1 8.1-1.8 10.5.4zm7.2-1.1c1 .8 1 1.4.2 2.4-1.1 1.4-2.5 1-6.2-1.8-1.6-1.2-1.4-1.3 1.5-1.5 1.7-.1 3.8.3 4.5.9zm48.3.5c-.1 2-5 8.5-5 6.6 0-.6.7-1.9 1.6-2.7.8-.9 1.3-1.6.9-1.6-.3 0-.1-.9.5-2 1.3-2.5 2-2.6 2-.3zm-82.9 1c2 .4 2.7 1.1 2.7 2.9 0 1.4-.5 2.1-1.1 1.7-.6-.4-.8 0-.4.9.8 2.1-6.6 8.8-9.7 8.8-1.7 0-.3-1.9 1.7-2.4 2.6-.6 8.8-5.6 7.1-5.6-.6 0-1.7.7-2.4 1.5-1.8 2.2-2.8 1.9-4.5-1.4-1.9-3.8-.5-8.7 2.3-7.6.9.4 2.9 1 4.3 1.2zm9.7 2.1c-.8 1-2 3-2.6 4.6-.7 1.6-1.5 2.6-1.8 2.3-1-1 3.5-9.9 4.6-9.2.8.5.7 1.2-.2 2.3zm-270.7 2.5c-1 .9-1.1.8-.5-.6.3-1 .9-1.5 1.2-1.2.3.3 0 1.1-.7 1.8zm300.9 1.1c0-.2.9 0 2 .6s2 1.5 2 2.1c0 .6-.4.8-.8.5-.4-.2-2.2.2-4 1.1-3.2 1.5-3.3 1.5-5.7-1.3-1.4-1.6-2.5-3.7-2.5-4.6 0-1.6.3-1.6 4.5.2 2.5 1.1 4.5 1.7 4.5 1.4zm-3.3-2.8c-.3.3-1.2.4-1.9.1-.8-.3-.5-.6.6-.6 1.1-.1 1.7.2 1.3.5zm-42.6 6.4c.6 0 .7.4.4 1-.3.5-1.5 1-2.6 1-1.7 0-1.9-.5-1.5-3.3.6-4.5.6-4.5 1.8-1.5.5 1.6 1.4 2.8 1.9 2.8zm-315.8-2c-.3 1.1-1 2.3-1.6 2.7-.7.4-.8 0-.4-1.1.4-1 .7-2.2.7-2.7s.4-.9.9-.9.7.9.4 2zm59.3 2.2c-1.1 1.5-1.6 1.8-1.6.7 0-1.6 2.1-4.2 2.8-3.4.2.2-.3 1.4-1.2 2.7zm-21.4.4c3.8 1.9 4.2 3.1 1.6 4.5-1.3.7-3.5 2.5-5 4.1-1.4 1.5-2.8 2.8-3.1 2.8-1.4 0-3.3-8.4-2.8-12.7.1-1.5 5.2-.7 9.3 1.3zM61 274c0 4-.1 3.5 1.6 7.5 1.4 3.4 1.4 3.6-1.1 4.5-1.4.6-3.6 1.4-4.9 1.9-1.9.8-2.5.6-3.5-1.2-1-2-1-2-.5.5.6 2.8-1.2 4.1-2.1 1.5-1-2.5-1.1-8.3-.3-10 .5-1 .5-1.7 0-1.7-2 0-2.2 5.4-.7 12.6.3 1.6-.3 2.3-2.8 3.2-4.5 1.6-4.5 1.6-5.2-2.1-.9-4.6 1.6-9.8 6.7-14 2.3-2 4.3-3.5 4.4-3.4.1.1-.1 2.1-.5 4.4-.5 2.3-.5 4.7-.1 5.3.4.7.9-1.1 1.2-3.9.6-5.9 1.7-7.6 5.2-7.9 2.3-.1 2.6.2 2.6 2.8zm29.3-.6c-.2.3-.5.6-.8.6H87c-1.1 0-2-.4-2-.9s1.2-.8 2.8-.7c1.5.2 2.6.6 2.5 1zm275.6 3.3c.9 3.1.8 4-.8 5.8-1 1.1-2.5 3.2-3.3 4.8l-1.4 2.7-4.1-2.7c-2.3-1.4-4.6-3.6-5.2-4.9-.8-1.9-.6-2.3 1.3-2.8 1.2-.3 4-1.9 6.1-3.6 4.9-3.9 6.2-3.8 7.4.7zm38.5-.7c3.8 1.4 3.4 3.8-.5 3.2-2-.3-2.9-.9-2.5-1.8.6-1.6-1-1.9-1.9-.4-.4.6-1 .8-1.4.6-.4-.3-.8 0-.9.7-.3 3.3-1 5.1-2.6 6.3-1 .7-1.5 1.7-1.2 2.2.7 1.2-.3 4.4-1.3 3.8-1.4-.9-1.1-6.8.5-9.5 1.7-2.8 5.9-6 8.1-6.1.6 0 2.3.4 3.7 1zm27.4 2.7c.2 1.5 1.2 4.5 2.2 6.7 1 2.3 1.7 4.3 1.5 4.5-.9.9-10-4.7-12.8-7.9l-3-3.5 5.4-1.6c3-.9 5.6-1.4 5.9-1.2.2.2.6 1.6.8 3zm-341.9-.1c.3.3-.5 2.8-1.7 5.6s-2 5.4-1.7 5.7c.3.2 1.3-1.4 2.2-3.7 1.6-4.2 4.5-5.7 5.6-3 1.4 3.9-5.9 10.4-8.6 7.6-1-1.1-1.6-9.9-.9-13.1.2-.8 4.1 0 5.1.9zM416 278c0 .6-1.1.9-2.5.7-3.7-.5-4.2-1.7-.7-1.7 1.8 0 3.2.5 3.2 1zm-335 3.5c0 .8-.5 1.7-1 2-.6.4-.8.9-.6 1.3.2.4-.2 1.5-.9 2.5-1.3 1.8-1.3 1.7-2-.2-.3-1.1-1.3-2.1-2.3-2.3-1.3-.3-1.1-.8 1.2-3 2.9-2.6 5.6-2.8 5.6-.3zm319.8-1.3c-.2.6-1.2 1.2-2.2 1.4-1.4.2-1.5 0-.5-1.2 1.4-1.7 3.2-1.9 2.7-.2zm-20.3 1.1c1.7 1.3 1.7 1.5-.5 3s-2.4 1.5-4.1-.5c-1-1.1-1.6-2.5-1.3-2.9.8-1.3 3.8-1.1 5.9.4zm25.2 2.1c-.8 1.1-2.2 2.3-3.2 2.5-1 .1-3 1.4-4.4 2.7-2.7 2.5-3.7 1.8-2.7-2 .3-1.4 2.1-3 4.8-4.2 5.3-2.5 7.5-2.1 5.5 1zm24.4 5.4c2.5 1.2 5.3 2.2 6.2 2.2.9 0 1.7.4 1.7 1 0 .5-.4 1-.9 1s-2.4 2.2-4.2 5c-4 6.1-6.1 6.4-8.6 1-1-2.2-2.5-4-3.3-4.1-1 0-1.1-.2-.2-.6 1.7-.7 1.5-2.1-1-5.6-1.3-1.8-2.2-3.9-2-4.7.8-4.2 1.3-4.3 4.5-.8 1.8 1.9 5.3 4.4 7.8 5.6zm-16.1-4.5c0 .7-.4.6-1-.3-.7-1.1-1-1.1-1-.2 0 .7-.4 1-1 .7-.5-.3-1-1.3-1-2.1 0-1.2.4-1.2 2-.4 1.1.6 2 1.6 2 2.3zm48.7-1.1c2.9 2.7 3 7.1.1 9.8-2.8 2.5-4.5 2.6-5.3 0-.3-1.1-1.1-2-1.6-2-1.8 0-.9-1.9 1.3-2.6 1.2-.3 3.1-1.5 4.2-2.6 1.6-1.5.8-1.3-3 .8-3.2 1.8-5.7 2.5-6.9 2.1-1.7-.7-1.6-.9.6-3.3 2.3-2.5 5.2-4.2 7.3-4.3.6-.1 2 .9 3.3 2.1zm-95 3.8c-1 2.7-2.7 4.1-2.7 2.2 0-.8 2.9-5.2 3.5-5.2.2 0-.2 1.3-.8 3zM82 288.5c0 2.7-.3 3.3-1.5 2.9-1.3-.5-1.3-.9-.3-2.2 1.1-1.3 1.1-1.4 0-.8-1.1.7-1.1.4 0-1.3 1.7-2.8 1.8-2.7 1.8 1.4zm292-.4c0 .5-.2.9-.4.9s-1.1.3-1.9.6c-1.2.4-1.4 0-1-1.5.5-1.9 3.3-1.9 3.3 0zm39.4.5c.7 1.9-.8 3.1-4.7 3.7-3.5.5-11.3 4.5-10.5 5.3.2.2 2.6-.8 5.3-2.2 6.4-3.2 9.7-2.9 10.2.8.3 1.9-.1 2.8-1 2.8-.8 0-1.7.8-2.1 1.7-.3 1-.9 2.5-1.2 3.3-.4.8.5.3 1.9-1.3 3.1-3.2 3.3-3.3 4-.6.7 2.4-3.1 4.2-6.9 3.3-3-.8-3-1.1-.1-3.5l2.2-2-2.2 1c-1.2.6-2.5 1.6-2.8 2.1-.6 1-5.2-1.7-8.7-5.2-1.5-1.5-1.5-1.7.1-3.2 1-.9 2.4-1.6 3.1-1.6 2.3 0 10-3.2 10-4.2 0-.5-1.4-.1-3.1.7-1.7.9-3.3 1.5-3.5 1.2-.7-.7 5.2-3.3 7.5-3.3 1.1 0 2.2.5 2.5 1.2zm-339.7 0c-.3.3-1.2.4-1.9.1-.8-.3-.5-.6.6-.6 1.1-.1 1.7.2 1.3.5zm399.9 2.7c1.7.9 5.4 1.9 8.2 2.3 3.2.4 5.2 1.2 5.2 1.9 0 .8-1.7 3.1-3.7 5.3-7.2 7.4-15.3 12.1-15.3 8.8 0-.9-.6-1.7-1.2-1.8-3.7-.4-4.4-.3-5.5.5-.9.6-1.3.5-1.3-.2s-.5-.9-1-.6c-.6.4-.8 1-.5 1.5.3.5-.3 1.7-1.3 2.7-1 1-2.9 3.9-4.2 6.5-1.4 2.7-2.8 4.8-3.2 4.8-.5 0-.7-.3-.6-.8.1-.4-.3-1.8-.9-3.2-1.4-3.3-2.3-9.9-1.4-10.4.4-.3 1.7.6 3 2 1.3 1.3 2.8 2.4 3.5 2.4.6 0-.2-1.1-1.9-2.4-1.6-1.3-2.8-2.6-2.5-2.8.3-.2 2.4-1.6 4.7-3.2 2.3-1.5 4.4-3.4 4.7-4.1.2-.7 1.7-1.6 3.3-1.9 2.8-.7 9.6-8.6 7.3-8.6-.6 0-.8-.5-.4-1.1.4-.7.9-.7 1.3-.1.3.5 2 1.6 3.7 2.5zM64 289.9c0 1.3-2.5 2-4 1.1-1-.6-.8-.9.6-1.3 3.1-.8 3.4-.7 3.4.2zm317.5 2.2c.6.4 2.1.9 3.5 1.1 2.2.3 2.5.8 2.5 4.3 0 2.2-.6 5.7-1.3 7.8-.7 2.1-1.3 4.9-1.4 6.3-.3 3-2.1 3.1-6.1.2-5.6-3.9-8.1-7.6-9-13.4-.6-3.8-.2-4.5 4.3-6.5 3.3-1.6 5.3-1.5 7.5.2zm-322.1.5c.9.8 1.6 2 1.6 2.5 0 .6-.7.3-1.6-.5-2.1-2.1-3.5-2-2.7.1.6 1.6.5 1.6-1 .4-1.6-1.3-1.6-1.4 0-2.7 2.2-1.7 1.9-1.7 3.7.2zm13 .8c2.9 2.3 2.9 2.3.5 2.2-1.4-.1-2.3.4-2.2 1.1.2.7-.4 1-1.3.6-1.1-.4-1.4-1.3-1-2.9.9-3.3 0-3-1.9.7-.9 1.7-1.9 2.9-2.1 2.6-1-1 2.9-6.6 4.6-6.7.3 0 1.8 1.1 3.4 2.4zM455 295c0 1.2-4 1.3-5.8.2-.7-.5-1-1.6-.6-2.5.5-1.5.9-1.5 3.5-.1 1.6.8 2.9 1.9 2.9 2.4zm-400.6.5c1.8 1.8 3.3 1.9 4 .2.6-1.6-.2 6-.9 8.4-.7 2.1-2.2 2.4-4.5.9-1.2-.8-1.2-1.1.1-2.7 2.3-2.7 3.1-4.3 2.1-4.3-.5 0-1.4 1.1-2 2.5-1.4 2.9-2.5 3.1-5.2.8s-2.5-3.5.8-5.5c3.5-2.1 3.8-2.1 5.6-.3zm312 3.6c.4 2.8 1.8 6.8 3.2 9 2.4 3.9 9.1 8.9 11.8 8.9 1.8 0 2.7 1.3 3.3 5.1.5 3.1-.2 3.4-4.1 1.9-4.5-1.7-10.3-7.8-13-14-2.9-6.4-4.6-16-2.9-16 .6 0 1.3 2.3 1.7 5.1zm23.4-1.4c-1.4 1.8-1.9 1.2-1.1-1.6.4-1.6.8-1.9 1.4-1 .4.7.3 1.9-.3 2.6zm29.2-2.3c0 .8-.4 1.8-1 2.1-.5.3-1-.3-1-1.4 0-1.2.5-2.1 1-2.1.6 0 1 .6 1 1.4zm23.4.2c.9.3 1.6 1.3 1.6 2.2 0 1.3-.3 1.2-1.4-.4-1.3-1.7-1.3-1.4-.3 2.3 1.4 5.2.6 6.2-5.2 7-3.4.5-4.1.3-4.1-1.1 0-2.1 2.8-6.6 5.4-8.8 2.5-2.1 2.1-1.9 4-1.2zM80.7 298c-.4 1.5 0 2 1.3 2 3 0 3.4 2 .9 4.6-2.7 2.9-5.5 3.1-6.9.4-.8-1.5-.7-2.3.7-3.7 1-1 1.7-2.6 1.5-3.6-.2-1.1.3-1.7 1.3-1.7 1.2 0 1.6.6 1.2 2zm6.7-.1c1.6 1.7 1.6 1.9 0 2.5-1.8.7-3.4-.8-3.4-3.2 0-1.8 1.4-1.5 3.4.7zM73.5 299c-.3.5-1.1 1-1.6 1-.6 0-.7-.5-.4-1 .3-.6 1.1-1 1.6-1 .6 0 .7.4.4 1zm351.5 3c0 1.2-3.9 1.9-4.6.9-.3-.5-.2-1.8.1-3 .6-1.9.8-2 2.6-.3 1 .9 1.9 2 1.9 2.4zm29-1.8c0 .7-5.9 3.8-7.4 3.8-.2 0-.3-.8-.1-1.8.2-.9.4-2.2.4-2.7.1-1.4 7.1-.7 7.1.7zm-384.2-.7c-.2.2-1.5.5-2.8.7-1.4.2-3.1.7-3.7 1.1-.8.5-1.3.3-1.3-.6 0-1 1.2-1.5 4.1-1.5 2.3-.1 3.9.1 3.7.3zm324.2 4.6c0 1.6.4 2.9.9 2.9s1.1 1 1.4 2.2c.8 3-1.9 5.8-5.5 5.8-2.2 0-2.8-.4-2.8-2.3 0-1.2.6-3.4 1.4-4.8.7-1.4 1.6-3.8 2-5.3.8-3.4 2.6-2.4 2.6 1.5zm-351 .3c.7 1.4 2.3 2.7 3.6 3 1.3.4 2.4 1 2.4 1.4 0 .4-2.8 2.2-6.3 3.9-3.5 1.8-7.4 4.4-8.7 5.8-3 3.2-4 3.2-4-.3.1-3.5 3.1-10.2 5.9-12.7 1.8-1.6 2.5-1.7 4.1-.7 3.1 1.9 3.8 1.4 1-.8-1.8-1.4-2.1-2-.9-2 .9 0 2.1 1.1 2.9 2.4zm358 1.5l2.5 2.1h-3.2c-2.2 0-3.6-.6-4.3-1.9-2.4-4.7-.7-4.7 5-.2zm-333-1.4c-.7.8-1.6 1.3-2 1-.5-.3-1.1-.1-1.5.5-.3.5-1.4 1-2.3 1-1.2-.1-1-.5.8-1.4 1.4-.8 2.8-1.2 3.2-1 .3.2.9 0 1.3-.6.3-.5.9-1 1.2-1 .3 0 0 .7-.7 1.5zm361 1.1c0 1-.5 1.2-1.2.7-.7-.4-2.1-.6-3-.5-1 .2-1.8-.1-1.8-.6s1.4-.9 3-1c2 0 3 .4 3 1.4zm-8.2 2.4c.9.5 2.9 1.4 4.3 1.9 1.9.7 2.7 1.7 2.7 3.5 0 2.4-.4 2.6-4.8 2.6-3.4 0-5.4.6-7.1 2.1l-2.4 2.1 2.7-1.6c3.3-1.9 11.4-2.2 12.1-.4.7 2.2-1.2 4.8-3 4.1-1-.4-1.4-.2-1 .4.3.5-1.7 3.2-4.5 5.9-2.9 2.7-4.5 4-3.7 3 1.3-1.8 1.2-1.9-.3-1.3-2.1.8-2.8-.2-3.2-4.6l-.4-3.4h4.8c2.7-.1 5.6-.6 6.7-1.2 1.9-1.2 2-1.2-6.4.3-3.6.7-4.4-1.4-2.8-7.4.8-2.9 2-5.7 2.7-6.1 1.6-1.1 1.5-1.1 3.6.1zM79 309c0 .5-.4 1-.9 1-.6 0-1.3-.5-1.6-1-.3-.6.1-1 .9-1 .9 0 1.6.4 1.6 1zm320.7.6c-.3.3-1.2.4-1.9.1-.8-.3-.5-.6.6-.6 1.1-.1 1.7.2 1.3.5zm-323 5.9c.2 2.9 0 4.5-.8 4.5-.7 0-.9-1-.5-2.8.6-2.5.5-2.6-.8-.8-.9 1-1.7 2.4-1.9 3-.2.6-.8.7-1.3.3-.5-.4-.2-1.2.6-1.7 1.2-.8 1-1-.7-1-3.5 0-2.9-3.4 1-5.1 1.7-.8 3.4-1.4 3.6-1.2.2.1.6 2.3.8 4.8zm366.7-.7c.3 2.7 1.3 5.7 2.1 6.8 1.8 2.4 1.9 3.4.1 3.4-.8 0-1.8.4-2.1 1-.3.6.1.7.9.4.9-.3 2.3-.4 3.1-.1 1.1.5 1.2 1.2.4 3.7-1.6 4.6-3.9 3.7-5.8-2.3-1.2-3.6-5.6-8.7-7.4-8.7-.5 0 .5 1.3 2.3 3 1.7 1.6 3 3.5 2.8 4.2-.3.7.2 1.8 1.1 2.5.9.7 1.2 1.3.6 1.3-1.6 0-5.9-4.2-7.1-7-2.8-6.1-3.3-8-2.4-8 .6 0 1-.7 1-1.6 0-.8-.4-1.2-1-.9-.5.3-1 .1-1-.5 0-.7.6-1 1.3-.7.6.2 2.1.1 3.2-.4 1.1-.4 3.2-.8 4.6-.8 2.4-.1 2.7.3 3.3 4.7zm21.1-2.8c.3.6-.4 1-1.7 1-1.8 0-2-.2-.8-1 1.9-1.2 1.8-1.2 2.5 0zm-57 1.4c1.6 1.2 1.7 1.5.4 3.4-1.4 1.9-1.6 2-3.7.3-1.5-1.1-2.1-2.3-1.6-3.4.7-2.1 2.4-2.2 4.9-.3zm-380 5.3c0 3.3-.5 6.4-1.2 7.1-1.1 1.1-1.3.5-1.3-3.2 0-3.8 1.3-9.6 2.2-9.6.2 0 .3 2.6.3 5.7zm28.9-3.5c-1 1.3-2.1 2.5-2.4 2.8-3.4 3.2-6.6 13.6-3.4 10.9 1.1-.9 1.4-.8 1.4.1 0 .8.3 1 .6.7.4-.4.1-1.3-.5-2.1-1.5-1.7.4-6.8 3.9-10.5l2.3-2.3 1.9 3.1c1.1 1.7 2.4 3.1 2.9 3.1 1.4 0 1.1 2-.6 3.7-.8.8-1.2 2-.8 2.6.3.7.3.9-.1.5-.5-.4-1.8.2-2.9 1.3-1.2 1.1-2.7 1.7-3.4 1.5-.7-.3-1.3.1-1.3.9 0 1.4-.6 1.7-2.7 1.4-.5-.1-.7-.5-.5-1 .1-.5-.3-.9-.8-.9-.6 0-1 .8-.8 1.7.2 1.1-.3 1.8-1.2 1.8-1.7 0-1.7-1-.6-7.3.4-2.3 1.2-4.2 1.7-4.2s.9-.7.9-1.6c0-3 4-8.4 6.2-8.4 2.1 0 2.1 0 .2 2.2zm-10.9 6.3c-1.3 3.3-2.5 7.2-2.5 8.6 0 3.6-.8 4-4.1 2.3l-2.9-1.5 1.9-3.7c1.1-2 3.6-5.4 5.7-7.5 2-2.1 3.4-4 3.2-4.3-.6-.6-6 5.4-9.3 10.5-2.5 3.8-2.9 4-4.1 2.4-.7-1-1.4-2.3-1.4-2.9 0-2.2 13.9-11.8 15.2-10.6.4.4-.3 3.4-1.7 6.7zm19.2-5.8c.5-.3.9.3.9 1.3 0 1.8-.2 1.8-1.8.3-1-.9-1.8-2.1-1.8-2.7 0-.6.4-.5.9.3.5.7 1.3 1.1 1.8.8zm398.5 1.5c-2.2 3.8-3.8 5.1-5.2 4.3-1.1-.7-.5-4.1 1-6 .5-.6 2-1.1 3.4-1.1l2.6-.2-1.8 3zm-62.6 2.4c-.1 2.2-.8 3-3.8 4-2.1.7-3.8 1.1-3.8.8 0-1.5 3.2-6.4 4.7-7.3 2.3-1.3 3-.7 2.9 2.5zm3.2.5c-.7.4-1.6.3-2-.4-1.1-1.8.2-2.9 1.8-1.6 1.2 1 1.2 1.4.2 2zm-13.1.8c-1.8 4.2-2.7 4.7-2.7 1.5 0-3.4.4-4.1 2.4-4.1 1.1 0 1.2.5.3 2.6zM75 322.2c0 1.1-1.2 1-3-.2-1.2-.7-1-.9.8-.7 1.2 0 2.2.5 2.2.9zm381 1.8c-2.4 1.6-3.1 1.1-1.9-1.1.8-1.6 1.4-1.8 2.2-1 .9.9.8 1.4-.3 2.1zm-372.6-.1c.3.4.3 1.1 0 1.4-.8.7-4.4-.4-4.4-1.4 0-1.2 3.7-1.2 4.4 0zm321.9 5.1c-1.2 4.7-2 6-3.5 6-2.8 0-10-3.9-9.6-5.2.3-.7 2.6-1.9 5.4-2.8 4.5-1.5 5-1.5 6.2-.1 1.2 1.4 1.3 1.4.7-.3-.4-1.5.7-3.4 2.1-3.6.1 0-.5 2.7-1.3 6zm26.7-.8c0 1.1.5 1.5 1.5 1.2 1-.4 1.5 0 1.5 1.1 0 .9.4 1.4.9 1 .5-.3 1.3 0 1.7.6.3.6 2.6 2 5 3.1 2.4 1 4.4 2.4 4.4 2.9 0 1.4-4.2.1-5.7-1.8-.6-.8-1.5-1.5-2-1.5-.4-.1-2.5-1.2-4.6-2.5-2.1-1.3-4.1-2.2-4.5-1.9-.5.3-1.4.1-2.2-.4-1.2-.7-1.2-1.2-.2-2.2.6-.6 1.2-2.1 1.2-3.3.1-2 .1-2 1.5-.1.8 1.1 1.5 2.8 1.5 3.8zm-362.5.1c-1.2 3-3.3 4.5-6.4 4.6-1 .1-.7-.7.9-2.4 1.2-1.3 2.6-2.2 3.1-2 .4.3 1.1 0 1.5-.6.4-.8.3-.9-.4-.5-1.3.8-1.5.4-.6-1.8.3-.8 1.2-1.2 1.9-1 1.1.5 1.1 1.1 0 3.7zm22 2.9c.6 3.4.5 3.6-2.2 4.2-2.6.6-9.3 5.6-9.3 7 0 .3 2.1-1 4.6-2.9 5.2-4 6.9-4.3 8.4-1.6.8 1.6.4 2.5-2.5 5-4.4 3.8-8.9 4.2-10.6.9-.7-1.3-1.8-2.9-2.6-3.6-.7-.7-1.1-2.4-.9-3.8.3-1.3 0-2.7-.6-3-.7-.5-.9 0-.6 1.3.3 1.2.2 2.6-.2 3.3-.5.8-1 .2-1.4-1.5-.4-1.6-.2-3.3.5-4.1.6-.8.8-1.4.5-1.4-.4 0-.2-.9.4-1.9.8-1.7 1.5-1.8 4.2-1 4.1 1.2 8.4.3 9.3-1.9.5-1.5.7-1.5 1.5-.2.4.8 1.1 3.1 1.5 5.2zm-60.2.1c1.4 2.6 1.6 3.9.8 6-.6 1.5-.7 2.7-.2 2.7.5 0 1.1-1 1.4-2.2.6-2 .8-2.1 2.4-.6 1 .9 3.3 2.3 5.2 3.3 3.9 2 3.3 2.8-3.2 4.4-5.5 1.3-7 .8-6.2-2.2.4-1.5.3-1.8-.3-.9s-1.1.7-1.9-1c-.6-1.3-1-2.5-1-2.8 0-.3-.5-1.6-1.2-2.9-1.1-1.9-1.1-2.8 0-4.7 1.6-3.1 2.1-3 4.2.9zm381.7 2.3c-1 1.1-1.6 1.2-2.6.3-1.1-.9-1.4-.8-1.4.1 0 .8-.2 1.1-.5.8-.3-.3.2-1.9 1.2-3.6 1.7-2.9 1.8-3 3.1-1.1 1.1 1.6 1.1 2.3.2 3.5zm43.7-5c-.6.7 1.7 5.5 4 8.4 1.7 2.1 0 4.8-2 3.2-.7-.7-1.6-1-1.8-.8-.2.2-1.9.6-3.6.9-3.6.7-3.8 0-1.5-5.5.6-1.5.9-3.4.6-4.2-.4-.9.3-1.6 1.8-1.9 1.3-.2 2.5-.5 2.7-.6.2 0 .1.2-.2.5zm-389.6 5.7c-.1.4-.1 1.3-.1 2.1s-1 1.6-2.2 2c-1.3.3-3.5 1.7-5 3.1-1.7 1.6-3.3 2.2-4.4 1.8-1-.3-1.5-.2-1.2.3.4.5 0 2.5-.8 4.3-1.3 3-1.7 3.3-2.8 2-.8-.8-1.7-2.4-2-3.6-.6-1.9-.4-2.1 2.5-1.6 2.1.3 2.9.1 2.4-.6-.3-.6-1-.9-1.5-.6-.5.3-1.1.2-1.4-.3-.2-.4.6-.9 2-1 4.6-.4 16.5-7.2 12.5-7.2-.6 0-1.1.4-1.1.9 0 .8-6 4.1-7.4 4.1-1.1 0-.6-3.9.6-4.6 1.3-.9 7.8-2.3 9.1-2 .5.1.8.5.8.9zM26 335.8c0 1 .3 2.2.7 2.5.3.4 1.4 2.4 2.3 4.5l1.8 3.9-2.9 3.1c-1.6 1.7-2.9 3.7-2.9 4.4 0 .7.8.1 1.8-1.5.9-1.5 2-2.7 2.4-2.7.4 0 1.1 1.9 1.7 4.2 1 4.1 1 4.2.8.8 0-1.9-.4-4-.9-4.6-.9-1.2 3.4-3.9 8-4.9 3-.6 3.2-.5 2.8 1.7-.3 1.3-.5 3.1-.5 4.1-.1 1.5-.4 1.6-2.3.5-1.3-.7-3.1-1.9-4-2.7-1-.8-1.8-1-1.8-.5 0 1 6.5 5.4 8 5.4.5 0 1 .5 1 1.2s1.2 2.5 2.7 4c2.3 2.4 2.5 3 1.3 3.8-3.5 2.2-11.2.8-12.9-2.3-.7-1.3-.9-1.4-.7-.5.8 2.8-.7 2.1-4.7-1.9-2.1-2.1-4.2-5.4-4.8-7.7-1.6-5.8-.1-16.6 2.2-16.6.5 0 .9.8.9 1.8zm16.9 2.9c.2.2.2.6-.2.9-.7.8-6.5-2.6-7.1-4.2-.4-1 4.8 1.3 7.3 3.3zm380.4-2.1c-2.4 1.4-4.3 2.7-4.3 3 0 .7 8.4-3.8 9.2-4.9.8-1.3 8.4 1.9 9.2 3.9 1.1 3-2.7 4.1-10.9 3.2-2.2-.3-4.8-.1-5.7.4-2.2 1.1-2.9-.3-2.2-4.2.4-1.8 1.2-2.9 1.9-2.6.6.2 1.8 0 2.6-.5s2.1-.9 2.9-.9c.8 0-.4 1.2-2.7 2.6zm-350.3.5c0 .5-.7.9-1.5.9-.9 0-1.2-.6-.9-1.5.6-1.5 2.4-1.1 2.4.6zm325.5.7l3.6.7-2.7 5.2c-1.4 2.9-3 5.3-3.5 5.3-1.4 0-3.4-5.3-4.3-11.2-.4-2.5-.2-2.7 1.4-1.8 1 .6 3.5 1.3 5.5 1.8zm-344 .9c-.2 1-.4 2-.4 2.2-.1.3-.6 0-1.2-.6s-.8-1.6-.5-2.2c1.1-1.7 2.5-1.3 2.1.6zm-3.5-.3c0 .2.3 1.2.6 2.1.4 1 .2 1.5-.7 1.3-.8-.2-1.3.2-1.2.9.2.8-.4 1-1.4.6-1.2-.5-1.3-.8-.4-1.1 1-.3 1.1-.6.1-1.2-1.5-.9-.4-3 1.6-3 .8 0 1.4.2 1.4.4zm360.2 4.4c.2 2.5-.2 4.8-.8 5.3-1.4 1.2-1.9.6-3.3-4.5-1.2-4.5-.8-5.5 1.8-5.3 1.5.1 2 1 2.3 4.5zm3.6-1.1c.2 2-.2 3.2-1.2 3.6-1.3.5-1.6-.1-1.4-3.4.2-4.6 2.1-4.8 2.6-.2zm-342.8.5c0-.8.7-.6 2.1.6 2.3 2.2 3.2 7.1 1.8 9.3-.8 1-.9.7-.4-1.1.5-1.9.4-2.2-.4-1-.6.8-1.1 2.3-1.1 3.2 0 .9-.5 2-1.1 2.4-1.7 1-2.9-1.7-1.7-3.9.7-1.4.7-1.7-.1-1.3-.6.4-1.2.2-1.2-.3-.4-3.6-.3-4.5 1-4.9 1-.3 1.1.2.6 1.9-.5 1.9-.4 2.1.4.9 1.4-1.9 1.4-5.3.1-4.5-1.4.9-3.2-.4-2.4-1.7.4-.6 1-.5 1.5.3.7 1.1.9 1.1.9.1zM99.4 354c2.1 4.1 5.4 10.4 7.1 14 1.8 3.6 5.8 10 8.9 14.3l5.6 7.8-2.8 1c-2.7 1-4.9 1.5-10.8 2.3l-3.2.4 1.4-5.2 1.4-5.1-3.7-3.2c-2.1-1.8-4.4-3.3-5.1-3.3-.9 0-1.1-1.4-.6-5.5.4-3.6.3-5.5-.4-5.5-.5 0-.8 1-.5 2.2.4 2.1.3 2.1-.7.5-.7-1.1-1.6-1.5-2.3-1-.7.5-2.9 1.5-5 2.2-3.1 1-4.5 1-6.8.1-1.6-.7-2.9-1.8-2.9-2.5s-1-2-2.3-2.8c-1.3-.8-2.4-2.3-2.4-3.1 0-.9 1.1-2.8 2.4-4.2C78 356 79 354.5 79 354c0-.4 1.2-1.7 2.8-2.9 2.4-1.8 2.5-1.9.5-1.4-1.7.4-2.3.1-2.3-1.1 0-1.1.9-1.6 3.1-1.6 3.5 0 6.8-1.5 8.9-4.2 1.4-1.7 1.5-1.7 2.5.9.5 1.6 2.7 6.2 4.9 10.3zm361-10.7c1.5 2.2 1.3 8.3-.3 10-1.2 1.2-7.5-3.6-8.5-6.5-1.4-4-.2-5.8 3.8-5.8 2.6 0 4 .6 5 2.3zm-54.1 1.3c.1 1 .8 2.8 1.4 3.8 1.7 3-.9 6.5-4.3 5.8-3.7-.7-3.8-2.2-.8-7.6 2.8-5 3.2-5.2 3.7-2zM66 344.5c0 1.7-3.5 2.1-4.5.5-.3-.6.1-.7.9-.4.9.3 1.6.1 1.6-.5s.5-1.1 1-1.1c.6 0 1 .7 1 1.5zm366.8 1.2c-.9 1-2.4 3.5-3.5 5.6-1.7 3.4-2 3.6-3.7 2.4-1.7-1.3-1.5-1.7 3-6 4.7-4.3 7.4-5.7 4.2-2zm9.7 2.3c-2.4 2.7-8.4 6.4-9.2 5.6-.8-.7 2-4.9 5.4-8 2.4-2.3 2.9-2.4 4.2-1.1 1.3 1.3 1.2 1.7-.4 3.5zm-396.4.5c1.7 3.6 1.1 4.5-2.8 4.5-1.4 0-1.4-.6-.3-7.8.1-1.2 1.8.5 3.1 3.3zm378-1.4c-1.6 1.5-2.6 1.8-3.3 1.1-1.5-1.5 0-3.2 2.9-3.2h2.7l-2.3 2.1zM66.7 352c1.1 5.6 1 6-2.4 6h-2.4l2-2.6c2.4-3.1 1.8-5.9-1-4.3-1 .5-1.9 1.4-1.9 1.9 0 .6-.5 1-1.1 1-.6 0-.9-.6-.6-1.3.3-.8.1-2-.3-2.8-1.1-1.7.6-2.9 4.1-2.9 2.4 0 2.7.5 3.6 5zm350.6-2.1c.5 2.1-1 3.1-4.6 3.1-2 0-2 0 .3-2.5 2.8-3 3.6-3.1 4.3-.6zm28.7-.2c0 1.1-8.4 6.3-10.1 6.3-.8-.1.4-1 2.6-2.2 2.2-1.1 4.4-2.7 4.8-3.4.8-1.5 2.7-1.9 2.7-.7zm-388.5 4c0 2.8-1.9 2.5-2.3-.4-.2-1.1.3-2 1-2s1.3 1.1 1.3 2.4zm-7.5-.1c0 .3-.7 1.9-1.6 3.5l-1.5 3.1-2-2.3c-2.4-2.7-2.4-3.7-.1-4.1 2.9-.6 5.2-.7 5.2-.2zm398.7 1.6c0 .7.4 2.7.7 4.5.7 3.8-1.3 6.3-5.1 6.3-1.6 0-2.7-.7-3-2-.3-1.1-1-2-1.5-2-1 0-.3 1.5 2.1 4.5 1.3 1.6 1.3 1.8.1.8-.9-.7-3.8-1.6-6.5-2-2.8-.5-4.9-1.2-4.7-1.6.1-.4.2-1.6.2-2.8 0-1.2.5-1.9 1.3-1.6.6.2 2.4 0 4-.4 1.9-.5 2.7-.4 2.7.5 0 .8 1.6-.2 3.6-2 3.7-3.5 6-4.3 6.1-2.2zm6.7.3c1 .8 2.3 1.2 2.7.9 1.6-1 .3 4.3-1.7 6.9-2.4 3-3.4 3.4-3.4 1.4 0-.8 1.1-2 2.5-2.7 1.4-.7 2.5-1.7 2.5-2.2 0-.5-1.1-.1-2.5.8-2.4 1.6-2.5 1.6-2.6-.7 0-1.3-.2-3.2-.4-4.2-.4-2.1.4-2.1 2.9-.2zm-35.4.5c0 .5-.2 1-.4 1-.3 0-.8-.5-1.1-1-.3-.6-.1-1 .4-1 .6 0 1.1.4 1.1 1zm-2.4 1.5c.4.8.1 2.1-.5 2.9-1.6 1.9-5.1 12.3-4.4 13 .4.3.2.6-.3.6-2.3 0-5.3-12.2-3.6-14.8.5-.7 1.9-1.4 3.2-1.7 1.2-.2 2.5-.7 2.8-1 1-1 2.3-.5 2.8 1zm5.9-.5c.3.6-.1.7-.9.4-1.8-.7-2.1-1.4-.7-1.4.6 0 1.3.4 1.6 1zm-369.1 2.1c-.9 1.5-3.4 1-2.8-.5.3-.8 1.2-1.2 2-.9.8.3 1.1.9.8 1.4zm348.3-1.5c1.8.5 2.1 1.3 2.1 5 0 2.4.3 4.8.7 5.5.5.7.1.9-1.1.7-2.8-.6-7.4 1.9-8.4 4.7-.6 1.6-.5 3.6.2 5.6.8 2.5.8 3.3-.3 4-2.2 1.4-6.2.2-8.6-2.6-3.9-4.4-2.2-7.1 2.7-4.5 1.3.7 1.9.6 2.4-.5.3-.9-.4-2-1.9-2.8l-2.5-1.2 5.2-7.3c5.2-7.3 5.6-7.6 9.5-6.6zm24.5 4.8c.2 2.9-.2 4.7-1.6 6.3-1.1 1.3-2.1 4.4-2.4 7.3-.3 3.5-.9 5-1.9 5-2 0-7.1-3.1-7.7-4.6-.7-1.8 1.3-9.4 3.6-14.1 1.9-3.8 2.4-4.2 5.9-4.1 3.7 0 3.8.1 4.1 4.2zM64 361.5c1.4.9-1.7 5.2-5.9 8.2-2 1.4-2.8 2.3-1.7 1.9 2.8-.9 7.4-4.9 8.1-6.9.5-1.3 1.3-1.7 2.7-1.4 1.4.4 1.8.2 1.4-.9-.3-.9-.1-1.2.4-.9.6.3 1 1.2 1 2 0 .7.7 1.5 1.5 1.9.8.3 1.5 1.2 1.5 2s.8 2 1.8 2.6c1.6 1.1 1.6 1.1-.1.6-1.5-.5-1.6-.2-.7 1.4.8 1.6.3 2.4-3.6 5.6-3.9 3.2-5.3 3.8-9.6 3.8-4.4.1-5.3-.3-7.9-3.1-2.9-3.4-3-6.6-.1-5.6 1.4.4 1.4.3.3-.5-.8-.6-2-.8-2.6-.6-.8.3-1.2-.5-1.1-2.3.1-2.2 1.1-3.5 5-6 4.6-2.9 7.1-3.4 9.6-1.8zm384.2 5.3c-.7.5-1 1.6-.6 2.6.6 1.6.5 1.7-1.5.5-1.1-.8-2.1-1.7-2.1-2.2 0-.4.4-.6.9-.2.5.3 1.2.1 1.6-.5.3-.5 1.2-1 1.8-1 .9 0 .8.3-.1.8zM46 369.6c0 2.4 0 2.4-3.5.7-4-1.9-3.8-3 .5-3.1 2.5-.1 3 .3 3 2.4zm391 0c0 .2-.9.4-2 .4s-2-.4-2-.9.9-.7 2-.4c1.1.3 2 .7 2 .9zm-3.3 3c2.8.4 2.5 1.3-1.8 4.4-3.7 2.6-4.4 2.8-5.2 1.5-.9-1.6-.1-5.1 1.6-7.3.8-1 1.3-1 2.4 0 .8.7 2.2 1.3 3 1.4zm8.3 5.6c-2.4 2.1-5.2 3.8-6.2 3.8-1.9 0-1.8-.3.8-3.8 5.8-7.5 5.6-7.4 7.7-5.4 1.8 1.6 1.8 1.8-2.3 5.4zm-346.3-3.8c-.2.6-.9 1.1-1.5 1-.7-.1-2.7-.2-4.4-.3l-3.3-.2 3.5-1.3c3.8-1.3 6.3-1 5.7.8zm308.3-.1c0 1.3-.7 3.2-1.5 4.3-1.3 1.6-1.6 1.7-2.5.4-1.5-2.3-1.2-4.8.8-5.9 2.6-1.6 3.2-1.3 3.2 1.2zm-321.3.2c-.6 1.7-3.4 1.7-4 .1-.5-1.2 0-1.5 1.8-1.4 1.4.1 2.4.7 2.2 1.3zm329.8 6.3c-.2.2.2 2 1 3.8.8 1.9 1.1 3.4.7 3.4-1.6-.1-2.7-1.7-3-4.5-.2-1.7-1.2-3.7-2.2-4.6-1.1-.9-1.6-1.9-1.3-2.3.4-.3 1.7.4 3 1.6 1.2 1.2 2.1 2.3 1.8 2.6zM92 379c0 1.2-4.5 2.4-6.5 1.6-2.8-1-1.5-2.3 2.5-2.4 2.2-.1 4 .3 4 .8zm355.9 5.2c-.4 1.5-1.1 3.3-1.4 3.9-1.5 2.3-9.2 4.8-14.7 4.8-3.1-.1-6 .1-6.5.4-.5.3-1.9-.1-3.3-.8l-2.5-1.3 3-1.1c1.7-.6 4.2-1.8 5.7-2.6 1.4-.8 3.7-1.5 5-1.5 3.2-.1 9.9-3.3 12.3-5.9 1.8-2.1 2-2.1 2.6-.4.3 1 .3 3-.2 4.5zm-352.5-4.6c1.4.5 1.3.9-.4 3.1-1.1 1.4-2 3.4-2 4.5 0 2.5 2.8 7.8 4.1 7.8.6 0 .7.4.4 1-.8 1.3-5.1 1.3-7.5 0-2.8-1.5-7-9.2-6.8-12.3.2-2.7 1.2-3.5 2.3-1.8.7 1.2 6.9-.5 7.3-1.9.4-1.2.5-1.2 2.6-.4zm296.5 7.4c3.2 0 3.2.1 2.5 3.2-.4 1.8-.7 4.1-.6 5 .2 3.7-7.8 1.1-11.6-3.7-2.7-3.4-3.6-7.9-2.2-10.4 1-2 1.2-2 4.9 1.9 2.9 3.1 4.6 4 7 4zm-312.2-4.8c-.3 1.3.1 4.1.8 6.3.8 2.1 1.3 4 1.2 4.2-.2.1-1.8-.2-3.8-.6-1.9-.4-4.5-.4-5.7 0-2.6 1-2.8 0-.7-4 1.3-2.6 6.9-8.1 8.2-8.1.3 0 .3 1 0 2.2zm343.2 1.9c4.3-.1 3 1.3-2.4 2.8-4.2 1.1-4.9.8-6-2.7-.6-2.1-.5-2.1 2.2-1.1 1.5.6 4.3 1.1 6.2 1zm-15.4 0c1.1 1.7 0 2-2.1.4-1.7-1.3-1.7-1.4-.2-1.5.9 0 2 .5 2.3 1.1zm-305.8 2c.9.9.9 1.7 0 3.3-.7 1.1-1.2 2.2-1.3 2.4-.3.7-3.3-1.1-3.8-2.4-1.3-3.5 2.5-5.9 5.1-3.3zM404 388l2.5 2-3.9 3.5c-2.1 1.9-4.3 3.2-4.8 2.9-1.6-1 1.2-10.4 3-10.4.4 0 1.8.9 3.2 2zm-322.9 8.7c1.6 1 2.9 2.2 3 2.8 0 .5.2 1.8.4 2.7.5 2.9-3.3 6.8-6.6 6.8-1.6 0-2.9-.5-2.9-1 0-.6-.6-1-1.4-1-1.6 0-5.8-7.9-5-9.2 1.8-2.9 8.5-3.5 12.5-1.1z"/><path d="M99.4 105.3c1 .7 2.9 2.2 4.2 3.5 1.3 1.3 2.4 1.8 2.4 1.3 0-1.2-6.3-6.1-7.6-6-.5 0-.1.6 1 1.2zM131 98.4c0 .9.5 1.6 1 1.6.6 0 1-.4 1-.9 0-.6-.4-1.3-1-1.6-.5-.3-1 .1-1 .9zM329 124.7c0 .5 1.9.9 4.3.9 3.4.2 3.7 0 1.7-.6-3.3-1.1-6-1.2-6-.3zM377.7 174.7c-.4.3-.7 1.4-.7 2.4s-.9 3.4-2 5.4c-1.1 1.9-1.6 3.5-1.1 3.5 1 0 3.1-4.5 4.1-8.8.8-3.3.8-3.6-.3-2.5zM323.7 174.7c-.4.3-.7 1.1-.7 1.7 0 .6.5.5 1.2-.2.6-.6.9-1.4.7-1.7-.3-.3-.9-.2-1.2.2zM322.3 179.5c0 .8.4 1.5.9 1.5.4 0 .8-.7.8-1.5s-.4-1.5-.8-1.5c-.5 0-.9.7-.9 1.5zM231.5 191c.3.5.8 1 1.1 1 .2 0 .4-.5.4-1 0-.6-.5-1-1.1-1-.5 0-.7.4-.4 1zM237.5 192c.3.5.8 1 1.1 1 .2 0 .4-.5.4-1 0-.6-.5-1-1.1-1-.5 0-.7.4-.4 1zM158.7 221.1c-2.6 3-1.5 3.4 1.3.4 1.3-1.4 1.9-2.5 1.4-2.5s-1.8.9-2.7 2.1zM180.5 198c.3.5 1.1 1 1.6 1 .6 0 .7-.5.4-1-.3-.6-1.1-1-1.6-1-.6 0-.7.4-.4 1zM220 208.5c3.3 1.9 5 1.8 2.6 0-1.1-.8-2.7-1.5-3.5-1.5-1 .1-.7.6.9 1.5zM213 209c0 .5.5 1 1 1 .6 0 1-.5 1-1 0-.6-.4-1-1-1-.5 0-1 .4-1 1zM277.2 211.5c-.6 1.4-.8 2.5-.3 2.5.4 0 1.3-1.1 1.9-2.5.6-1.4.8-2.5.3-2.5-.4 0-1.3 1.1-1.9 2.5zM272.5 219c-.3.5-.1 1 .4 1 .6 0 1.1-.5 1.1-1 0-.6-.2-1-.4-1-.3 0-.8.4-1.1 1zM131.5 226c.3.5 1.1 1 1.6 1 .6 0 .7-.5.4-1-.3-.6-1.1-1-1.6-1-.6 0-.7.4-.4 1zM354 209.5c0 .4.9 1.8 2 3.2 1.3 1.7 1.8 3.5 1.5 5.6l-.5 3.2 1-2.9c.6-2 .5-3.6-.2-5-1.3-2.3-3.8-5.1-3.8-4.1zM352.3 217.5c0 .8.4 1.5.9 1.5.4 0 .8-.4.8-.9 0-.6-.4-1.2-.8-1.5-.5-.3-.9.1-.9.9zM398 219.5c-1.3 1.4-2.1 2.7-1.9 3 .3.2 1.7-.9 3.3-2.5 1.5-1.7 2.4-3 1.9-3s-2 1.1-3.3 2.5zM215 223c0 .5.5 1 1 1 .6 0 1.7 1.4 2.4 3.2 2.1 4.9.3 9.3-6.3 15.5-3.1 2.9-5.2 5.3-4.8 5.3.5 0 3.3-2.3 6.2-5.1 5.9-5.6 7.7-10.3 6.2-15.5-.8-2.9-4.7-6.5-4.7-4.4zM200 242.7c0 1.9 5 7.3 6.8 7.3 1.2 0 .9-.5-.9-1.7-1.4-.9-3.3-2.8-4.2-4.2-.9-1.4-1.7-2.1-1.7-1.4zM385 219c0 .5.5 1 1.1 1 .5 0 .7-.5.4-1-.3-.6-.8-1-1.1-1-.2 0-.4.4-.4 1zM106.2 273.5c-1.4 2.9-1.6 10.5-.4 10.5.4 0 .6-1.6.4-3.6-.3-2 .1-4.7.8-6 .8-1.3 1.1-2.6.8-2.9-.2-.3-1 .6-1.6 2zM151.3 311.1c-4.3.8-12.8 4.7-12 5.5.2.2 2.6-.5 5.3-1.7 5.2-2.3 18-3.1 23.9-1.6l3 .7-2.6-1.5c-3.2-1.7-11.9-2.5-17.6-1.4zM291.4 316.9c.3.4-2.5 1.1-6.1 1.4-3.7.4-7.1 1.1-7.6 1.6-.6.6.2.8 2.4.5 10.7-1.6 18.5-.7 26 3 1.6.8 2.9 1 2.9.5 0-1.1-5.8-4.2-8.9-4.7-1.3-.2-4-.9-5.8-1.7-1.9-.8-3.1-1.1-2.9-.6zM147.8 318.8c-1.3.9-2.7 2.1-3.3 2.7-.5.7-2.5 2.2-4.3 3.4-2.8 1.9-3.3 2-3.8.7-.3-.9-1-1.6-1.5-1.6-.6 0-.5.9.1 2 1.3 2.4.2 2.6-2.9.3-2.6-1.8-2.3-.6.8 3.1 1.5 1.8 1.4 1.9-2.4 1.2l-4-.7 2.5 2c1.4 1.2 3.1 2.1 3.8 2.1 1.5 0 12.5 10.8 15.7 15.4 1.1 1.6 3.4 3.5 5.1 4.2 4.2 1.7 6.1 4.1 4.6 5.6-2.1 2.1-1.2 2.7 1.8 1.1 1.7-.8 4.1-1.6 5.3-1.8 10.7-1.3 15-2.6 16.3-4.7.6-1 .5-1.1-.7-.1-2.8 2.3-19.9 3.4-19.9 1.3 0-.5.3-.9.8-.9 4 .7 5.4-.3 7.8-5.6 3-6.4 4.4-18.9 2.5-22.3-1-1.8-.8-2 1.2-1.8 6 .8 11.1 3.1 12.6 5.9 2.6 4.7 4 6.5 3.7 4.7-.8-4.8-4-13.6-5.3-14.5-2.1-1.5-8-1.9-22.5-1.5-3.6.1-7.2-.2-8-.6-2.2-1.4-3.5-1.3-6 .4zm-3 17.4c-.4 2.2-.5 2.2-1.8-.4-1.1-2.3-1.1-3 .1-4.4 1.3-1.6 1.4-1.6 1.7.4.2 1.2.2 3.2 0 4.4zM281.6 323.8c-.2.1-2.4.4-4.9.6-5.3.5-8.6 2.1-8.8 4.1-.2 2.3-.4 2.9-1 4-.4.5-.9 2.3-1.3 4-.4 1.6-.9 3.9-1.2 5l-.5 2 1.3-2c.7-1.1 1.3-2.2 1.3-2.5.3-2.2 3.2-5.4 6-6.6 4.5-1.9 4.8-1.8 3.4.8s-1.6 15.8-.3 17.9c.5.8.9 1.8 1 2.4.1.5.9 2.7 1.8 4.7.9 2.1 1.5 3.8 1.4 3.8-.2 0-1.8-.4-3.6-.9-3.8-1.1-4.3-.5-.7.9 2.8 1.1 5.8 1.7 12 2.6 2.2.4 4.5 1.1 5.2 1.6.7.5 1.7.7 2.2.4.5-.4 1.4.2 2 1.1.8 1.5 1 1.5 1.1.2 0-.8-.5-2-1.1-2.6-1-1 1.7-4 10.4-11.6 1.2-1 4.7-4.2 7.7-7.1 3-2.8 7.6-6.4 10.3-7.9 2.6-1.5 4.7-3.3 4.7-3.9 0-.7-.4-.7-1.2-.1-.7.6-2.5 1.3-4 1.7-2.2.5-2.6.3-2.2-.9.4-.8 1-1.5 1.4-1.5.4 0 1.1-.7 1.4-1.6.4-1.2.1-1.4-1.3-.9-1.3.4-2.3 0-3-1.2-1-1.7-1-1.7-1.1-.1 0 1.9-2.5 2.5-3.5.9-.7-1.3-10.1-4.7-15-5.6-6.2-1.1-19.4-2.2-19.9-1.7zm27.8 11.2c5.3 3.4 5.5 5.2 1.1 10-1.2 1.4-3.4 3.7-4.7 5.2-2.7 3-4 3.6-3.3 1.5.9-2.5 1.2-14.1.5-16.9-1.1-3.7.3-3.6 6.4.2zm12.6-2c0 .5-.5 1-1.1 1-.5 0-.7-.5-.4-1 .3-.6.8-1 1.1-1 .2 0 .4.4.4 1zM213 380.2c0 2 5.1 5.8 7.6 5.8 2.8 0 8.4-2.9 8.4-4.3 0-.5-1-.2-2.3.6-2.3 1.5-4.7 2.1-7.5 1.8-.7 0-2.4-1.2-3.7-2.6-1.4-1.3-2.5-1.9-2.5-1.3zM184.6 394c2.5 10 12.2 18.6 24.7 22 5.1 1.4 22.4 1.9 27 .8 7.2-1.7 18.3-9.3 20.8-14.1.7-1.4-.3-.8-2.9 1.7-4.1 3.9-6 5.2-12.2 8.2-7.9 3.8-30.6 2.1-41.6-3.1-4.1-1.9-11.3-9.1-14.2-14.1-1.6-2.7-2.1-3.1-1.6-1.4zM331 257c0 .5.5 1 1.1 1 .5 0 .7-.5.4-1-.3-.6-.8-1-1.1-1-.2 0-.4.4-.4 1zM334.9 257.3c.4.4 1.8.3 3.2-.2 2.3-.9 2.2-.9-.8-.8-1.8.1-2.8.6-2.4 1zM337.3 274.5c1.6.9 3.1 1.4 3.5 1.1.8-.9 0-1.4-3.3-2.1l-3-.6 2.8 1.6zM252.8 238.7c.6.2 1.8.2 2.5 0 .6-.3.1-.5-1.3-.5-1.4 0-1.9.2-1.2.5zM108 239.9c0 .6.4 1.1 1 1.1.5 0 1.6 1.2 2.4 2.7 1.9 3.8.6 6.8-5.2 12.2-2.6 2.4-3.5 3.7-2 2.8 2.5-1.5 2.7-1.5 3.2.1.3 1.1.4 1 .3-.5-.1-1.2.8-3 2.1-4.1 3.5-3.1 4.4-7.4 2.2-11-2-3.3-4-4.9-4-3.3zM118.3 254.2c.1 1.6.5 2.8.9 2.8 1 0 .9-.9-.2-3.5-.8-1.7-.8-1.6-.7.7zM415.3 270c.1 1.1.5 2 .9 2 .3 0 .6-.9.5-2-.1-1.1-.5-2-.9-2-.3 0-.6.9-.5 2zM67 265.4c0 .2.7.6 1.5 1 .8.3 1.5.1 1.5-.4 0-.6-.7-1-1.5-1s-1.5.2-1.5.4zM462.3 300.2c-2 3.2-3.1 5.8-2.4 5.8.4 0 1.5-1.6 2.4-3.5 1.6-3.4 1.6-4.8 0-2.3zM419.8 325.9c-1.8 1.6-3 3.2-2.7 3.5.3.3 2-1 3.8-2.9 4-4.3 3.3-4.6-1.1-.6zM432 336.5c0 1.6 2.2 3.5 4 3.4 1.3 0 1.3-.1 0-.6-.8-.4-2-1.3-2.7-2.2-.7-.9-1.3-1.1-1.3-.6zM85 349c0 .5.5 1 1 1 .6 0 1-.5 1-1 0-.6-.4-1-1-1-.5 0-1 .4-1 1zM90.5 349.2c1.7.6 4 2 5.3 3.2 1.9 1.7 2.2 1.8 1.6.3-.8-2.1-4-4-7.4-4.4-2.2-.2-2.1-.1.5.9zM93.8 361c-3 3-4.8 4-9 4.6-2.9.4-4.3 1-3.1 1.2 3.9.6 10.1-1.8 13.7-5.3 2-1.9 3.6-3.7 3.6-4 0-1.2-1.7 0-5.2 3.5zM414.5 351c.3.5.8 1 1.1 1 .2 0 .4-.5.4-1 0-.6-.5-1-1.1-1-.5 0-.7.4-.4 1zM364 104.4c0 .2.9.6 2 .9 1.1.3 1.8.1 1.4-.4-.5-.9-3.4-1.3-3.4-.5zM310.7 121.1c.7.7 1.5 1 1.8.7.3-.3-.2-.9-1.2-1.2-1.4-.6-1.5-.5-.6.5zM420.6 130.8c-.3.5.1.9.9.9s1.5-.4 1.5-.9c0-.4-.4-.8-.9-.8-.6 0-1.2.4-1.5.8zM424 130.6c0 .2 1.4 1.1 3 1.9 1.7.9 3.8 3.1 4.7 5 .9 1.9 2 3.5 2.5 3.5 1.1 0-3.1-7.2-5.1-8.7-1.7-1.2-5.1-2.4-5.1-1.7zM434.5 146c.3.5.8 1 1.1 1 .2 0 .4-.5.4-1 0-.6-.5-1-1.1-1-.5 0-.7.4-.4 1zM445.3 162.5c.6 1.9 1.2 3.3 1.5 3.1.7-.7-.9-6.6-1.8-6.6-.4 0-.3 1.6.3 3.5zM446 168.1c0 .5.5.7 1 .4.6-.3 1-.8 1-1.1 0-.2-.4-.4-1-.4-.5 0-1 .5-1 1.1zM456.7 170.7c-.9.9-.9 4.3.1 4.3.4 0 .7-1.1.7-2.5s0-2.5-.1-2.5c0 0-.4.3-.7.7zM433 173.2c-1.2 2.2-1.2 2.2.6.6 1-1 1.5-2 1.2-2.4-.4-.3-1.2.5-1.8 1.8zM455.2 183c-.6 2.5-2.3 5.7-3.7 7.2-3.2 3.5-3.3 4.9 0 1.8 2.7-2.5 6-10.1 5.3-12.2-.3-.7-1 .8-1.6 3.2zM31 284.4c0 3.1.6 3.4 1.3.6.3-1.1.1-2.3-.4-2.6-.5-.3-.9.6-.9 2zM474 286c-.8.5-1.1 1.2-.7 1.7.5.4 1.2.1 1.6-.6 1.4-2.2 9.1-.8 11.2 2 1 1.3 1.9 1.9 1.9 1.2 0-3.7-10-6.9-14-4.3zM497 291c0 .5.7.7 1.5.4.8-.4 1.5-.8 1.5-1 0-.2-.7-.4-1.5-.4s-1.5.4-1.5 1zM455.9 380.5c-1.4 3-2.2 5.5-1.8 5.5.7 0 3.2-5 4.4-8.8 1.1-3.7.1-2.5-2.6 3.3z"/></svg>