<svg version="1" xmlns="http://www.w3.org/2000/svg" width="442.667" height="442.667" viewBox="0 0 332.000000 332.000000"><path d="M178.1 3c-4.7 1.1-12.3 3.9-17 6.2-9.4 4.7-23 14.4-26.3 18.9-1.2 1.6-2.6 2.9-3.1 2.9-.6 0-3.4-1.8-6.2-3.9-5.2-3.9-5.2-3.9-7.2-1.9-1.9 1.8-2.5 1.9-9.7.9-21.1-3-34.5.7-50.7 13.7-4.1 3.3-9.8 9-12.8 12.7-3 3.6-8 8.4-11.1 10.5-11.4 7.7-17 16.8-17 27.3 0 4.1-.5 5.5-3.5 9-5.7 6.6-6.9 13.6-3.3 18.2 2.1 2.7 2.4 2.7 8.7 2.2 3.6-.4 7.7-1 9.1-1.4 2.1-.6 2-.2-1.3 2.7-6.6 5.8-8.2 10.9-4.8 15.1l1.9 2.4-7.2 7c-10.2 9.8-12.1 13.6-12.1 25 0 8.1.3 9.5 2.9 14.2 1.6 2.9 5.5 7.8 8.6 10.8l5.8 5.4-3.3 1.1c-8.8 2.9-14.2 17.6-10.1 27.5 1.9 4.4 4.8 5.9 10 5.1 7.3-1.2 13.4-5.7 19.1-14.1l2.7-4-.6 11.5c-.3 6.3-.8 16.2-1 22l-.4 10.5.7-8.8c.5-4.8 1.3-9.3 2-10 .6-.6 1.1-2.1 1.1-3.4 0-2.4 4.5-14.1 6-15.7.5-.5 2 1.5 3.5 4.3l2.6 5.2-3.8 6.5c-7.3 12.3-9.1 16.4-9.8 21.6-.4 2.9-1.4 6.3-2.3 7.6-2.2 3.4-1.9 9.9.6 12.4 3.2 3.3 12.9 2.4 21-1.8 1.5-.8 3.2-1.4 3.9-1.4.7 0 2-1.1 3-2.4l1.8-2.3 2.2 3.9c1.3 2.2 2.3 4.6 2.3 5.3 0 2-8.9 18.9-10.4 19.7-2.1 1.2-3.9 6.5-3.2 9.3.8 3.3 4.6 4.7 10.5 3.9 3.7-.5 5.6-.2 8.6 1.5 5.5 2.9 6.9 2.6 2-.4-2.2-1.3-3.5-2.5-2.8-2.5 2.2 0 7.1-5 7.6-7.7.5-2.5 0-4.7-3.9-17.6-.8-2.8-1.7-9.5-1.8-14.7-.2-9.3-.2-9.6 3-13.8 1.8-2.4 4-6.3 4.9-8.7 1.4-3.6 2.2-4.4 5-4.9 1.8-.4 4.4-1.6 5.8-2.7l2.6-2 4.6 3.5c2.5 1.9 7.8 5.1 11.8 7.1 25.9 12.7 68.3 11.6 101.5-2.6 2.4-1.1 4.6-1.9 4.8-1.9.2 0 .4 1.7.4 3.9 0 7.6 5.8 11 13.6 8.1 2-.8 3-.8 3.8.1.8.8.7 1.3-.4 1.7-.8.3-3 2-4.7 3.8-4.8 4.6-4.4 7.7 1.4 13.1l4.6 4.3-1.3 4.1c-1.7 5.2-.7 6.9 4.9 8.8 5.5 1.7 6.4 4.2 5.9 15.5-.4 8-.3 8.6.8 5.5 1.5-4 1.8-15.8.5-19.2-.6-1.5-2.5-3-5.5-4.1-3.1-1.2-4.6-2.3-4.6-3.6 0-2.2 1.8-3 4.5-1.9 1.1.4 3.5.8 5.2.8 7 .2 8.3 10.5 2.9 24.1-4.6 11.4-3 14 8.5 14 4.2 0 5.5-.5 8-2.9 1.6-1.7 2.9-4 2.9-5.4 0-2.3.4-2.5 5-2.5 8.9-.1 19-6.7 19-12.5 0-1.2 1.1-4.4 2.5-7.1 3.6-7.1 3.4-13.3-.4-17-6.3-6-14.8-3.8-19.6 5.1l-2.6 4.8.6-5.9c.8-8.5 8.2-24.5 10.6-23 .5.3.9-.2.9-1s2.3-4.1 5.1-7.3c7-7.9 12.5-16.5 13.3-20.8.6-3.2 1-3.5 4.1-3.5 1.8 0 4.5-.4 5.8-.9 11.5-4.4 9.1-22.9-3.8-29.1-2.5-1.2-4.5-2.5-4.5-2.8 0-.4 1.8-3.6 4-7.2 5.5-8.8 7.6-16.1 6.1-21.1-1-3.4-6.9-9.9-9-9.9-1 0-9.1-12.2-9.1-13.7 0-.6 1.1-3.5 2.4-6.6 2.3-5 2.8-5.5 6.3-6 10.3-1.2 20.3-7.9 20.3-13.4 0-1.3-1.4-3.9-3.2-5.8-3.3-3.7-7.9-5.5-13.8-5.5h-3.5V94.7c0-8.9-.3-10.9-2.6-15.8-1.5-3.1-4.3-7.4-6.2-9.6-2-2.1-3.9-5.2-4.3-6.8-1.3-5.6-10.2-23-13.1-25.6-3.2-3-9.3-6.9-10.8-6.9-.5 0 1.3 1.4 4.2 3 4.6 2.6 8.3 6.4 10.8 11 .5.8-1.4-.6-4.3-3.2-2.8-2.6-7.2-6.1-9.7-7.7-2.5-1.6-4-3.1-3.4-3.3 1.9-.6-15.2-4.8-19.6-4.8-2.3 0-5.1-.8-6.5-1.8-1.3-.9-4.7-3.1-7.5-4.7-2.9-1.7-8.6-5.3-12.8-8.1-10.5-7.1-15-8.6-28.2-9-8.4-.3-13 .1-19.4 1.6zm34.3 3.8c3.4 1.6 7.2 3.9 8.6 5.1l2.5 2.2-3.5-.4c-1.9-.3-6.4-1.7-10-3.3-5.3-2.2-8.2-2.8-15.5-3l-9-.2 9 .7c5.6.5 10.8 1.6 13.8 2.9 2.6 1.1 4.7 2.2 4.7 2.4 0 .2-4.2.1-9.2 0-5.1-.2-14.9.2-21.8.8-15.3 1.5-15.2 1.5-22 3.4-3 .8-5.6 1.4-5.7 1.2-.7-.7 13-9 18.7-11.3 8.9-3.6 13.4-4.3 23.9-3.8 7.7.4 10.5 1 15.5 3.3zM227 13c1.4 1.1 2.1 2 1.7 2-.5 0-2-.9-3.4-2s-2.2-2-1.7-2c.5 0 2 .9 3.4 2zm.7 4.2c.7.6 1.3 1.4 1.3 1.9 0 1.1-5-1-7-2.9-1.3-1.3-1.1-1.4 1.5-.7 1.6.3 3.6 1.1 4.2 1.7zm-8.1 1.3c3.6 1 6.2 2.6 8.3 5 2.6 3 4.1 6.5 2.7 6.5-.2 0-5.1-2.4-10.8-5.4-5.8-3-12.2-5.8-14.3-6.2-2-.3-3.2-1-2.6-1.4 1.6-1 10.8-.1 16.7 1.5zm-51.2 1.8c-4.5 1.8-11.4 5.4-15.5 8-4.1 2.6-8.3 5.3-9.4 6-1.1.6-2.3 1.6-2.6 2.1-.4.5-1.4.6-2.4.3-1.4-.6-1.3-1.1 1.1-4.2 1.5-2 3-3.1 3.3-2.6.4.6 1.8-.4 3.3-2.2 3.1-4 9.2-7.1 17.8-9.1 11.6-2.6 13.4-1.9 4.4 1.7zm67.1-.2c2 1.8 3.4 3.4 3.1 3.6-.8.8-7.3-3.6-8-5.2-.9-2.4 1.1-1.7 4.9 1.6zM141.9 27c-6.1 6.8-9 8.9-7 5.1 1-1.8 11.8-12.1 12.7-12.1.3 0-2.3 3.1-5.7 7zm42.1-5c-4.7 2.6-3.3 2.5 2.7-.1 3.9-1.7 6.1-2 11.8-1.6 8.3.7 16.1 2.9 19.5 5.7l2.5 2.1-4.5-.6c-2.5-.3-12.6-.7-22.5-.9-16.5-.2-22.8.2-31.7 1.8-3 .6-2.9.4 1.6-1.9 5-2.8 17.3-6.4 21.6-6.4 2.3 0 2.2.1-1 1.9zm60.5 2.1c.4.5.5 1.2.2 1.5-.9.9-3.6-.8-5.2-3.2l-1.6-2.5 3 1.5c1.6.9 3.3 2.1 3.6 2.7zm-10.7 1c1.9 3.1.4 3.8-1.8.9-1.1-1.4-2-2.8-2-3.2 0-1.3 2.5.2 3.8 2.3zm3.7.9c.3.5.1 1-.4 1-.6 0-1.1-.5-1.1-1 0-.6.2-1 .4-1 .3 0 .8.4 1.1 1zM92.6 27.9c-.3.5-3.6 1.4-7.3 2.1-3.8.7-7.8 1.7-9.1 2.1-1.3.5-2.1.5-1.8 0 .6-.8 10.4-3.7 15.6-4.5 1.4-.2 2.6-.4 2.8-.5.2 0 .1.3-.2.8zm157 .5c1.1.8 3.3 3.3 4.9 5.6 2.3 3.3 2.6 4.3 1.5 5-1.7 1-7-1.5-7-3.3 0-.6-.9-2.3-2-3.7-3.5-4.4-1.8-6.7 2.6-3.6zm17.9 2.6c10.8 5 10.8 5.5 0 5.4H258l-3.5-4.1c-2.3-2.8-3.1-4.3-2.3-4.6 2.5-1 9.4.5 15.3 3.3zM186 28.4c0 1.5-10.2 6.6-13.1 6.6-1.9 0-5 .5-6.9 1-3.8 1.1-13.3.3-12.5-1 .8-1.3 10-4.1 17.8-5.4 7.4-1.3 14.7-1.9 14.7-1.2zM112 30c2.8 1.7.3 2-6.6.6l-6.9-1.4 6-.1c3.3 0 6.7.3 7.5.9zm90.1.6c5 1.5 5.2 1.7 2.9 2.6-3.5 1.3-25.5 1.9-24.2.6 1.1-1.1 11.9-4.7 14.3-4.7.8-.1 4 .6 7 1.5zm19.4.5c2 .7 2.5 1.3 1.6 1.7-1.8.6-14.2-1.6-16.1-2.9-2.1-1.4 10.6-.4 14.5 1.2zM244 33c1.9 3.7 1.9 4 .3 4-2.5 0-3.6-1-5.1-4.3-1.6-3.6-1.6-3.7.8-3.7 1.3 0 2.7 1.4 4 4zm-6.6-1.4c1 2.5.7 3.4-.8 2.8-1.9-.7-2.8-4.4-1.1-4.4.7 0 1.6.7 1.9 1.6zm-136.9 3.5c-9.7 1.1-14.8 2.5-23.2 6.4-4 1.9-7.3 3.2-7.3 2.9 0-.9 8.2-5.7 13.7-8 4.7-1.9 7.4-2.3 14.8-2.2l9 .1-7 .8zm117.5.5c0 .2-.7.4-1.5.4s-1.5-.4-1.5-1c0-.5.7-.7 1.5-.4.8.4 1.5.8 1.5 1zm8.5-.6c.4.6-.6 1-2.4 1-1.6 0-3.3-.5-3.6-1-.4-.6.6-1 2.4-1 1.6 0 3.3.4 3.6 1zM67.1 43.4c-7.3 7.2-14.1 12-14.1 10 0-.3 1.5-2.3 3.3-4.6 4-5 15.3-13.3 18.8-13.7.4-.1-3.2 3.7-8 8.3zM213 35.9c0 .5-.9 1.2-2 1.6-2.5.8-9.1-.5-8.4-1.6.7-1.2 10.4-1.2 10.4 0zm-55.4 2.2c.3.5-.2.9-1.1.9-.9 0-2.7.7-4.1 1.6-2.5 1.7-10.1 2.7-10.9 1.4-.3-.4.4-1.5 1.5-2.5 1.4-1.3 2-1.4 2-.5 0 1 .4.9 1.8-.2.9-.9 2.3-1.7 3.1-2 2-.6 7 .3 7.7 1.3zm15.9-1.1c-.3.5-2.1.9-3.8.9l-3.2-.1 3-.8c4.3-1.1 4.7-1.1 4 0zm57.8 3.8c1.4 2.4 1.6 3.6.8 4.6-.6.7-.8 1.6-.5 1.9 1 1-2.7 10.7-4 10.7-1.5 0-5.2-8-6-12.9-.4-1.9-1.4-4.3-2.3-5.3-1.5-1.7-1.4-1.8 1.3-1.8 1.9 0 4.1 1.2 6.7 3.7 3.2 3 3.6 3.3 2.3 1.1-1-1.4-2.4-2.9-3.2-3.2-2.2-.9-1.6-2.8.8-2.4 1.2.2 3 1.8 4.1 3.6zm-50-2.1c-.7.2-1.9.2-2.5 0-.7-.3-.2-.5 1.2-.5s1.9.2 1.3.5zm18.7.3c2.4 1.5.7 1.8-2.5.4-2.3-1-2.5-1.3-1-1.3 1.1-.1 2.7.3 3.5.9zm17.2.7c.9 1 1.9 2.9 2.3 4.2.7 2.3.5 2.2-4-1-3.9-2.8-4.3-3.4-2.8-4 2.7-1.1 2.9-1.1 4.5.8zm21.8.2c1.5 2.9 1.2 6.1-.6 6.8-.9.3-2 0-2.5-.8-1.5-2.3-1-4.9.9-5 1 0 1.2-.3.5-.6-1.5-.6-1.7-2.3-.3-2.3.5 0 1.4.9 2 1.9zm37.3-.5c2.1.8 4.7 2.2 5.7 3.1 2.5 2.2 5.4 9.9 4.6 12-.5 1.5-.8 1.5-2.8.1-1.2-.9-2.7-3-3.2-4.7-1.7-4.9-5.5-7.1-13.2-7.8-6.5-.6-9.5-2.4-5.7-3.4 3.6-.9 10.9-.6 14.6.7zm-174.5 1.8c-.8 1.2-3.7 3-6.4 3.9-5.2 1.8-17.6 3-16.8 1.7 1.6-2.5 15.9-7.5 22.3-7.7 2.2-.1 2.3 0 .9 2.1zm143-.6c3.3 1.6 4.3 4.4 1.7 4.4-.8 0-1.5-.4-1.5-.8 0-.5-.9-1.8-2-3-2.5-2.6-2.3-2.7 1.8-.6zM81 42.7c-2.5 1.4-5.6 3.5-6.9 4.5-2.5 1.9-7.3 2.6-5.5.8 1.3-1.3 14.6-8 15.9-8 .6 0-1 1.2-3.5 2.7zm112.8-1.1c2.8.4 3.1.8 2.2 2-1.6 1.8-4.5 1.8-10.6-.3-4.4-1.5-4.7-1.7-2.4-2.3 2.4-.7 4-.6 10.8.6zm22.7 4.5c4.1 3.6 4.9 6.7 1.3 4.8-4.1-2.1-10.8-8-10.8-9.5 0-1.3.4-1.2 3 .1 1.6.8 4.6 2.9 6.5 4.6zm42.3-2.3c.2.7-.7 1.2-2.2 1.2-2.7 0-3.5-1.5-1.3-2.3 1.7-.7 3-.3 3.5 1.1zm-57.3.4c1.8.8 2.2 1.4 1.3 2-.9.5-.6.8 1 .8 1.3 0 3.6.7 5.1 1.4 2.8 1.5 6.7 6.4 5.7 7.3-1.1 1.2-15.2-3.2-17.8-5.6-3.1-2.7-3.5-4.1-1.4-4.1.8 0 1.6-.7 2-1.5.7-1.8.8-1.8 4.1-.3zm42.5.9c0 .5-.4.9-1 .9-.5 0-1-.7-1-1.6 0-.8.5-1.2 1-.9.6.3 1 1 1 1.6zM52.4 49.7C48 55.2 45 57.9 45 56.5 45 55.8 56 44 56.7 44c.2 0-1.8 2.6-4.3 5.7zm88.9-4c-2.3.8-1.4 2.5 1 1.8 2-.5 2-.5.4.5-1 .7-2.1.9-2.4.6-.4-.3-1.2-.1-1.9.5-.9.7-1.2.6-.9-.8.1-1-.1-2.3-.6-2.9-.6-.7.2-.9 2.4-.6 1.7.3 2.6.7 2 .9zm36.4.5c1.1 1.3 2.6 3.3 3.2 4.5 1.6 3.2-.8 3.1-4.7-.2-2.1-1.7-2.8-3.1-2.5-4.5.7-2.6 1.5-2.5 4 .2zm97.1-.2c5.1 3.1 3.7 4.3-1.8 1.5-2.7-1.4-5-2.8-5-3 0-1.2 3.8-.3 6.8 1.5zm-88.2 2.2l4.9 3.3-3 .6c-2.9.6-2.8.7.8.8 4 .1 9.4 4.2 8.2 6.1-.3.6.1 1 .9 1 3.9 0 6.5 12.6 3.7 17.9-1.5 2.8-4.1 1.5-8.1-4.1-3.6-5-3.7-5.8-.6-5.8 1.4 0 2.7-.4 3-.8.2-.4-1-.6-2.9-.4-2.9.3-3.6-.1-5.9-3.4-1.5-2.2-2.6-5.3-2.6-7.2 0-1.8-1.1-5-2.5-7.2s-2.1-4-1.7-4c.5 0 3.1 1.5 5.8 3.2zm104.9 2.6c4.5 8.7 5.6 11.4 5 12.1-.4.3-1.2-.1-1.9-.9-.6-.8-2-2-3.1-2.6-1.4-.8-2.2-2.6-2.6-6-.4-2.7-1-5.8-1.5-6.8-1.5-3.8 1.7-.5 4.1 4.2zM158 47c0 .5-.4 1-.8 1-.5 0-1.9 1-3.1 2.2-3.2 2.9-14.2 5.4-15 3.3-.6-1.4 7-5.6 9.1-5.1 1 .2 1.7.1 1.6-.3-.2-1.7.5-2.1 4.2-2.1 2.2 0 4 .4 4 1zm88.6 1.1c.4.8.8.8 1.3 0 .4-.5.8 1.1.9 3.6.1 2.5.8 5.6 1.7 6.9 1.7 2.6 1 5.4-1.4 5.4-1.3 0-1.3.2-.2.9.7.5 1 1.4.7 2-1 1.6-5.1 1.4-6.6-.4-1.1-1.3-.8-1.5 1.6-1.6 2.8-.1 2.8-.1.5-.8-2.7-.7-3.4-1.7-5.1-7.8-1.1-3.6-1.1-4.6.4-6.8 1.7-2.6 5-3.3 6.2-1.4zM96.7 49.8c-.9 1-2.3 3.3-3.1 5.2l-1.4 3.5-7.3-.3c-6.8-.4-7.2-.5-5.4-1.9 4.6-3.4 11-6.7 14.4-7.4 2-.4 3.8-.7 4-.8.2 0-.3.7-1.2 1.7zm63.3-.4c-.8.8-2.6 1.7-4 2.1-2.3.6-2.3.5.5-1.4 3.5-2.3 5.6-2.7 3.5-.7zm33.6.7c1.9 2.2 1.9 2.2-.3 1-1.3-.6-2.3-1.6-2.3-2.1 0-1.5.5-1.2 2.6 1.1zm42.9-.1c.7 2.2-3.9 9-6.1 9-1.1 0-1-.8.4-3.8.9-2 2-3.9 2.5-4 .4-.2.7-1 .7-1.8 0-2.1 1.8-1.7 2.5.6zm-101.5.6c1.8 2.1-.6 4.6-3.8 3.8-2.5-.7-3-2.4-.7-2.4.8 0 1.4-.3 1.4-.8-.4-2.6 1.2-3 3.1-.6zm32-1.1c0 .7-1.7 2.8-4.3 5.4-1.9 2-6.7 3.4-6.7 2 0-.4 1.1-1.6 2.5-2.7 1.3-1.1 2.2-2.2 1.9-2.5-.3-.3 0-.8.7-1.3.8-.4 1-.3.5.4-.4.7-.3 1.2.2 1.2.6 0 1.2-.7 1.6-1.5.5-1.4 3.6-2.2 3.6-1zm104.8 2.1c3.4 1.4 4.1 3.8 2 6.7-1.2 1.5-1.7 1.2-5.5-2.4-7-6.5-5.7-8.1 3.5-4.3zM77.9 50.3c-.2.2-2.2 1.4-4.4 2.7l-4 2.3 2.4-2.6c1.4-1.5 3.3-2.7 4.4-2.7 1.1 0 1.8.1 1.6.3zm7.1.1c0 .5-11.4 8.2-13.2 8.9-1 .4-1.8.2-1.8-.3 0-1.4 6.3-5.9 10.6-7.4 4.8-1.8 4.4-1.7 4.4-1.2zm176.2 1.3c1 .9 1.8 2.6 1.8 3.7-.1 2.1-.1 2.1-1.6.1-3.8-5-4-7.2-.2-3.8zM66.9 56.1c-1.7 2.7-3.4 4.8-3.6 4.5-1.1-1 .9-7.6 2.5-8.5 3.7-2.2 4.1-1 1.1 4zM172 52.5c1 1.3.7 1.7-2.1 2.9-4.4 1.9-5.6 1-2.8-2 2.6-2.8 3.2-2.9 4.9-.9zM61.4 57.2c-.4 2.4-.9 4.6-1.3 4.9-1.1 1.2-5.1 2.1-5.1 1.2 0-1.2 5.8-10.3 6.5-10.3.3 0 .2 1.9-.1 4.2zm93-3.1c.4-.6 1.5-1.1 2.4-1.1 1 0 .4.9-1.8 2.5-2.6 1.9-3.6 2.2-4.8 1.3-1.2-1-1.1-1.4.4-2.5 1.3-.9 2-1 2.5-.2s.8.8 1.3 0zM260 57.4c0 .6-.7.2-1.5-.8-.8-1.1-1.5-2.5-1.5-3 0-.6.7-.2 1.5.8.8 1.1 1.5 2.5 1.5 3zm-77.3-1.9c.9 2.5-.4 2.9-1.7.6-.7-1.5-.7-2.1 0-2.1.6 0 1.3.7 1.7 1.5zm23.8-.3c3.8 1.1 3.9 1.2 1.5 1.9-1.9.5-1.2.7 2.8.8 5 .1 5.2.2 4.2 2.2-1.2 2.2.1 4.9 2.5 4.9 1.4 0 2.5 2.2 2.5 4.7 0 .9-1.6 3.5-3.5 5.9-1.9 2.3-3.5 5.1-3.5 6.3 0 5.1-4.3 2.4-5.9-3.7-.6-2-1.2-5.5-1.4-7.7-.2-2.2-.9-5.3-1.6-6.8-1.4-3.6-1.4-4.7.2-4.7.6 0 .1-.6-1.2-1.3-2.8-1.4-4-3.7-1.9-3.7.7 0 3.1.5 5.3 1.2zM51 59.7c-2.3 2.7-5 6.4-6.1 8.3-1.2 2.4-1.8 2.9-1.9 1.6 0-1 1.4-4.2 3-7.2 2.6-4.5 4.9-6.4 8.8-7.3.2-.1-1.5 2-3.8 4.6zm79.5-2.1c-2.4 1.8-4.5 1.8-4.5.1 0-2.1.8-2.5 3.7-1.9 2.5.5 2.5.6.8 1.8zm17.3-1.4c2.7 2.7 0 3.8-4.1 1.6-2.1-1.1-2.1-1.1-.2-1.9 2.8-1.1 2.9-1.1 4.3.3zm91.7 3.6c.4 2 .9 4.5 1.2 5.6.3 1.2.1 1.7-.8 1.3-.8-.2-1.3-1-1.1-1.6.1-.6-.3-1.1-1-1.1-.6 0-1.9-.7-2.9-1.6-1.7-1.5-1.7-1.7.3-4.5 2.6-3.4 3.5-3 4.3 1.9zm28.2-2.6c3 2.9 2.9 3.8-.4 2.9-1.8-.5-2.9-1.5-3.1-2.9-.4-2.8.6-2.8 3.5 0zM256 57c0 .5-.2 1-.4 1-.3 0-.8-.5-1.1-1-.3-.6-.1-1 .4-1 .6 0 1.1.4 1.1 1zm28.3.4c1.4 1.1 1.6 1.8.7 4.1-1.2 3.3-5 7.5-6.7 7.5-1.5 0-3.6-3.7-2.8-5 .3-.6.1-1-.6-1s.2-1.6 2.1-3.5c3.7-3.8 4.6-4.1 7.3-2.1zM125 58.9c0 1.1-4 4.1-5.4 4.1-.5 0 .1-1.1 1.4-2.5 2.4-2.6 4-3.2 4-1.6zm5.7 2.6c-4.4 3.4-6.7 4.3-6.7 2.7 0-.8 9-6.1 10.4-6.2.5 0-1.2 1.6-3.7 3.5zm14.2-1.9c.6.5.6.5-7.4 4.4-3.8 1.9-7.6 3.3-8.4 3.1-.7-.1-1 .2-.6.8.3.6-.1 1.1-1.1 1.1-1.5 0-1.4-.4.7-2.6 4.2-4.7 11.1-8.6 13.9-7.9 1.4.4 2.7.9 2.9 1.1zm28.1.3c0 2.1-7.9 12.2-11.5 14.5-2.2 1.4-2.5 1.4-3.9 0-2.2-2.1-2-6 .5-10 2.6-4.2 6.2-6.3 11.2-6.4 3 0 3.7.4 3.7 1.9zM43 63.6c-2.5 5-5 16.3-5 22.7 0 4.7 0 4.7-3.1 4.5-1.7-.1-3.4-.8-3.6-1.5C29.9 85.7 37.5 65.5 42 61c3-3 3.3-2.1 1 2.6zm10-1c-1 2.9-4.7 6.1-5.7 5-.3-.3.9-2.3 2.7-4.6 3.6-4.6 4.5-4.7 3-.4zm103.5 0c-2.2 2.9-2.6 4.3-2.3 8 .2 2.4.1 4.4-.3 4.4-1.2 0-5.3-5.1-5.6-7.1-.6-3.9 4-8 10.1-8.8.4 0-.4 1.5-1.9 3.5zm20.5-2.1c0 .7-.5 3.7-1.1 6.5-1 4.6-1.6 5.4-6.6 8.6-3.2 2-6.2 3.3-7.1 2.9-1.2-.4-.1-2 4.6-6.7 3.4-3.4 6.7-7.6 7.4-9.5 1.2-3.4 2.8-4.4 2.8-1.8zm82.5-.3c2.1.9 3.5 2.8 2 2.8-1.2 0-5.5-2.4-5.5-3.2 0-1.1.4-1 3.5.4zm-79.3 3.3c-.2 1.6-1 4-1.8 5.4l-1.5 2.6.5-3.4c.4-1.8.6-4.5.6-5.8 0-1.5.5-2.3 1.3-2 .7.2 1.1 1.6.9 3.2zm43.4-1.4c1.9 2.1 1.9 2.1-.6 1.8-1.4-.2-2.6-1.2-2.8-2.2-.5-2.3 1.1-2.2 3.4.4zm66.6.6c1 .9 1.8 2 1.8 2.5 0 .6.9 2.1 2 3.5 2.4 3.1 2.6 6.6.4 8.3-1.3 1.1-1.6 1-2-.6-.3-1-2-3-3.7-4.3l-3.2-2.5 2.3 2.5c1.2 1.4 2.2 3.3 2.2 4.3 0 .9.5 1.4 1 1.1 2.3-1.4 2 2.7-.3 5.5-1.5 1.7-2.7 2.5-2.9 1.8-.3-.7-1.5.9-2.8 3.5-1.3 2.6-3.2 5.5-4.2 6.4-1.7 1.5-1.8 1.4-1.8-1.4 0-1.7-.6-4.8-1.3-6.9-.7-2.2-1.1-6.3-.9-9.2.4-5 .6-5.4 4.2-6.9 2.9-1.3 4.1-2.6 5.1-5.5 1.4-4.3 1.6-4.4 4.1-2.1zM68.5 63c-.3.5-1.1 1-1.6 1-.6 0-.7-.5-.4-1 .3-.6 1.1-1 1.6-1 .6 0 .7.4.4 1zm18.6 1.4c-1.3 1.4-3.8 5.3-5.5 8.8-4.2 8.2-6.7 8.8-12 2.7-4.1-4.9-4.2-5.5-1.7-8.8 2.1-2.7 9.3-4.9 16.5-5l4.9-.1-2.2 2.4zM147 63c0 1.4-5.8 4.2-7.8 3.8-1.3-.3-.8-1 1.8-2.6 3.7-2.3 6-2.8 6-1.2zm86.5 0c.3.5-.1 1-1 1s-1.3-.5-1-1c.3-.6.8-1 1-1 .2 0 .7.4 1 1zM37 64.4c0 .2-1.3 3.2-3 6.7-1.6 3.5-3.6 9.3-4.3 12.9-1.3 6.7-2.1 7.5-8.4 9.5-2.2.6-2.3.3-2.3-4.2 0-4.9 3.2-12.9 6.7-16.8 4-4.5 11.3-9.7 11.3-8.1zm24 .8c-.1.7-1.9 2.6-4.1 4.1-4 2.8-4 2.8-3.7.5.2-1.5 1.6-2.9 3.8-4 4.2-2.1 4-2.1 4-.6zm52.2 4.2c-2.8 3-5.9 7-6.9 9-.9 2-1.9 3.6-2.2 3.6-.3 0-1.5-1.3-2.5-2.7-2-2.6-2-2.7.3-4.2 1.3-.8 5.1-3.6 8.5-6.2 3.3-2.7 6.5-4.8 7-4.8.5-.1-1.4 2.3-4.2 5.3zm75-.7c1.3 2.5 4.4 6.8 7 9.5 5.2 5.3 5 5.7-1.3 2.9-5.2-2.3-17.9-3.7-16.1-1.9.7.7 2.8 1.1 4.8 1 4.3-.3 12.7 2.3 14.5 4.4 1.2 1.5 1 2.9-2.6 14.5-2.8 8.8-1.4 14.5 4.6 19.2l3.2 2.5-5.7 6.6c-9.8 11.6-7.9 15.3 11.9 22.6 15.5 5.7 19.2 9.5 14.3 14.7-1.9 2.1-2 2.6-.8 4.8 1.2 2.3 1.2 3.2-.4 7.3-4.3 11-2.4 12.9 2.6 2.7 1.8-3.6 3.6-6.5 4.2-6.5.5 0 .6 2.8.4 6.4-.4 5-.2 6.6.8 7 .8.3 1.5 1.3 1.6 2.3 0 1 .4-.5.7-3.2l.7-5 1.3 7.5c.8 4.1 2 9.2 2.7 11.3 1.1 3 1.1 3.8.1 3.4-1.7-.5-3.7-4.7-3.7-7.8 0-2-.6-2.8-2.5-3.1-3.6-.7-3.3.9 2.5 15.2 4.8 12 4.9 12.5 4.3 20.1-.6 7.5-.7 7.8-3.7 9-1.7.7-4.2 2.5-5.6 3.9-2.7 2.8-19.3 9.8-29.5 12.3-29.4 7.5-60.9 5.6-81.6-4.8-9.7-4.9-14.9-9.8-14.9-14 0-4.8-3.7-9.6-9.7-12.4-4.8-2.2-5.4-3-8.7-10-5.5-12-5.5-12.2-.2-18.3 2.6-2.9 5.8-7.7 7.2-10.7 1.4-3 3.5-6.3 4.5-7.4 2.4-2.6 2.4-8.1.1-12.1-2.2-3.7-7.9-6.8-11.4-6.3-3.6.5-3.8-2.4-.3-5.8 2.6-2.7 7.1-3.5 6.2-1.1-.4.9 0 1.2 1.3.9 1-.3 2.1-1.5 2.5-2.6l.8-2.2.4 2.2c.5 2.7 2.3 3.1 2.3.6 0-.9.7-2.5 1.7-3.5 1.5-1.7 1.7-1.6 3.5 2.3 2.2 5 2.2 4.9.3 4.9-.8 0-1.5.4-1.5.9s1.7.7 3.9.4c2.3-.3 4.1-.1 4.5.6.5.7-.2 1.1-1.8 1.1-3.5 0-3.3 1.5.4 3 3.8 1.6 4.2 1.2 3.4-2.9-.4-2.1-1.6-3.7-3.4-4.6-1.5-.8-3.3-2.8-4-4.6-1.2-2.8-1.2-3.3.6-4.6 2.7-2 10.1-.9 13.2 2 1.8 1.7 2.3 2.9 1.9 5.2-.8 4.7.3 8.5 2.3 8.5 3 0 4.5-2.7 3.1-5.6-.6-1.4-1.1-3.3-1.1-4.3s-1.8-4.3-4-7.4c-6.7-9.4-4.5-11.8 4.2-4.5 10.6 9 11.8 10.4 11.8 14 0 1.8-.7 5.5-1.5 8.2-1.8 5.9-1.9 7.9-.3 7.4 1.4-.5 5.8-13.2 5.8-16.7-.1-4.1-2.4-7.2-9.6-13.1-9.2-7.5-9.3-7.8-5.5-13 1.7-2.4 3.1-4.9 3.1-5.5 0-.7 3.7-3.2 8.3-5.5 10.1-5.2 11.7-6.6 11.7-9.9 0-3-6.2-9.9-12.1-13.6-5.4-3.5-5.5-4.2-.7-6.6 2.4-1.2 5.7-3.6 7.4-5.4l3-3.2 3.9 3.5 3.8 3.5-2.6 4.8c-4.2 7.3-3.5 15 1.6 19 1.1.9 2.8 3.7 3.7 6.2l1.8 4.6-4.4 2.6c-7.9 4.7-9.3 9.2-4.5 14.7 2.7 3.1 2.8 3.7 2.1 7.8-1.4 7.3.5 14 4 14 1.2 0 2.8 1.7 4.6 5 1.5 2.7 3.3 5 4.1 5 1.7 0 1.7-.4-.7-5-1.2-2.3-1.6-4-1-4 .6 0 1.8 1.7 2.6 3.7 1.8 4.3 1.5 7.4-2.3 20.9-1.5 5.2-2.3 9.7-2 10.1 1.2 1.1 3.1-1.5 3.3-4.6.1-1.6 1.4-6.6 2.9-11.1 3.2-9.7 3.1-16.3-.5-19.2-2.4-2-2.1-2.2 4.3-3.3 2.6-.4 4.4-.1 5.9 1 3.3 2.3 4.1 1.9 6.1-2.8 2.1-5.1 2.2-9.4.2-12.7-.8-1.4-1.7-3.1-2.1-3.8-.4-.8.2-3 1.3-5 1.2-2 2.4-4.8 2.8-6.2.4-1.4 1.6-3.6 2.7-4.9 1.1-1.5 1.8-3.8 1.7-6-.1-2 .4-5.6 1.1-8.1 1.7-6 0-12-4.7-16.8l-3.5-3.7 2.9 3.9c1.5 2.2 2.3 3.7 1.8 3.5-2.9-1.4-9.4-4.3-12.3-5.5-3.2-1.3-3.6-3.4-.6-3.4.8 0 1.4-.6 1.4-1.4 0-.7 1.7-3.3 3.8-5.7 2.2-2.4 4.4-5.4 5.1-6.7.6-1.2 1.3-2.2 1.6-2.2.2 0 1.4 2.1 2.7 4.7zm86.2-3.1c1.1 2.8.6 3.4-2.6 3.4-4.7 0-6.6-1.4-4.9-3.4 1.7-2.1 6.7-2.1 7.5 0zM88.7 69.1c-.8 3.3-.7 4.7.7 7.6 1.2 2.5 1.4 3.9.6 4.8-.7.9-.6 1.6.5 2.5.8.7 1.5 2.3 1.5 3.5 0 4.7-5.6 5.9-6.7 1.5-.4-1.4-1.1-1.9-2.2-1.5-1.2.4-2-.5-3-3.1-1.3-3.5-1.2-3.7 2.1-6.5 1.8-1.6 2.5-2.6 1.6-2.3-1 .3-1.8.2-1.8-.3 0-1.4 6.1-10.3 7-10.3.4 0 .3 1.8-.3 4.1zm35.4-3.1c.4 0 .6.7.3 1.5-.7 1.9-15.5 13.7-16.2 13-.8-.7 5.6-9.5 9.2-12.7 1.7-1.5 3.7-2.5 4.4-2.3.8.3 1.8.5 2.3.5zm111.6-.4c-.3.3-1.2.4-1.9.1-.8-.3-.5-.6.6-.6 1.1-.1 1.7.2 1.3.5zm23.9 1.6c1.4 1 .7 4.8-.9 4.8-.6 0-2.7-.7-4.8-1.7-3.2-1.4-3.6-1.9-2.6-3.4.8-1.3 1.9-1.6 4.1-1.2 1.7.3 3.6 1 4.2 1.5zm37.1-.7c.9 2.4-.1 2.7-1.5.5-.8-1.3-.8-2-.2-2 .6 0 1.3.7 1.7 1.5zm-72.7.9c0 .3-.4.8-1 1.1-.5.3-1 .1-1-.4 0-.6.5-1.1 1-1.1.6 0 1 .2 1 .4zm9.2 8.2c2.1 3.8 3.8 7.3 3.7 7.9 0 .5-1.2 2.5-2.8 4.2l-2.7 3.3-5-1.5c-2.7-.8-5.8-2.1-6.9-2.8-1.8-1.4-1.7-1.6 1.9-5.8 2-2.4 4.2-6.3 4.9-8.7.6-2.3 1.6-4.1 2.1-3.9.6.2 2.7 3.5 4.8 7.3zm4.6-6.4c.6.1 1 .4.7.6-.3.3.6 1.8 2.1 3.3 2.1 2.2 2.4 3.1 1.5 4.6-2.6 5-3.6 4.5-6.9-2.8-3-6.9-3.1-7.1-.9-6.4 1.2.3 2.8.7 3.5.7zM50.6 72.5c-.9 4.8-4.3 12.5-5.5 12.5-1.3 0-2.1-2.6-2.1-6.7 0-2.5.8-4.3 2.9-6.4 4-4 5.5-3.8 4.7.6zm8.9 2.4c-.7 5.5-.7 5.5-4.7 6.5-2.6.6-2.8.4-2.8-2.2 0-2 1.2-4 3.7-6.5 2-2.1 3.8-3.5 4.1-3.3.2.3.1 2.8-.3 5.5zm84.5-5.3c0 .3-.4 1.4-1 2.4-1 1.9-12.9 9-15 9-1.5 0-.5-4.9 1.4-6.8 2.5-2.5 14.6-6.4 14.6-4.6zm119.8 3.3c-.2 1.4-.7 1.8-1.7 1.2-.8-.6-1.1-1.6-.6-3.1.9-2.7 2.8-1.2 2.3 1.9zm38.8-1.2c4.5 4.9 7.7 13.1 8.2 20.7.5 9-.7 12.2-4.7 12.8-2.8.4-3.1.2-3.1-2.2 0-1.5-.6-4.6-1.4-7.1-1.4-4.3-3.1-26.9-2-26.9.3 0 1.6 1.2 3 2.7zm-56.8 0c-.5 2.5-2.8 2.8-2.8.4 0-1.2.6-2.1 1.6-2.1.9 0 1.4.7 1.2 1.7zm-22.4.8c-.4.8-.8 1.5-1 1.5-.2 0-.4-.7-.4-1.5s.4-1.5 1-1.5c.5 0 .7.7.4 1.5zm31.1.2c3.8 1.8 4.2 2.5 2.2 4.1-.9.8-2.1.2-4.5-1.9-4.8-4.3-4-5.2 2.3-2.2zm17.3 3.5c1.9 2.8 3 5.2 2.6 6.2-.3.9-.9 1.6-1.3 1.5-1.5-.1-7.1-8.4-7.1-10.6 0-3.5 1.8-2.5 5.8 2.9zm2.6-4.6c1.6.6 2.3 6.4.9 6.4-.5 0-2.1-1.6-3.6-3.5-2.5-3.2-2.6-3.5-.8-3.5 1.1 0 2.6.3 3.5.6zm-22.5 4.9c2.7 3.1 2.9 3.8 1.9 6-.6 1.4-1.4 2.5-1.7 2.5-1-.1-6.1-7.9-6.1-9.3 0-1.5.9-2.7 2.1-2.7.4 0 2.1 1.6 3.8 3.5zm-184-.1l2.2 2.4-3 .4c-2.8.4-3.1.2-3.1-2.4 0-3.4 1-3.5 3.9-.4zm58.1.6c0 1.1-.4 2-1 2-.5 0-1-.9-1-2s.5-2 1-2c.6 0 1 .9 1 2zm135.9-1.1c1.2.8 1.2 1.4.1 4-1 2.5-1.5 2.9-2.6 2-2.1-1.7-1.7-6.9.5-6.9.3 0 1.2.4 2 .9zm-44.1 3c-.7 1.2-1.6 2.1-2.1 2.1-.8 0-.2-1.4 1.6-3.8 1.6-2 2-.6.5 1.7zm-95 .6c1.7 3.7 1.7 3.7-4.2 9.6-2.9 3-5.6 6.1-5.9 6.9-.4 1.2-1.1.9-3.1-1.3-1.4-1.5-2.6-3.4-2.6-4.1 0-2.6 5.9-10.3 9.1-11.9 4.6-2.2 5.4-2.1 6.7.8zm49.2-1.9c0 1.2-3.1 3.5-4.1 3.2-.8-.3-.6-1 .5-2.1 1.7-1.7 3.6-2.3 3.6-1.1zm126 4.2l-.1 3.7-1.4-2.7c-.8-1.5-1.2-3.4-.9-4.2 1-2.6 2.4-.7 2.4 3.2zm-196 3.3c0 3.3-1.6 6.9-3 6.9-.5 0-.6-1.6-.3-3.6.7-4-1.2-8.4-3.6-8.4-1.4 0-1.4-.2-.2-.9 2.4-1.6 7.1 2.4 7.1 6zm102.8-3.2c-1.5.5-2.1-.7-1.3-2.6.7-1.7.8-1.7 1.5.2.4 1.1.3 2.2-.2 2.4zm45.7 8.8c-.4 3.1-.2 6 .5 7.2.6 1.2.8 3.8.4 6.3-.7 3.8-.8 4-1.6 1.7-.5-1.3-2.3-3.6-4-5-3.1-2.6-3.2-2.8-2-6.6.7-2.2 1.2-6.7 1.2-9.9l.1-5.9 3 3.5c2.8 3.2 3 3.9 2.4 8.7zm18.9-8.6c1.4 1.7 2.6 3.5 2.6 4 0 1.3-3.1 5.9-4 5.9-.4 0-1.8-1.6-3.2-3.6-2.2-3.1-2.5-4.1-1.6-6.5 1.3-3.7 3-3.7 6.2.2zm-27 10.8c-.6 2.3-.8 2-2.1-2.8-1.3-4.9-1.2-5.5.4-8l1.8-2.6.3 5.4c.2 3 0 6.6-.4 8zm-80-10.9c1.4.5 2.6 1.4 2.6 2 0 .5-1.6 3.2-3.6 6-1.9 2.7-4 6.6-4.6 8.7l-1 3.7-2.4-2.7c-3.9-4.5-3.1-10.9 1.9-16.5 2.3-2.5 3.4-2.7 7.1-1.2zM42 87.8c-.7 1.3-.9.8-.9-2.3 0-3.5.1-3.7 1-1.7.6 1.5.5 3-.1 4zm53.8-4.6c.7.7 1.2 2.2 1.2 3.4 0 2.4-3.5 7.4-5.2 7.4-.6 0-.4-.8.5-1.8 2-2.2 2.2-7.3.5-9-.9-.9-.9-1.2.3-1.2.8 0 2 .5 2.7 1.2zm162.8.3c.7 1.6-1.3 7.2-2.7 8.1-1.7 1-2.9-4.4-1.7-7.1 1.3-2.8 3.6-3.3 4.4-1zm37.9 1.5c1.6 3.1 1.2 7-.6 7-.5 0-.9.7-.9 1.5 0 2.2-12.1 14.8-13.3 13.6-1.5-1.5.2-8.6 3.4-13.3 1.6-2.3 4-6 5.4-8.1 1.4-2 3-3.7 3.5-3.7s1.7 1.4 2.5 3zm-90.6.1c3.5 1.3 3.9 2.4 1.2 3.8-1.4.8-2.2.6-3.3-.7-3.7-4.3-3.3-5 2.1-3.1zm71.8 15.5c.3 7.3.1 12.4-.5 12.8-1.6.9-2.5-8-1.1-10.6 1.1-2.1 1.1-2.2-.5-.9-1.5 1.3-1.9 1.3-2.7 0-.5-.8-.7-2.3-.3-3.4.3-1.1.8-4.3 1-7 1.3-12.6 3.5-7.8 4.1 9.1zM179 88.8c7.9 3.9 9.3 6 6.7 9.6-1.4 1.8-1.8 1.6-8.5-4.5-6.3-5.7-8.6-8.9-6.4-8.9.4 0 4.1 1.7 8.2 3.8zm-47.7.7c2.3 1.9 5.6 4.6 7.2 5.9l3 2.5-3 3c-1.6 1.7-5.6 4.1-8.7 5.5l-5.6 2.5-4.1-2.9c-5.4-4-6.4-5.9-4.5-9.6 2-3.8 8.4-10.4 10.2-10.4.7 0 3.2 1.6 5.5 3.5zm107.3 3.2c-.1.1-1.1 0-2.3-.3-2.2-.6-2.2-2.4.1-5.3.8-1.1 1.2-.6 1.8 2 .3 1.9.5 3.5.4 3.6zM168 87.8c0 .4 3.2 3.4 7 6.7 3.9 3.3 7 6.3 7 6.7 0 1.3-9.1 6.8-11.2 6.8-.9 0-4.2-.9-7.3-2.1-6-2.2-6.6-3.4-4.2-9.2 2.3-5.4 8.7-12 8.7-8.9zm95.9 2.1c1.2 1.6 2.1 3.4 2.1 4.1 0 1.4-6.9 10-8 10-.4 0-1-1.9-1.2-4.3-.4-4.1 2.5-12.7 4.3-12.7.4 0 1.7 1.3 2.8 2.9zm-61.2-.3c.4 1.1-.2 2.3-1.8 3.5-2.9 2.2-3.1 2-2.3-1.9.7-3.4 3-4.3 4.1-1.6zm18.4 1.4c6.9 1.9 7.8 2.8 7.7 8.3 0 2.7.5 5.4 1.1 6 1.2 1.2 1.5 4.7.5 4.7-.3 0-2-1-3.6-2.2-2.3-1.6-4.7-2.2-9.7-2.3l-6.6-.1-.7-4.2c-.4-2.3-1-4.7-1.3-5.2-.4-.6.1-1.3.9-1.6.9-.3 1.6-1.2 1.6-2 0-1.6 3-3.5 4.7-2.9.6.2 3.1.9 5.4 1.5zm-116.7 2.4c-.3 1.4-.9 2.6-1.3 2.6s-.5 1.4-.3 3.1c.3 2.2.1 3-.7 2.5-1.3-.9-1.4-4-.2-6.4.5-.9 1.2-2.6 1.6-3.6.8-2.8 1.7-1.3.9 1.8zm149.6.1c0 1.3-.4 2.7-1 3-.6.4-1-.8-1-3s.4-3.4 1-3c.6.3 1 1.7 1 3zm18.4-.8c-1 4.1-1.6 4.7-2.6 3-.5-1.1-.4-2.4.4-3.7 1.8-2.9 3-2.5 2.2.7zM33.2 94.2c-.6.6-1.5.8-1.9.4-.4-.4-.1-1.1.7-1.6 1.9-1.2 2.7-.3 1.2 1.2zm-4.8.3c.4 1-.6 2-3.2 3.2-2 .9-4 1.9-4.4 2.1-.5.2-.8-.5-.8-1.6 0-1.7 2.2-3.2 7.6-5.1.1-.1.4.6.8 1.4zm50.6-.6c0 .5-.7 1.2-1.6 1.5-2.4.9-2.8.7-1.4-.9 1.4-1.7 3-2 3-.6zM98.5 95c-1.8 2-8.2 4.6-9.1 3.7-.6-.6 7.6-5.5 9.5-5.6 1.1-.1 1 .4-.4 1.9zm104.9 1.7c-.9 2.1-1.3 4.9-1 6.6.6 3 .6 3-1.4 1.2-3.4-3-3.5-5.4-.4-8.6 3.7-3.9 4.6-3.7 2.8.8zm89.6 9.8c-2.3 5.2-4.7 9.5-5.3 9.5-1.6 0-4.7-3.1-4.7-4.7 0-2.2 13.4-17.6 13.8-15.8.2.8-1.5 5.7-3.8 11zM87.5 95.9c1.9.8 1.9.8-.4 2-2.7 1.5-5.1.8-5.1-1.4 0-1.6 2.2-1.9 5.5-.6zm22.6 8.9c-.1 2.5-.4 4.8-.7 5.1-1.6 1.6-4.8-8.6-3.8-12.4l.6-2.5 2.1 2.6c1.4 1.9 2 3.9 1.8 7.2zm125.5-2.1c-1 1-4.6-2.3-4.6-4.2.1-1.8.3-1.7 2.6.9 1.4 1.5 2.3 3 2 3.3zm33.7-4.3c.3.8-1 3.5-2.9 6.1-2.9 3.7-3.8 4.4-5 3.4-2-1.7-1.8-2.6 1.7-7 3.2-4.1 5.3-4.9 6.2-2.5zm31.5 3.5c.3 3.9-.1 4.7-3.4 7.7-3.3 3.1-3.6 3.8-3.1 7.4.6 4.3.1 4.7-2.8 2.6-1.8-1.3-1.7-1.7 2.3-10.8 2.3-5.3 4.2-10.1 4.2-10.8 0-.6.6-1 1.3-.8.6.3 1.3 2.4 1.5 4.7zM98.7 99.5c-.4.8-.2 1.7.3 2 .6.4 1 1.4 1 2.3-.1 2.4-11.5 14.6-12.9 13.8-.6-.4-1.8-2.1-2.7-3.7-1.9-3.8-1-5 5.8-8.5 2.6-1.3 4.8-2.7 4.8-2.9 0-.3-1.8.4-4 1.5-4.4 2.3-6 2-6-1.1 0-1.4.7-1.9 2.8-2 1.5 0 4.3-.6 6.2-1.3 4.7-1.8 5.3-1.8 4.7-.1zm140.1.4c.3.8-.1 1.2-.9.9-.7-.2-1.5-1-1.7-1.7-.3-.8.1-1.2.9-.9.7.2 1.5 1 1.7 1.7zM19 102.6c0 3.9 3 9.7 5.8 11.4 1.4.8 1.5 1.1.3 1.9-2.3 1.5-8.8 2.2-11.5 1.1-2.2-.8-2.6-1.6-2.6-5.3 0-3 .8-5.6 2.7-8.5 3.4-5.2 5.3-5.4 5.3-.6zm9.3-.9c.9 4.9-3.2 7.3-5.4 3.1-1-1.8-.8-2.4 1.1-4 3-2.4 3.7-2.3 4.3.9zm50.7-.4c0 1.3-1.3 3.6-2.9 5.1l-2.9 2.8-1.7-2.6c-1-1.5-1.6-2.8-1.4-2.9.2-.2 1.7-1.3 3.3-2.5 3.7-2.8 5.6-2.8 5.6.1zm66-1c0 2.1-2.7 4.1-10.7 8.1-7.8 3.9-8.3 4-8.3 2.8 0-.5 2.4-1.8 5.3-3 3-1.3 6.9-3.8 8.7-5.7 3.6-3.7 5-4.3 5-2.2zm63.9 4.4c.1.7-.3 1.3-.9 1.3-.5 0-1-1.7-.9-3.8.1-3.3.2-3.4.9-1.2.4 1.4.8 3.1.9 3.7zm47.1-4.1c0 .8-.4 1.2-1 .9-.5-.3-1-1-1-1.6 0-.5.5-.9 1-.9.6 0 1 .7 1 1.6zm-53.5 8c2 1.3 2.5 2.4 2.5 6 0 5.6-1.6 5.7-6.4.4-3-3.3-3.6-4.8-3.6-8.3 0-5.6.9-6.4 3.1-2.8 1 1.7 3 3.7 4.4 4.7zm38.9-4.4c-.3.4 0 .8.5.8.6 0 1 1.2 1 2.7-.1 1.7-.3 2.1-.6 1-.2-.9-.9-1.7-1.4-1.7-.5 0-.9-1.5-.9-3.3 0-2.3.3-2.8.9-1.7.6.8.7 1.8.5 2.2zm-7.6-1c1.6 1.6 1.5 2.8-.3 2.8-.8 0-1.5-.2-1.5-.4s-.3-1.1-.6-2c-.7-1.9.7-2.1 2.4-.4zm38.2 2.2c0 1.3-.5 3.7-1.1 5.4-1 3-1.1 3.1-3.5 1.6-3-2-3-2.7.2-7 2.8-3.6 4.4-3.7 4.4 0zm-167.7-.4c.3 1.1.1 1.8-.4 1.4-.5-.3-.9-1.2-.9-2 0-2 .7-1.7 1.3.6zm15.7 3.4c1.1 1.4.6 1.9-3.1 3.6l-4.4 1.9-.3-4.1c-.5-6.3.2-7.3 3.6-4.9 1.6 1.1 3.5 2.7 4.2 3.5zm-37.3-2.2c-.3.8-.6.5-.6-.6-.1-1.1.2-1.7.5-1.3.3.3.4 1.2.1 1.9zm172.5-1c.6 1.7-.1 3.8-1.3 3.8-.5 0-.9-1.1-.9-2.5 0-2.6 1.4-3.4 2.2-1.3zm-7.4 4.6c.2 2.5-.1 4.2-.7 4.2s-1.1-.6-1.1-1.4c0-.7-.3-2.8-.7-4.6-.5-2.5-.3-3.2.8-2.8.8.3 1.5 2.2 1.7 4.6zm-177.2-1.3c1.5 2.3 1.5 2.7 0 5-3.1 4.7-10.9 6.2-12.2 2.3-.5-1.8.2-2.9 3.7-6 5.2-4.5 6.3-4.6 8.5-1.3zm9.4-.7c0 1.1-1.1 2.4-2.5 3-2.9 1.3-3.2.6-.9-2.6 1.8-2.7 3.4-2.9 3.4-.4zm22 1.1c0 1.9-7.2 9.1-9 9.1-1.8 0-1-1.7 3.1-6.8 4.2-5.1 5.9-5.8 5.9-2.3zm61.3-.9c4.2 1.6 4.6 2.5 1.6 4-2.8 1.6-4.5.7-5.7-3-.7-1.7-.8-3-.4-2.8.4.2 2.4 1 4.5 1.8zm21.7-1.3c0 1.2-3.3 4.3-4.7 4.3-2 0-1.6-1.7.9-3.4 2.4-1.7 3.8-2 3.8-.9zm52.7 1.4c.2 1.7-.1 1.8-1.3.8-1.3-1.1-1-2 1.1-2.9.1 0 .1.9.2 2.1zm-16.5-.1c4.2 1.2 6.7 3.7 2.6 2.7-1.3-.4-4.1-.2-6.2.4-3.2.9-4.1.8-5.5-.6-1.4-1.4-1.4-1.7-.1-2.5 1.9-1.3 4.6-1.2 9.2 0zm103.8 1.9c3.6 2.6 4.8 6.6 3 9.8-2.3 4-3.7 3.9-3.2-.2.5-4.6-1.8-8.1-7.1-10.7l-4.2-1.9 4.5.6c2.5.3 5.6 1.4 7 2.4zm-64.5-.9c.8 1.2-2.6 5.9-4.2 6-1.6 0-1.7-2.4-.3-5.1 1.1-2 3.5-2.5 4.5-.9zm14.4 6.3c.1 1.9-.3 2.7-1.1 2.5-1.5-.5-2.3-5.2-1.3-7.6.6-1.5.8-1.5 1.5.3.5 1.1.9 3.3.9 4.8zm31.4-5.7c.8.9-1.1 4.4-2.3 4.4-.6 0-1-1.1-1-2.5 0-2.3 1.8-3.4 3.3-1.9zm9.4.5c4.6 1.7 7.3 4.9 7.3 8.5 0 1.8-.4 3.6-1 3.9-.5.3-1-.3-1-1.4 0-3.5-4.1-7.2-8.8-7.8-3.8-.5-5.2-1.9-3.5-3.6.9-1 3.8-.8 7 .4zM187 111.2c0 .7-.5 2-1 2.8-.9 1.3-1.1 1.3-1.9 0-.6-.9-.6-1.9.1-2.7 1.3-1.7 2.8-1.7 2.8-.1zm50.4.9c1.9 1.5 2.6 3 2.7 5.7.1 3.7.1 3.7 1.1.9.5-1.5 1.4-2.5 1.9-2.1 1.6 1 1 4.3-1.1 5.6-1.1.7-2 1.8-2 2.4 0 .6-.9 1.9-2 2.9-2.4 2.2-2.5 1.8-.5-2.3 1.4-2.8 1.4-3.4.1-6-.9-1.7-2.8-3.9-4.2-4.9-1.6-1.2-2.4-2.5-2-3.1 1.1-1.8 3-1.5 6 .9zM105 112c0 .9-3.2 3-4.6 3-.4 0 .1-.9 1.1-2 1.9-2.1 3.5-2.6 3.5-1zm67-.6c0 .5-6.5 4.6-7.4 4.6-1.7 0-.2-1.8 2.7-3.3 3.3-1.6 4.7-2 4.7-1.3zm130 1.6c0 .5-.5 2.1-1.1 3.7-.9 2.4-1.2 2.6-2 1.1-1.1-2 .6-7.2 2.1-6.3.5.3 1 1 1 1.5zm-178-.2c0 .5-1.3 2-2.8 3.5-2.8 2.7-2.9 2.7-4.7.7-1.7-1.9-1.7-2 1.6-3.4 3.9-1.7 5.9-2 5.9-.8zm54.4 0c.8 1.3-9.3 7.4-11.1 6.8-1.8-.7-1.8-.7 3.3-4.6 3.9-2.9 6.8-3.7 7.8-2.2zm90.5 3.7c2.5 2.8 4.1 5.4 4.1 7 0 1.4-.2 2.5-.5 2.5-1.4 0-12.3-6-13.4-7.4-1-1.2-.9-2 .6-4 2.6-3.6 4.5-3.2 9.2 1.9zm-183.8 1.7c.7 1.3.4 2-1 2.8-3.4 1.7-4.9 1.2-5.6-2.2-.6-2.5-.3-3.5 1.1-4.5 2-1.4 2.9-.7 5.5 3.9zm137.3-4.6c2.5 1 1.9 2.6-.6 1.9-3.1-1-4.7-2.5-2.6-2.5.9 0 2.3.3 3.2.6zm28.6.4c0 .5-.5 1-1.1 1-.5 0-.7-.5-.4-1 .3-.6.8-1 1.1-1 .2 0 .4.4.4 1zm32.5 1.7c2.8 3.2 3.1 5.1 1.1 7.8-2.3 3.2-4.6.3-4.6-5.6 0-2.7.2-4.9.5-4.9s1.7 1.2 3 2.7zm-174.9 7.9l.1 7.6-4.4 4.2c-4.3 4.2-15 11.3-15.8 10.5-.2-.2 2.2-2.4 5.3-4.9 3.1-2.5 5.8-5.4 6-6.5.2-1.2-1.2-3.8-3.3-6.2-1.9-2.3-3.5-4.4-3.5-4.8 0-2.5 12.7-9.7 14.5-8.2.6.4 1.1 4.2 1.1 8.3zM75 115.4c0 .2-.7.7-1.6 1-.8.3-1.2.2-.9-.4.6-1 2.5-1.4 2.5-.6zm107.5 1.6c0 .8-2.2 3-4.9 4.8-4.5 3-5.1 3.1-6.5 1.7-1.4-1.4-1.4-1.7-.1-2.5.8-.5 3.1-2 5-3.4 3.8-2.7 6.5-3 6.5-.6zm36.1 3.8l-2.6 2.6-2-2c-1.8-1.8-1.9-2.1-.4-4.2 1.4-2.1 1.6-2.1 4.6-.6l3.1 1.6-2.7 2.6zM229 116c0 .5-.2 1-.4 1-.3 0-.8-.5-1.1-1-.3-.6-.1-1 .4-1 .6 0 1.1.4 1.1 1zm85.5 0c1.6.7 1.3.9-1.7.9-2.1.1-3.8-.4-3.8-.9 0-1.2 2.7-1.2 5.5 0zM51 120.2c-2.2 4.9-3.3 5.4-3.8 1.9-.3-1.7.4-3 2-4.3 3.5-2.7 3.9-2.2 1.8 2.4zm6-1.9c0 2.2-4.5 7.6-5.4 6.6-.8-.8 3.2-8.9 4.4-8.9.5 0 1 1 1 2.3zm102.7 2.1c-1.5 1.4-2.7 3.6-2.7 5 0 5.9-3.5 7.6-6.4 3.1-2.4-3.7-1.2-6.1 4.7-9.5 6-3.4 8.6-2.5 4.4 1.4zm50.5-1.4c-.6 1.6-1.1 2-1.6 1.1-.4-.6-.2-1.9.5-2.7 1.6-2 2.1-1.2 1.1 1.6zm22.8-.4c0 .8-.4 1.2-1 .9-.5-.3-1-1.3-1-2.1s.5-1.2 1-.9c.6.3 1 1.3 1 2.1zm74-1.7c0 .5-.7 1.4-1.5 2.1-.8.7-1.5 1.9-1.5 2.6 0 .8-.4 1.4-1 1.4-1.5 0-1.2-2.2.6-4.8 1.5-2.2 3.4-2.9 3.4-1.3zm-183 .9c0 .5-.9 1.7-2 2.7-2.3 2.1-2.6 1.4-.8-1.5 1.3-2 2.8-2.7 2.8-1.2zm153.7 2.4c-.3.7-.5.2-.5-1.2s.2-1.9.5-1.3c.2.7.2 1.9 0 2.5zM78 122.3c0 .5-.7.4-1.5-.3s-1.5-2-1.5-2.9c.1-1.3.3-1.3 1.5.3.8 1.1 1.5 2.4 1.5 2.9zm170.4-2.8c-.4.8-.8 1.5-1 1.5-.2 0-.4-.7-.4-1.5s.4-1.5 1-1.5c.5 0 .7.7.4 1.5zm68.5 1c2.4 2.3.6 4.5-3.9 4.5-2.2 0-4-.5-4-1.1 0-.6-.9-.8-2.1-.4-1.7.6-2 .3-1.7-1.2.2-1 1-1.8 1.8-1.8s2.1-.6 2.9-1.3c1.4-1.4 4.8-.8 7 1.3zm-93.3 1.4c-.4.6-1.7 1.1-2.8 1.1-2.1 0-2.1-.1-.3-2 1.9-2.1 4.4-1.3 3.1.9zm30.1-1.2c.3 1 2.1 3.5 4 5.6 3.2 3.6 4.3 6.7 2.4 6.7-2.1 0-9.6-6.7-9.9-8.9-.7-4.4 2.1-7.1 3.5-3.4zm-191.4 1.5c-1.3 1.2-2.5 1.9-2.9 1.5-1-1 1.6-3.7 3.4-3.7 1.3 0 1.2.4-.5 2.2zm12.7 2.5c0 1.7-.5 1.6-3.6-.4-2.5-1.6-2.5-1.7-.8-3 1.6-1.2 2.1-1.1 3.1.4.7.9 1.3 2.3 1.3 3zm40.2-2.2c.8 1.9.8 2.8-.3 4.1-1.2 1.5-1.4 1.5-2-.7-1.7-5.8 0-8.3 2.3-3.4zm49.8-1.1c0 1.2-4 4.6-5.5 4.6-1.1 0-.4-2.4 1.2-4.2 1.9-2.1 4.3-2.4 4.3-.4zm-134 3.3c0 5.4-1.8 11.3-3.7 12-1.9.7-5.3-3-5.3-5.8 0-1.9 6.5-9.9 8.1-9.9.5 0 .9 1.7.9 3.7zm232.5-.6c5.6 3.1 7.2 4.6 6.1 5.6-1.4 1.4-12.6-5.5-12.6-7.8 0-1.4.6-1.2 6.5 2.2zm29.2-1.9c1.5.7 3 1.3 3.2 1.5.2.1-.4 1.4-1.3 2.8-1.8 2.8-4.2 3.1-7 1-1.6-1.2-1.8-1.9-.8-4 1.3-2.8 2-3 5.9-1.3zm-203.7.4c0 .4-1.5 2.5-3.3 4.8-1.9 2.3-3.9 5.2-4.6 6.4-.7 1.3-1.5 2.2-1.8 1.9-.6-.6 7.9-13.7 9-13.7.4 0 .7.3.7.6zm93 0c0 1.5-3.6 6.4-4.7 6.4-2.6 0-2.5-2.4.3-4.7 2.9-2.3 4.4-2.9 4.4-1.7zm24.5 2.5c1.6 3 6.5 5.9 10.2 5.9 1 .1 2.9 1 4.2 2 1.9 1.6 2.2 2.7 1.8 5.3-.5 2.8-.5 2.9.5.9 1.2-2.3 3.2-2.9 4.3-1.2.4.6-.1 3-1 5.5-1.2 2.9-1.5 5.6-1.1 8 .8 4 .6 4.1-3.6 1.9-1.7-.9-7.9-3.4-13.7-5.6-17.1-6.4-18.7-9.6-9.8-19.7 2.8-3.3 5.5-6 5.9-6.1.4 0 1.5 1.4 2.3 3.1zm38 3c-1 2.7-1.4 5.8-1.1 8.2.5 2.9.3 3.9-1 4.4-2.2.8-8.6-2.4-8.2-4.2.5-2.5 10.2-14.4 11.1-13.6.4.4 0 2.7-.8 5.2zm-201-4c.8 1.2-2.3 4.9-4.1 4.9-1.9 0-2.3-2.3-.6-4.3 1.7-1.9 3.8-2.2 4.7-.6zm36.4 7c-2.7 4.4-5.4 9-5.9 10.2-.6 1.2-1.4 2.9-1.9 3.7-.5.8-1.5 3-2.1 4.7-.7 1.8-1.6 3.3-2.1 3.3-.9 0-1.1-.6-1.3-3.3-.1-.6-.5-1.5-1-1.8-1.9-1.4.6-7 4.2-9.3 4.9-3.1 7.8-6.4 9.6-10.8 1.4-3.2 2.6-4.5 4.8-4.7.4-.1-1.5 3.5-4.3 8zm87.3-2.1c-3.9 3.5-4.8 3.7-6.1 1.1-.9-1.5-.4-2.3 2.7-4.5 3.2-2.3 3.8-2.4 5.1-1.1 1.4 1.3 1.2 1.8-1.7 4.5zm63.6-4.2c.2.7-.3 1.2-1.2 1.2-.9 0-1.6-.7-1.6-1.6 0-1.7 2.2-1.4 2.8.4zm47.2 1.5c0 1.8-.2 1.9-1 .7-1.3-2-1.3-4.3 0-3.5.6.3 1 1.6 1 2.8zm-63.2-.2c1.2.5 2.2 1.4 2.2 2 0 1.7-5.1.1-7.5-2.3l-2-2 2.5.7c1.4.4 3.5 1.1 4.8 1.6zM56 125.4c0 .2-.8 1-1.7 1.7-1.6 1.3-1.7 1.2-.4-.4 1.3-1.6 2.1-2.1 2.1-1.3zm14.5.9c1.7 1.3 1.6 1.6-1.8 5.3l-3.6 3.9-.1-3.3c0-3.4 1.5-7.2 2.8-7.2.5 0 1.6.6 2.7 1.3zm228.1 1.9c-.8 4-1.1 4.3-3.7 3.2l-2-.9 2.1-2.8c2.9-3.7 4.4-3.5 3.6.5zm-250.3.5c.6 3.1-1.1 7.4-3 8.1-2 .6-1.5-1.9 1-4.7l2.2-2.6-2.8 2.4c-2.1 1.9-3 2.2-3.9 1.3-.9-.9-.5-1.9 1.7-4.2 3.5-3.7 4.1-3.7 4.8-.3zM60 128c-.6 1.1-1.3 2-1.6 2-.2 0 0-.9.6-2s1.3-2 1.6-2c.2 0 0 .9-.6 2zm34.9 1.5c1.7 2 3.1 4 3.1 4.5 0 1-7.3 7.4-11.9 10.3-3.6 2.2-3.8 1.5-1.1-4.7 2.9-6.8 1.5-5.6-2.4 2.1-2.8 5.7-8.3 12.3-10.1 12.3-.9 0 3.5-9.2 6.7-13.8C83.5 133.8 90 126 91 126c.4 0 2.2 1.6 3.9 3.5zm187.2-2.2c-.1 1.2-1.5.9-1.9-.4-.3-.6.1-1 .8-.8.6.3 1.1.8 1.1 1.2zM33 132c-1.7 3.2-2.2 1.8-.8-2.1.8-2.2 1.3-2.8 1.6-1.7.2.9-.2 2.7-.8 3.8zm190.5-4c.4.6-.5 1-1.9 1s-2.6-.5-2.6-1c0-.6.9-1 1.9-1 1.1 0 2.3.4 2.6 1zm80.9.5c2 1.5 2 1.6-.3 6.1-2.1 4.4-2.3 4.5-3.6 2.8-1.7-2.3-1.8-4.4-.5-7.8 1.1-3 1.7-3.1 4.4-1.1zm-241.2 3c-.4 3.4-2.4 4.7-3.7 2.5-.7-1.2 2-6 3.3-6 .4 0 .6 1.6.4 3.5zm111.3-2.1c1.7 1.3 1.8 1.7.6 4-1.8 3.2-4.3 4.1-7 2.4-2.8-1.7-2.6-3.2.5-5.7 3.2-2.5 3.4-2.5 5.9-.7zm56.9 1.9c-1 3.2-2.4 4.6-4 4-2-.7-1.7-3 .6-5.3 2.5-2.5 4.3-1.7 3.4 1.3zm15.6 1.2c0 2.5-.4 4.5-1 4.5-1.1 0-1.4-4.9-.4-7.4 1-2.6 1.4-1.8 1.4 2.9zm3.1-1.8c.7 1.8.6 3-.1 3.7-.7.7-1 .3-1-1.1 0-1.2-.3-2.8-.6-3.7-.3-.9-.3-1.6 0-1.6.4 0 1.1 1.2 1.7 2.7zm39.4.3c.8 1.3.3 1.3-3 0-1.4-.5-2.3-1.4-2-2 .7-1.1 3.9.2 5 2zm-24.5-.5c3.2 1.7 3.8 3 1.7 3.8-1.8.7-3.1-.2-4.6-3.1-1.4-2.6-1-2.7 2.9-.7zm10 .6c0 .5-.4.9-1 .9-.5 0-1-.7-1-1.6 0-.8.5-1.2 1-.9.6.3 1 1 1 1.6zm-238-.7c0 .3-.4.8-1 1.1-.5.3-1 .1-1-.4 0-.6.5-1.1 1-1.1.6 0 1 .2 1 .4zm124 2.1c.8.9.8 1.5.2 1.5-1.8 0-4.2-1.2-4.2-2.1 0-1.4 2.6-1 4 .6zm64-.5c0 .5-.4 1-.9 1-.6 0-1.3-.5-1.6-1-.3-.6.1-1 .9-1 .9 0 1.6.4 1.6 1zm54.8.8c.2.7-.3 1.2-1.2 1.2-.9 0-1.6-.7-1.6-1.6 0-1.7 2.2-1.4 2.8.4zm14.8.7c1 .8 1.4 1.5.8 1.5-.5 0-1.9-.7-3-1.5-1-.8-1.4-1.5-.8-1.5.5 0 1.9.7 3 1.5zm-254.6 1c1.1 1.3.8 2.1-1.5 4.5-1.5 1.6-3.2 2.7-3.7 2.4-1.4-.9-.9-4.6.9-6.6 2-2.2 2.7-2.2 4.3-.3zm140.4.7c1.9 2.6 2.1 9.6.4 13.3-1.8 3.9-3.3 2.4-3-2.9.3-3.4-.1-5.3-1.3-6.6-1.4-1.5-1.4-2.1-.3-3.9 1.6-2.7 2.3-2.6 4.2.1zm79.6 3c0 .9-1.5 2.9-3.2 4.4l-3.3 2.7-.3-4.8c-.5-7 .1-7.8 3.8-5.7 1.6.9 3 2.4 3 3.4zm11-2.2c0 3.1-1.6 4.1-2.6 1.5-.5-1.3 1.1-4.5 2.2-4.5.2 0 .4 1.3.4 3zm-216.7.5c-.3.9-.8 1.4-1 1.1-.3-.3-.2-.9.2-1.5.9-1.6 1.5-1.3.8.4zm59.6.6c1.2 2 1.1 2.1-1.1 1.6-1.2-.4-3.1-.7-4.2-.7-1.5 0-1.6-.3-.6-1.5 1.8-2.1 4.3-1.9 5.9.6zm45.8-1c4 1.3 7.3 8 5.3 10.5-2.4 2.8-8.6 5.4-9.9 4.1-1.2-1.2-1.5-11.4-.5-14.1.7-1.9 1.2-1.9 5.1-.5zm115.3 1.4c0 1.4-.4 2.5-1 2.5-.5 0-1-1.1-1-2.5s.5-2.5 1-2.5c.6 0 1 1.1 1 2.5zm18.6-1c2.4 1.8.7 1.9-2.6 0-1.6-.9-1.9-1.4-.9-1.5.8 0 2.4.7 3.5 1.5zm-231.7 1c1.1 1.1-1.2 3.4-3.9 4-3.9.9-4.4.4-2.8-2.9 1-2.3 1.6-2.6 3.7-2.1 1.4.4 2.8.8 3 1zm190.1 3.1c0 3.6-.8 4.2-2.8 2.2-1.5-1.5-1.5-4.1 0-5.6 1.7-1.7 2.8-.5 2.8 3.4zm26.3-1.6c-.7 2.8-1.3 2.5-1.3-.6 0-1.4.4-2.3.9-2 .5.3.7 1.5.4 2.6zm-236.8 2c-1.7 1.9-4.5 2.7-4.5 1.3 0-.4 1-1.7 2.2-3 2.8-3 5.1-1.4 2.3 1.7zm249-2.8c2.4 1.1 3.3 3.7 1.8 5.1-.9.9-5.3-3.3-5.3-5 0-1.6.2-1.6 3.5-.1zM32 139c0 .5-.2 1-.4 1-.3 0-.8-.5-1.1-1-.3-.6-.1-1 .4-1 .6 0 1.1.4 1.1 1zm136.8 1.4c.3 1.2-.1 1.7-1 1.4-.7-.3-1.5-1.3-1.6-2.2-.3-1.2.1-1.7 1-1.4.7.3 1.5 1.3 1.6 2.2zm114.2-1.8c0 1.4-2.2 4.4-3 3.9-1.3-.8 0-4.5 1.6-4.5.8 0 1.4.3 1.4.6zm-14.9 2.8c.9 1.9.8 3.2-.7 6.2-2 4-4.4 5.6-4.4 2.9 0-.9-.5-1.3-1-1-.6.4-2.3-.1-3.7-1l-2.6-1.7 3.9-3.9c4.5-4.4 7-4.9 8.5-1.5zm-92.3 1.6c.1 1.4-.2 3.1-.7 3.9-1.4 2.2-3.1.3-3.1-3.5 0-2.8.4-3.5 1.8-3.2 1 .2 1.8 1.4 2 2.8zm63.2.2c0 .4-1.3 2.9-3 5.5-1.6 2.6-3 5.3-3 6 0 .7-.3 1.3-.7 1.3-1.2 0-4.3-3.3-4.3-4.5 0-1.4 3.5-9.7 4.5-10.7.8-.7 6.5 1.4 6.5 2.4zm50 2.9c0 .5-1.3.3-3-.6-3.3-1.7-3.3-1.6-2.3-4.1.6-1.5.9-1.4 3 1 1.3 1.5 2.3 3.1 2.3 3.7zM28 148c0 4.8-.4 7.2-1.2 7.5-.7.2-4 1.1-7.2 2-7 2-11.2 5.7-12.2 11-1.3 7.1 3.1 12.4 11.6 14l3.5.6.1 8.1.1 8.2-6.8-7.2c-5.2-5.4-7.1-8.3-8.3-12.3-3.8-12.7-1-21.4 10.2-32.2C27 138.9 28 139 28 148zm18-5.8c0 .7-1 2.6-2.3 4.1l-2.2 2.9-.3-2.8c-.1-1.5.3-3.3.9-4 1.4-1.7 3.9-1.8 3.9-.2zm-13.4 1.3c.4.8.1 2.2-.6 3-.7.9-1 1.8-.6 2.2.3.3.6.1.6-.5 0-.7.5-1.2 1.1-1.2.8 0 .8.4-.1 1.4-1.7 2.2-4 .8-4-2.3 0-4 2.4-5.7 3.6-2.6zm213.1 3.7c-.5 5.3-3.1 11.7-5.1 13-.6.4-1.7.1-2.4-.6-1.1-1.1-1.1-2 .3-5.2 2-4.9 6.4-12.4 7.2-12.4.3 0 .3 2.4 0 5.2zm28.5-3.7c.1 3.2-1.4 12.5-2 12.5-.4 0-1.3-.4-2-.9-1.2-.7-.7-5.1 1.4-11.9.4-1.5 2.5-1.2 2.6.3zm23.6-.2c.7.8.7 1.8.2 2.7-.8 1.3-1.1 1.3-2.6-.2-.9-.9-1.3-2.1-1-2.7.9-1.5 2.1-1.4 3.4.2zM63 146.8c0 2.1-.6 4.4-1.2 5.1-.9.9-.9 1.2-.1.7.8-.4 1.2 1.3 1.5 5.9.1 3.6.1 6.5-.2 6.5-.9 0-6-6.9-6-8.1 0-.6.6-.9 1.3-.6.8.3 1.3-.3 1.3-1.4 0-1.1-.4-1.9-.8-1.9-.7 0-4.8-7.2-4.8-8.4 0-.5 3.4-1.3 6.8-1.5 1.9-.1 2.2.4 2.2 3.7zm187-.4c0 .8-.7 1.9-1.5 2.6-1.3 1-1.5.9-1.5-1.2 0-1.4.3-2.8.6-3.1.9-.9 2.4.2 2.4 1.7zM44.2 169.7c-3.8 6.7-6.4 8.8-7.5 5.9-.4-.9.8-3.2 2.8-5.6 4.4-5.2 4.9-7.2 3.1-10.9-2.2-4.2-2-5.1 1.7-10.1l3.2-4.5.3 9.2c.3 9.1.2 9.3-3.6 16zM280 148c0 1.7.9 4.9 2.1 7.2 1.9 3.7 1.9 4.2.5 5.6-1.4 1.4-1.7 1.4-3.6-.3-2.1-1.9-2.6-6.3-1.4-12.4.8-4 2.4-4 2.4-.1zm6-.5c3.5 1.8 3.5 1.6 1.2 5.5-1.8 2.8-2 2.9-3.4 1.3-2.1-2.3-3.4-8.3-1.8-8.3.6 0 2.4.7 4 1.5zm-247 1c0 .8-.4 1.5-1 1.5-.5 0-1-.7-1-1.5s.5-1.5 1-1.5c.6 0 1 .7 1 1.5zm18 5.2c0 2.5-1.8 1.3-2.9-1.8-1.7-4.8-1.3-5.7.9-2.4 1.1 1.6 2 3.6 2 4.2zm112-5.7c0 .5-.4 1-1 1-.5 0-1-.5-1-1 0-.6.5-1 1-1 .6 0 1 .4 1 1zm126.5 1c.3.5-.1 1-.9 1s-1.8-.5-2.1-1c-.3-.6.1-1 .9-1s1.8.4 2.1 1zm-243.4 4.1c.9 2.9 1 4.6.2 5.7-1.8 2.9-2.8 1.4-3.1-4.3-.4-6.5 1.2-7.3 2.9-1.4zm205.9-2.6c2 1 3 2.3 3 3.8 0 1.7.2 1.9 1 .7.5-.8 1.1-1.2 1.5-.9.4.5-3.9 11.6-4.9 12.6-.5.5-11.1-2.9-12.3-3.9-1.7-1.4.1-5.5 4.5-10.1 2-2 3.8-3.7 4-3.7.1 0 1.6.7 3.2 1.5zm40 1.1c0 .8-.5 1.2-1 .9-.6-.4-.8-1.1-.5-1.6.9-1.4 1.5-1.1 1.5.7zm-262 .1c0 1-4.2 5.3-5.2 5.3-1.3 0-.9-2.2.9-4.2 1.6-1.8 4.3-2.5 4.3-1.1zm257.3.1c.6.8-4.2 6.7-4.8 6-.3-.2.1-1.9.7-3.6 1.2-3 3.1-4.1 4.1-2.4zm-226.7 7.4l-1.4 3.3-.1-5.5c-.1-5.1 0-5.3 1.4-3.3 1.4 1.9 1.4 2.6.1 5.5zm95.1-6.6c-.3.3-1.2.4-1.9.1-.8-.3-.5-.6.6-.6 1.1-.1 1.7.2 1.3.5zm140.6 2.5c-.2 1.3-.6 3.5-.9 4.9-.7 2.4-.7 2.4-1.4-.8-.9-4-.2-7.4 1.4-6.9.6.2 1 1.5.9 2.8zM76.8 157c-1.1 4.1-2.4 5.1-3.4 2.6-.6-1.5 2.2-6.6 3.6-6.6.4 0 .3 1.8-.2 4zm219.6-2.2c.7 1.1-3.1 7.2-4.4 7.2-2 0-2.2-2.9-.3-5.4 1.8-2.6 3.8-3.3 4.7-1.8zm13.6 6.4c1.2 5 .8 13.5-.7 16.3-.7 1.1-1.7.2-4.6-4.2l-3.8-5.7 2.7-6.2c1.7-3.8 3.2-6 4-5.7.7.2 1.8 2.7 2.4 5.5zm-275-3.1c-.7 1.1-1.4 1.8-1.7 1.5-.3-.3 0-1.2.7-2.1 1.8-2.1 2.3-1.9 1 .6zm5.8 1.4c.7 1.4 1.2 3 1.2 3.5 0 1.6-6.2 8-7.1 7.4-1.7-1-1-8.1 1.2-10.8 2.6-3.2 3.3-3.3 4.7-.1zm231.3 6c.3 4.4.9 8.8 1.4 9.8 1 2.3-.4 12.9-1.6 12.2-.5-.4-.9-2.9-.9-5.7 0-4.7-.4-5.4-4-8.9-2.2-2.1-4-4.5-4-5.3 0-.9 1-3.6 2.2-6.1 1.7-3.5 2.7-4.5 4.3-4.3 1.8.3 2.1 1.3 2.6 8.3zm26.5-1.9c-.4 1.3-1.1 2.4-1.7 2.4-1.7 0-2.2-3.1-.8-5.6 1.1-2.1 1.4-2.3 2.2-.9.5.9.6 2.7.3 4.1zm-277.2-.9l-2.6 3.8 3.6-4c2.2-2.5 3.6-3.4 3.6-2.4 0 1.7-5 6.9-6.7 6.9-3.6 0-1.9 5.1 2.4 7.2 3 1.4 3.8 3.5 2.4 5.7-1.4 2.1-10.6-.4-13.1-3.6-2.7-3.5-2.5-4.9 1-6.2 1.7-.5 3-1.2 3-1.5 0-.3-1.2-.1-2.6.5-3.6 1.3-4 .6-1.7-3.3 2-3.5 7.3-6.8 11.1-6.8h2.3l-2.7 3.7zm69.4-.8c4.1 2.2 4.2 11.1.2 11.1-1.1 0-2-.7-2-1.5s-.4-1.5-1-1.5c-1.9 0-8.9-5.5-9-7.1 0-3.5 6.1-4.1 11.8-1zm225.6.2c3.3 3.8 3.7 8.3 1.4 14.4-1.4 3.5-9.9 18.5-10.5 18.5-1.1 0 1.1-10.9 3.1-15.5 1.6-3.8 2.1-6.9 2-12.8-.1-4.2.2-7.7.7-7.7.4 0 1.9 1.4 3.3 3.1zM62 168.3c0 .8-1.5 3.1-3.3 5.2l-3.4 3.9-1.8-2.7c-1.7-2.6-1.7-3 .1-8.7l1.9-6.1 3.3 3.6c1.7 1.9 3.2 4.1 3.2 4.8zm214.9-2.7c1.1 3.3 1.1 4.6.1 6.4-1.8 3.3-3 .8-3-6.5 0-6.4.9-6.4 2.9.1zm-224.3-3c-.3.9-.6 2-.6 2.5s-.4.9-1 .9c-1.1 0-1.4-3.3-.3-4.3 1.2-1.3 2.5-.7 1.9.9zm22.4 3.1c0 3-.2 3.4-1.5 2.3-.8-.7-1.5-2.5-1.5-4.1 0-2.1.4-2.7 1.5-2.3.9.4 1.5 1.9 1.5 4.1zm-45-2c-.1 1-.7 2.9-1.5 4.3l-1.4 2.5-.1-3.6c0-2 .3-3.9.7-4.2 1.2-1.3 2.3-.7 2.3 1zm201-.5c0 1.9-1.8 4.3-2.5 3.6-.4-.3-.2-1.6.5-2.7 1.2-2.4 2-2.7 2-.9zm59.7.8c.2.8-.7 3.1-1.9 5l-2.2 3.5-.9-3.8c-.7-2.7-.6-4.2.4-5.3 1.5-1.8 4.3-1.5 4.6.6zm-10.7.6c0 .8-.4 1.2-1 .9-.5-.3-1-1-1-1.6 0-.5.5-.9 1-.9.6 0 1 .7 1 1.6zm-207 6.1c1.8 2.3 2 4.1 2 14.9 0 7.4-.4 12.4-1 12.4-.5 0-1.7-1.1-2.6-2.5-1.4-2.2-1.5-3.2-.6-6.4 1-3.1.8-5-.8-10.9-2.1-7.4-2.5-12.3-1.3-13.6.4-.4 1.1.3 1.5 1.5.5 1.1 1.7 3.2 2.8 4.6zm160.7-4.5c-.3.8-.6.5-.6-.6-.1-1.1.2-1.7.5-1.3.3.3.4 1.2.1 1.9zm-208.1 4.4c-.3.8-1 1.4-1.6 1.4-1.4 0-1.3-2.7.2-5.3l1.3-2.2.3 2.3c.2 1.3.1 3-.2 3.8zm221.9-4.6c.3.5.2 1-.4 1-.5 0-1.3-.5-1.6-1-.3-.6-.2-1 .4-1 .5 0 1.3.4 1.6 1zM49 167.8c0 1-1.1 2.9-2.5 4.2-2.9 2.8-3.1 2.3-.8-2.5 1.8-3.8 3.3-4.6 3.3-1.7zm32.9.4c3.1 1.9 3.3 2.3 1.6 2.6-1.1.2-2.5.8-3.2 1.4-1.3 1-3.3-1.8-3.3-4.6 0-2.1.6-2 4.9.6zm213.8-1.1c2.1 2.1-4.1 11-6.6 9.4-1.6-.9-1.4-2.1 1.4-6.5 2.7-4.3 3.4-4.7 5.2-2.9zm-53 .5c-.3.3-1.2.4-1.9.1-.8-.3-.5-.6.6-.6 1.1-.1 1.7.2 1.3.5zm10.7 0c.9.3 1.3 1.1 1 1.6-.4.6.2.7 1.6.3 2.1-.7 2.2-.5 1.7 2.1-.4 1.6-.4 2.3-.1 1.6.8-1.8 2.4-.5 2.4 2 0 1.1 1 3.7 2.2 5.6 2.3 3.8 1.7 3.7-3.9-.4-1.8-1.4-3.4-3.7-3.8-5.5-.4-1.8-1.9-4.2-3.4-5.5-2-1.8-2.2-2.3-.9-2.4.9 0 2.3.3 3.2.6zm31 4.3c-.9 1-2.6-1.8-1.8-3 .5-.9.9-.8 1.4.7.4 1 .6 2.1.4 2.3zm-33.9.2c.4.6.4 1.3.1 1.6-.7.7-4.6-2.6-4.6-3.9 0-1 3.6.8 4.5 2.3zm-217-1c.8 1.2-3.4 6.1-4.6 5.3-1.5-.9-1-4.3.9-5.3 2.2-1.3 2.9-1.3 3.7 0zm212.9 2.4c1.5 1.9 2.5 3.9 2.2 4.4-.4.5.3.7 1.4.4 2.6-.7 3.4 1.5 2.6 7-1 6.7-2 7.6-5.1 4.7-1.8-1.7-2.5-3.2-2.2-4.8.3-1.7.1-2-.6-1.3-2 2-3.5 1.1-5.6-3.4-2.1-4.5-2.7-8.6-1.4-9.8 1.9-1.9 6.2-.5 8.7 2.8zm54.2-1.6c1.5-.5 5.4 6.2 5.4 9.1 0 3.1-7 10.3-9.3 9.4-.8-.3-1.4-2-1.5-4.1-.1-2-.6-4.1-1.2-4.7-.5-.5-1-1.6-1-2.4 0-2.1 5.4-9.2 6.1-8 .3.5 1 .8 1.5.7zM62.9 179l-1.2 7.3-2.9-3.2-2.8-3.2 3.7-4.4c2-2.5 3.8-4.3 4-4.1.2.2-.2 3.6-.8 7.6zm169.8-4.3c-.3 1-.5.4-.5-1.2 0-1.7.2-2.4.5-1.8.2.7.2 2.1 0 3zm-180.8.5c1.1 3.1 1 3.4-3.9 8.3l-5 5v-5.3c0-4.6.4-5.6 3.3-8.2 1.7-1.6 3.5-3 3.9-3 .3 0 1.1 1.4 1.7 3.2zm214.6-.6c1.8 1.9 2.5 3.8 2.5 6.5 0 2.2-.2 3.9-.5 3.9-1.3 0-6.5-8.6-6.5-10.7 0-3 1.5-2.9 4.5.3zm16.5-1.1c.8.9 1 2.8.6 5-.8 4-1.2 4.2-3.8 1.8-2.1-1.8-2.4-5.3-.6-7.1 1.6-1.6 2.3-1.5 3.8.3zM69.3 184.8c0 5.2-1.4 7.2-3.9 5.1-1.3-1.1-1.5-2.5-1.1-7 .4-3 1-6.4 1.4-7.4.6-1.7.9-1.4 2.1 1.5.8 1.9 1.4 5.4 1.5 7.8zm15.8-8.5c2.1-.4 3-.1 3.5 1.1.7 1.8-3.1 8.4-8.1 14l-3.5 3.9v-21.2l2.7 1.4c1.4.8 3.9 1.1 5.4.8zM36 177.6c0 .8-.9 1.4-2 1.4-2.2 0-2.6-1-.8-2.8 1.3-1.3 2.8-.7 2.8 1.4zm251.9 3c-1.5 1.8-2.2 1.3-1.3-1 .3-.9 1-1.3 1.6-1 .5.3.4 1.2-.3 2zM41 182.2c0 2.5-.3 2.9-1 1.8-1.3-2-1.3-5 0-5 .6 0 1 1.5 1 3.2zm198.9 2.9c1.3 1.8 2 3.6 1.7 4.6-.5 1.2-.4 1.3.7.5 1-.9 2.1-.5 4.7 1.7l3.4 2.8-2.7 3.5c-1.5 1.9-3 4.9-3.3 6.6-.4 1.8-1.1 3.2-1.6 3.2-1.6 0-4-7.1-3.3-9.9.3-1.4.8-3.5 1.1-4.6.4-1.6.2-1.5-.9.4-.8 1.3-1.7 2-2 1.5-.7-1.2-2.7-12.3-2.6-14.8 0-2 .1-2 1.2-.2.7 1 2.3 3.2 3.6 4.7zM58 184.2c3 3.3 3 3.4 2.5 11.8-.3 4.7-1.1 10.5-1.8 12.8l-1.3 4.4-3.4-3.8c-4.6-5.3-8.8-12.1-9.5-15.6-.6-2.7-.1-3.6 4.1-7.9 2.7-2.7 5.2-4.9 5.6-4.9.5 0 2.2 1.5 3.8 3.2zm224 2.8c0 2.3-3.6 5.5-4.5 4-1.3-2.1-2.4-7.1-1.9-8.5.5-1.1 1.2-1 3.5.7 1.6 1.2 2.9 2.9 2.9 3.8zm10.5-4c.9 2.9-.2 4.2-2.6 3-1.5-.9-1.7-1.5-.9-3 1.4-2.5 2.7-2.5 3.5 0zm-255.7.2c.7.7 1.2 2.1 1.2 3.2-.1 2.1-2.2 5.6-3.3 5.6-.8 0-3.1-4.5-4.1-7.8-.6-1.9-.4-2.2 2.1-2.2 1.6 0 3.4.5 4.1 1.2zm225.2 1.9c4.9 3 6.4 5.9 3.9 7.5-.6.4-4 .8-7.4.9l-6.3.2 1.4-4c.8-2.2 1.4-4.8 1.4-5.8 0-2.6 1.2-2.4 7 1.2zm-231.2 2.4c2.7 5.7 2.8 7.7.1 10.1-2.1 1.9-2.1 1.8-4-.5-1.2-1.5-1.9-3.9-1.9-6.6 0-8.7 2.4-9.9 5.8-3zm274.8 2.2c-.7 2.9-3.1 5.3-5.3 5.3-.7 0-1.3-.5-1.3-1.1 0-.6.7-.8 1.6-.5.8.3 1.2.2.9-.4-.7-1.1 2.5-5.9 3.9-6 .4 0 .5 1.2.2 2.7zm-16.7 0c1.9 1.6 2 2 .9 3.6-1 1.4-2.1 1.7-4.1 1.2-2.7-.7-3.2-1.9-2.1-4.9.8-2.1 2.7-2 5.3.1zm-248.6 4.8c-.8 4.4-2 5.2-3.4 2.3-.9-2.1-.8-3 .6-5.2 2.2-3.3 3.7-1.8 2.8 2.9zm233.2-2c3 2.9 3 3.3.7 6.3l-1.8 2.3-2.3-3.1c-1.6-2.2-2.1-3.9-1.7-5.6.8-3 2.1-3 5.1.1zM66 195c-1.7 3.2-3 3.3-3 .2 0-3.5.9-4.5 2.6-3.1 1 .8 1.1 1.6.4 2.9zm229-1.4c0 1.6-5.3 9.3-6.1 8.8-1.4-.8-1.1-2.1 1.4-5.9 1.9-3 4.7-4.7 4.7-2.9zm-32 2.4c0 1.4-3 6-4 6-.6 0-1.5-1.5-3.8-6.3-.2-.4 1.5-.7 3.7-.7 2.3 0 4.1.5 4.1 1zm23 0c1.2.7 1.2 1.2.2 2.2-1 1-1.7.8-3.4-1-2.2-2.1-2.2-2.2-.3-2.2 1.1 0 2.7.5 3.5 1zm-247.9 4.4c1.3 2.5 2 4.8 1.7 5.2-.4.3-2.5-.8-4.8-2.6-3.9-3.1-4-3.3-2.4-5.1 2.4-2.7 2.8-2.5 5.5 2.5zm33.2-2.2c.9 1.3.3 2.6-3.3 6.6-2.5 2.8-4.9 5-5.4 5.1-1.5.2.1-6.3 2.6-10.2 2.4-3.8 4.4-4.3 6.1-1.5zm224.7-.3c-.5 1.1-1 3.6-1 5.7 0 3.1-.2 3.5-1.5 2.4-2-1.6-1.9-2.8.5-6.8 2.1-3.4 3.8-4.5 2-1.3zm-250.5 2c.8 1.6 3.7 5.8 6.3 9.3 2.8 3.5 5.2 7.9 5.6 10 .4 2 2 6.3 3.6 9.5s3 6.5 3 7.4c0 .8-1.4 2.8-3.1 4.5-1.7 1.6-3.5 3.9-4 5.2-1.2 3.1 1 8.1 5 11.5 3.1 2.6 5.8 8.4 4.4 9.6-.3.3-.8 0-1.1-.8-.2-.7-1.3-2.2-2.4-3.3-1.7-1.7-3-1.9-9.2-1.5-3.9.3-8.1.8-9.3 1.2-2 .6-2.3.4-2.2-1.6 0-1.3.8-4.2 1.7-6.4 2.6-6.3 10.5-19.5 11.2-19 1.3.8 2.1-11.1 1-13.9-.5-1.5-3.7-5.9-7-9.8-5-6-6-7.8-6-11 0-4.6.5-4.7 2.5-.9zm210.3 2.2c-.3.9-1.1.6-2.6-.9-1.3-1.3-2-2.8-1.6-3.3.9-1.5 4.8 2.5 4.2 4.2zm13.9-1.3l1.3 3.2-4.2-.6c-2.4-.4-4.4-.8-4.6-1-.2-.1.4-1.4 1.4-2.9 2.2-3.3 4.4-2.9 6.1 1.3zm35.4-1.1c-.8 1.5-1 1.5-1.1.2 0-1.7 1-3.2 1.8-2.5.2.3-.1 1.3-.7 2.3zm11.4.1l3 1.6-4 .6c-2.2.3-5.2 1.3-6.5 2.3-4.5 3.1-5.3 1.4-2-4.1 2.2-3.6 3.3-3.6 9.5-.4zm-15.5-.1c0 1-.9 2.9-2 4.3l-2 2.5v-3.6c0-2 .3-3.9.7-4.2 1.3-1.3 3.3-.7 3.3 1zm-273.2 1.1c.6 1.8-1.5 1.4-2.2-.4-.4-1-.1-1.4.6-1.2.6.2 1.4 1 1.6 1.6zm247.8 1.9c-.8 1.5-1.5 2.2-1.6 1.5 0-1.7 2-5.5 2.7-4.9.2.3-.2 1.8-1.1 3.4zm-24.7-.8c1.9 1.9 1.9 2-.5 3.6-1.3.8-2.4 2.4-2.4 3.5s-.4 2-1 2c-1.4 0-1.3-5.3.2-8.5 1.4-3 1.3-3 3.7-.6zm-217 2.2c1.8 1.1 3.1 2.2 2.8 2.5-.6.7-6.3-2.2-7.2-3.6-1-1.6.7-1.2 4.4 1.1zm42 1.6c.6 2.1 1.1 5.4 1.1 7.3 0 3.3-2.9 11-5.1 13.7-1.8 2-4.8-.3-7.1-5.4-1.6-3.6-1.8-5-.9-7.5 1.4-3.9 7.8-11.8 9.6-11.8.8 0 1.9 1.7 2.4 3.7zM24.5 204c.3.5.3 1-.2 1.1-1.3.1-4.5.7-7.2 1.4-3.1.8-2.6.2 1.4-1.9 3.5-1.8 5.1-2 6-.6zm264 .8c-.3.3-1.1 0-1.8-.7-.9-1-.8-1.1.6-.5 1 .3 1.5.9 1.2 1.2zm13.5 2.7c-.8 2.1-1.4 2.5-2.2 1.7-.9-.9-.8-1.8.2-3.7 1.8-3.3 3.4-1.7 2 2zm-23.5-1.4c-1 1.5-2.5 1-1.9-.6.4-.8 1-1.2 1.5-.9.5.3.7 1 .4 1.5zm40.9-1.1c5.3 2 1.6 8-4.8 8h-3l2.2-1.6c2.6-1.8 2.8-3.1.5-5.6-1.5-1.7-1.5-1.8.5-1.8 1.1 0 3.2.4 4.6 1zm-50.4 1.5c1 1.2 1 1.8 0 3-1.7 2.1-2.3 1.9-4.8-1.5l-2.3-3h2.9c1.6 0 3.5.7 4.2 1.5zm-28.5 4.7c2.5 5.4 3.1 7.8 1.8 7.8-.5 0-2-2.9-3.5-6.5-3.2-7.7-1.8-8.8 1.7-1.3zm14.6-3.8c-1.4 1.6-5.1 2.8-5.1 1.6 0-1.1 3-2.9 4.9-3 1 0 1.1.3.2 1.4zm8.9 3.8c0 1.1-1.2 1.8-4.1 2.3-5.6 1-6.6-.5-3.3-4.3 2.6-2.9 2.8-3 5-1.4 1.3.9 2.4 2.4 2.4 3.4zm24-3.3c.5 1.1 1 2.4 1 3 0 1.7-2.7 1.3-3.4-.5-1.6-4.1.4-6.2 2.4-2.5zm19.8 4c-1.6.6-3.1-1.6-2.4-3.6.7-1.6.9-1.6 2.1.7.9 1.6 1 2.6.3 2.9zm5.5-3.4c.1.5-.6 1.1-1.5 1.3-1.1.2-1.8-.3-1.8-1.3 0-1.7 3-1.8 3.3 0zm-285.6 1.2c.3.8-.7 1.2-2.9 1.1-1.8 0-4.8.2-6.5.6-3.6.8-4.5-.6-1.5-2.3 2.3-1.4 10.4-.9 10.9.6zm8.8-.5c3.3 1.5 3.2 3.2-.8 9.8-5.6 9.2-16.6 15.7-22.3 13.1-4.5-2-5.7-14.9-1.8-19.7 1.4-1.8 1.5-1.8 1 .3-.4 1.3-.8 3.1-1.1 4.1-.3 1.1.3 2.6 1.5 3.7 1.6 1.4 2.9 1.6 7.1 1.1 2.9-.4 6.9-1.6 9-2.7 3.7-1.8 3.9-2.2 3.9-6.4 0-5-.1-4.9 3.5-3.3zm10.8 2.4c6.5 7.4 7.9 9.9 7.5 14l-.3 3.9-3.3-6.2c-1.7-3.4-3.2-6.9-3.2-7.6 0-.7-1.1-2.4-2.5-3.7-2.3-2.2-3.2-4-2-4 .3 0 2 1.6 3.8 3.6zm245.7.4c0 1.1-.4 2-1 2-.5 0-1-.9-1-2s.5-2 1-2c.6 0 1 .9 1 2zM81.9 222.2c-2.9 1.8-5.9 6.5-5.9 9.3 0 1.8-1.1 2-2.7.4-.8-.8-.2-3 2.3-8.2 1.9-3.9 3.4-8.5 3.4-10.2 0-2.9.1-2.8 2.9 2l2.9 5-2.9 1.7zm198.8-9.6c.4 1.3-4.4 7.4-5.8 7.4-1.2 0-1.1-4.7.2-7.1 1.1-2.1 4.9-2.3 5.6-.3zm43.7 4.2c-.9 4.4-4.5 7.3-9.7 7.9l-4.5.5-2.3-4.8c-1.3-2.7-2.5-5.2-2.6-5.5-.2-.4 3-.6 7.1-.5 5.9.1 7.9-.3 9.3-1.6 1.4-1.5 1.9-1.6 2.5-.4.4.8.5 2.8.2 4.4zm-294.7-3.1c.6 1.7-4.4 4.6-7.8 4.5-3.1-.1-5.9-1.7-5.9-3.4 0-2.5 12.9-3.6 13.7-1.1zm31.3 1c0 2-.3 2.4-1.1 1.6-.7-.7-.9-1.9-.6-2.7 1-2.4 1.7-1.9 1.7 1.1zm208.4-1.2c-.4.8-1.3 1.5-2.1 1.5-1.3 0-1.3-.3-.3-1.5.7-.8 1.6-1.5 2.1-1.5s.6.7.3 1.5zm29.1.5c2.1 2.4 1.5 3.5-1.4 2.5-1.2-.3-2.1-1.5-2.1-2.6 0-2.4 1.2-2.4 3.5.1zM46 220c-.1 1.4-.9 4.3-1.9 6.5l-1.9 4-.1-9-.1-9 2 2.5c1.1 1.4 2 3.6 2 5zm201.5-6c.3.5.1 1-.4 1-.6 0-1.1-.5-1.1-1 0-.6.2-1 .4-1 .3 0 .8.4 1.1 1zm37.2 15.6c-.1 6.8-.7 12.8-1.3 13.4-.7.7-2.1-.1-4.3-2.4l-3.3-3.4 4.2-5.1c2.4-2.8 4.1-5.4 3.8-5.6-.3-.3-2.2 1.7-4.2 4.5-2 2.7-3.9 5-4.3 5-.8 0-4.3-7.7-4.3-9.4 0-1.3 3.3-3.5 5.3-3.6.9 0 1.6-.3 1.5-.8-.1-.4 1.1-2.6 2.7-4.8 2.7-3.7 3.1-4 3.8-2.1.4 1.1.6 7.5.4 14.3zM265 215.9c0 1.2-2.6 2.1-6 2.1-4.1 0-4.7-1.8-.8-2.3 6.1-.7 6.8-.7 6.8.2zm24 1.7c0 .8-.4 1.4-1 1.4-.5 0-1-.9-1-2.1 0-1.1.5-1.7 1-1.4.6.3 1 1.3 1 2.1zm-19.6 3.4c-.7 4.1-.8 4.2-3.8 3.6-2.9-.6-6.5-3.1-5.5-4 .2-.2 1.4-.7 2.7-1 1.8-.6 2.2-.3 2.3 1.6.1 2 .2 2.1.6.3.5-2.1 3.4-5.8 4-5.1.2.2.1 2.2-.3 4.6zm3.6-.5c0 .8-.4 1.7-1 2-.6.4-1-.5-1-2s.4-2.4 1-2c.6.3 1 1.2 1 2zm25.1-.8c1.3 1.6 1.2 1.7-.3.4-1.7-1.3-2.2-2.1-1.4-2.1.2 0 1 .8 1.7 1.7zm-233.7 5.9c2.4 4.2 3.4 7 2.8 7.6-1.1 1.1-4.5-3.9-6.7-10.1-2.1-6.1-.4-5 3.9 2.5zm186.4-5.4c.7.7 2.7 1.7 4.4 2.2 2.2.8 3.4 1.8 3.6 3.3.3 2-.1 2.3-3.1 2.3-2.2 0-4-.7-5.3-2.3-3-3.4-3.6-4.6-2.9-5.7.8-1.3 1.8-1.3 3.3.2zm44.4 1.8c2.1 1.4 3.8 2.8 3.8 3.1 0 1.2-9.7 15.4-11.5 16.9-1.7 1.4-1.8 1.3-1.2-1.1.4-1.4.9-5.9 1.3-10 .5-7 2.1-12.3 3.3-11.7.3.2 2.3 1.4 4.3 2.8zm8.5.2c-.3.8-.6.5-.6-.6-.1-1.1.2-1.7.5-1.3.3.3.4 1.2.1 1.9zm-215.2 3.5c3.3 3.6 3.2 4.4-.5 3-2.3-.9-3.3-.8-4.2.1-1.1 1.1-1 1.2.5.6 2.1-.8 6.7 2.1 6.7 4.2 0 1.3-.3 1.4-1.4.5-.8-.7-2.8-1.6-4.5-2.1-2.9-.8-3.1-.7-3.1 1.9 0 3.1 1.6 5.1 4.1 5.1 2.1 0 3.3 1.6 2.3 3.1-.4.7-1.6.2-3.3-1.4-1.4-1.3-3.6-3-4.8-3.6-2.7-1.4-3-4.9-.8-9.1 1.4-2.7 3.9-4.9 5.7-5 .4 0 1.9 1.2 3.3 2.7zm5.4-.2c2.7 1.4 6 7 4.8 8.2-.6.5-4.4-3.5-7.5-7.9-1.6-2.2-1-2.3 2.7-.3zm146.8 1.6c-.4 1.6-.3 1.8.9.8 1.1-.9 1.4-.8 1.4.8 0 1-.5 2.4-1.1 3-.9.9-.7 1 1 .6 1.5-.4 2.1-.1 2.1 1.1 0 1.9-1.9 2-4 .3-1.7-1.3-2-8.7-.4-8.7.4 0 .4.9.1 2.1zm9.7 1.4c1.1.8 2.8 1.5 3.8 1.5 2.6 0 2.2 1.7-1.3 5.2-3.3 3.4-4.1 3.1-5.9-2.4-1.7-5.4-.3-7.1 3.4-4.3zM307 231c-.5 1.6-1.6 4-2.5 5.2-1 1.3-1.5 1.6-1.1.8.3-.8 1.1-3.4 1.7-5.7.7-2.3 1.6-4 2-3.7.4.2.4 1.8-.1 3.4zm-36.7.8l1.9 3.2-2.6 5.3c-1.4 2.8-5.7 9.2-9.6 14-4.2 5.3-7.4 10.5-8.1 13-1.9 7.2-2.3 7.4-2.8 1.7-.4-3-1-6-1.4-6.7-.5-.8.8-2 4-3.7 2.6-1.3 5.7-3.4 6.8-4.6l2-2.2-4.7-4.1c-2.6-2.3-4.8-4.9-5-5.8-.4-2.2 8.4-11.8 11.8-12.9 4.3-1.3 5.6-.8 7.7 2.8zm26.9 2.9c-2.3 4.3-10.8 13-11.8 12-.4-.4 1.5-3 4.3-5.9 2.7-2.9 5.8-6.6 6.8-8.1 2.5-3.9 3-2.6.7 2zm-199.6 4.7c-.6 2.3-4.8 4.7-6.1 3.4-.3-.3.1-2.8.7-5.6l1.3-5.2 2.4 2.4c1.8 1.8 2.2 3 1.7 5zm-9.4-2.6c-1.9.6-4.4-.6-3.7-1.8.4-.7 1.4-.6 2.8.2 1.4.7 1.7 1.3.9 1.6zm-18.2.8c0 .8-.4 1.2-1 .9-.5-.3-1-1.3-1-2.1s.5-1.2 1-.9c.6.3 1 1.3 1 2.1zm13.3 7.5c3.5 1.5 3.4 3.4-.3 9.2-3.3 5.2-5 6-5 2.2 0-1.4-1.3-5.4-3-8.8-1.6-3.5-3-7.6-3-9.1v-2.8l4.3 4.1c2.3 2.2 5.4 4.6 7 5.2zM245 238c1.3.8 1.3 1-.2 1-.9 0-2-.5-2.3-1-.8-1.3.5-1.3 2.5 0zm-179.6 9.4c-.4 4.7-1 8.6-1.5 8.6-1.6 0-4.9-5.4-4.9-8.1 0-2.5 5.6-10.6 6.7-9.6.2.2 0 4.3-.3 9.1zm175.3-7.8c.3.9.1 1.9-.4 2.3-1.7 1-3.3 4.8-3.3 7.5 0 3-.9 3.2-5.3 1l-3.2-1.5 2.5 2c1.4 1.1 3.5 2.1 4.8 2.1 3.1 0 2.8 2.8-.4 4-4.3 1.7-7.2.3-8.6-4.2-1.4-4.8-.3-7.2 5.7-11.7 4.5-3.4 7.3-3.9 8.2-1.5zm40.3 5.7c1.3 2.4 1.3 2.9-.6 5.4-1.1 1.5-5.2 5-9 7.6-3.8 2.6-7 5.4-7.2 6.3-.2.8 1 3 2.7 4.9 2.7 3.2 2.9 3.7 1.9 7.2-.6 2.1-1.6 4.9-2.3 6.3-.7 1.4-1.5 3.6-1.9 5-.5 1.9-.2 1.7 1.2-.9l1.9-3.4 1.1 4.4c1.1 4.2 1 4.4-2.1 7-2.9 2.4-3.3 2.5-4.4 1-.7-.9-1.3-2.3-1.3-3.1 0-.9-.7-2.5-1.5-3.7-1.5-2.1-1.4-2.3 1.5-3.8 4.5-2.3 4.1-5.9-1-8.5-2.1-1.1-4.6-2-5.4-2-2.4 0-2.7-1.5-1.1-6.6 1-3.3 4.5-8.7 10.9-16.8 5.2-6.6 9.2-12.5 8.8-13-.3-.6 1 .1 2.9 1.5 1.8 1.4 4.1 3.8 4.9 5.2zm-210.2 6.4c-.3 6.7-1.1 9.4-2.3 8.1-1.2-1.2-1.7-8-1-13.5.7-5.3.8-5.6 2.2-3.8 1 1.5 1.4 4 1.1 9.2zm221.2-5.2c-1.7 2.5-3.5 4.5-4 4.5-.6 0-1 .5-1 1 0 1.1-11.8 16-12.7 16-.6 0 6.6-13 8.5-15.3.8-.9 1.9-1.7 2.3-1.7.5 0 2.7-2 5-4.5s4.3-4.5 4.6-4.5c.2 0-1 2-2.7 4.5zm-45-1.5c0 .5-.2 1-.4 1-.3 0-.8-.5-1.1-1-.3-.6-.1-1 .4-1 .6 0 1.1.4 1.1 1zm48.1 1.8c-.5 1-1.8 2.5-2.7 3.3-1.1.9-.9.2.6-1.9 2.6-3.5 3.6-4.2 2.1-1.4zm-51.1 1.1c0 .5-.6 1.4-1.4 2-1.6 1.3-3.2-.2-2.1-1.9.8-1.2 3.5-1.3 3.5-.1zm11 1.9c3 2.4 2.1 3.8-4.3 6.8-3.9 1.7-5.4 2-6.4 1.2-1.1-.9-.6-2 2.9-5.5 2.3-2.3 4.5-4.3 4.9-4.3.4 0 1.7.8 2.9 1.8zm-179 4c1.6 6 1.3 9.2-.9 9.2-2.8 0-3.2-1.1-2.5-7.9.7-6.6 1.8-7 3.4-1.3zm198 9.2c-1.7 3.3-3.3 6-3.7 6-1 0-4.3-3.2-4.3-4.1 0-.7 9.8-7.9 10.8-7.9.1 0-1.1 2.7-2.8 6zm-28 .9c1.2 2.3 1.3 9.1.2 10.8-1.4 2.3-6.6 2.6-8.4.6-3.4-3.7-2.7-7.6 1.9-10.8 4.5-3 4.9-3 6.3-.6zm-184.5.4c1.6 1.2 1.1 1.5-4.5 2-4.1.3-7.3 1.3-9.1 2.6-2.8 2.1-2.8 2.1-3.9.2-1.5-2.8-1.3-3 2.3-4.6 4.1-1.8 12.8-1.9 15.2-.2zm219.6 4.1c-1.9 4.2-3.4 11.3-4.5 20.6-.2 1.9-.3-1.5-.2-7.5.1-10.6.2-11.1 3.1-14.7 1.6-2 3.1-3.6 3.2-3.4.2.2-.5 2.4-1.6 5zm-208.3-3.5c1.2.7 1.2 1.2.1 3-1.9 2.9-2.9 2.6-2.9-.9 0-3.1.6-3.6 2.8-2.1zm5.2 7c0 1.4-.5 3.3-1 4.1-.9 1.3-1.2 1.2-2.5-.4-1.8-2.3-1.9-4-.4-6.7 1.4-2.7 3.9-.8 3.9 3zm-34.2-1.4c.7 1.4 1.2 3.2 1.2 4 0 .8 1 2.3 2.2 3.5l2.2 2h-3.6c-5.9 0-8.6-4.8-5.8-10.1 1.4-2.6 2.5-2.4 3.8.6zm19.8-1.4c.8 1.4-4.4 6.9-6.5 6.9-.9-.1-3.1-1.4-5-3l-3.4-2.9 3.4-.9c4.7-1.4 10.6-1.4 11.5-.1zM53 274.5c1.6 1.9 0 1.9-2.6 0-1.6-1.2-1.6-1.4-.3-1.5.9 0 2.2.7 2.9 1.5zm220.7.7c-.3.8-.6.5-.6-.6-.1-1.1.2-1.7.5-1.3.3.3.4 1.2.1 1.9zm-2 9.5c-.2 1.6-.4.5-.4-2.2 0-2.8.2-4 .4-2.8.2 1.3.2 3.5 0 5zm27.8-4.2c2.7 2.6 3 5 1.5 10.6-1.4 5-3.6 6.8-5.7 4.7-1.4-1.5-1.4-1.8.1-3.9 2.2-3.1 2-5.5-.5-8-1.7-1.7-2.9-2-6-1.5-4.5.7-4.7.4-1.7-2.4 3.2-2.9 9.2-2.7 12.3.5zm-40.1-.6c1 1.6-.5 4.1-2.4 4.1-1.6 0-1.7-.3-.7-2.5 1.3-2.6 2.2-3.1 3.1-1.6zm-8.1 2.8c-.7.2-1.9.2-2.5 0-.7-.3-.2-.5 1.2-.5s1.9.2 1.3.5zm42.1 2.9c2 1.9 2 2.4 0 5.2-1.7 2.5-3.2 2.7-6.9 1-3.3-1.5-3.4-5.5-.2-6.8 3.3-1.3 5.4-1.2 7.1.6zM78 290.9c0 4.7-1 6.1-4.6 6.7-1.6.2-3.5.7-4.1.9-1.7.6-1.6-1 .3-4.8 3.4-6.6 5.5-8.9 7-7.6.8.6 1.4 2.8 1.4 4.8zm5 10.8c0 3.5-.8 6.3-2 6.3-.4 0-.5-1.1-.2-2.5.2-1.4-.3-3.6-1.2-5-1.3-2-1.4-2.9-.4-5.1l1.2-2.7 1.3 2.9c.7 1.6 1.2 4.3 1.3 6.1zm210.3-5c1.5.7 2.5 1.8 2.2 2.3-.9 1.5-8.4 3.2-10.8 2.5-4.7-1.4-8.7-3.7-9.8-5.6-1-2-.9-2 7.3-1.3 4.6.3 9.6 1.3 11.1 2.1zm-24.3 4.7c-1.1 2.6-2 5.5-2 6.3 0 1.3-.3 1.3-1.5.3-2.6-2.1-1.8-6.8 1.7-10.3 3.9-3.9 4.5-2.6 1.8 3.7zm14.6 2.2c3.1.6 5.6.3 10.7-1.2 2.4-.8 2.2 1.9-.5 5.1-3.8 4.3-15.3 6.6-21.1 4.1-4.3-1.7-4.5-3.2-1.7-9.4l1.9-4.2 3.7 2.5c2 1.3 5.1 2.7 7 3.1zM70 301.5c-.7.9-1.5 1.3-1.9 1-.3-.3.1-1 .9-1.5 2.1-1.4 2.4-1.2 1 .5zm3 1.4c-1.1 2.1-2.9 3.6-3.5 2.9-.3-.2.2-1.4 1.1-2.6 1.9-2.8 3.9-3 2.4-.3zm6 1.6c0 1.9-4 6.5-5.6 6.5-2.7 0-2.6-2.9.1-6.5 2.2-2.8 3-3.3 4.1-2.4.8.6 1.4 1.7 1.4 2.4zm-12.4 1c.3 1.4.4 3.1.1 3.9-.3.8-.1 1.7.6 2 1.8.7-1.9.7-3.7 0-2.9-1.1-1.5-8.4 1.6-8.4.4 0 1 1.1 1.4 2.5zm198.4 5c2.1 1.9 2.1 1.9-.9 3.1-1.8.8-3.7 2.8-4.8 5-1.8 3.7-4.3 5.7-4.3 3.4 0-.6.4-.9.8-.6.4.2.8-1.2.8-3.2.1-2 1.2-6.2 2.5-9.4 2.3-5.4 2.4-5.5 3.1-2.9.4 1.5 1.7 3.6 2.8 4.6zm7 6.8c0 4.2-3.9 6.3-10.8 5.9-1.4-.1-2.2-.7-1.9-1.5.2-.6 1.4-1 2.7-.9 2 .3 2.2 0 1.6-2.1-.7-2.9.2-3.5 5.2-3.6 2.7-.1 3.2.2 3.2 2.2z"/><path d="M198.8 66.7c.7.3 1.6.2 1.9-.1.4-.3-.2-.6-1.3-.5-1.1 0-1.4.3-.6.6zM173.5 154.9c4 4.2 3.1 9-3.5 19.3-2.8 4.4-4.9 8.2-4.7 8.5.7.7 7.7-7.9 10.8-13.3 2.3-4 2.8-5.9 2.3-8.5-.7-3.4-4.9-8.9-6.8-8.9-.5 0 .3 1.3 1.9 2.9zM94.7 184.5c-3.6 1.2-5.8 2.5-4.4 2.5.3 0 1.8-.5 3.4-1.1 1.5-.6 5.5-1.1 8.8-1.2 4.3 0 5.3-.2 3.5-.8-3.8-1.1-7.1-.9-11.3.6zM95.7 188c-.6.3-2.2 1.4-3.5 2.5-1.2 1.1-2.8 2-3.5 2.1-3.5.3-3.9.5-3.4 1.8.4 1-.1 1.2-1.6.9-1.4-.3-.8.4 1.8 2.2 5.5 3.8 16.5 14.7 15.9 15.7-.3.4.2.8 1 .8s1.8-.5 2.1-1c.3-.6 2.1-1 3.8-1.1 1.8 0 4.1-.4 5.2-.9 1.2-.5-.4-.6-4-.3l-6 .5-4.3-4.6c-4.3-4.7-5.2-7.9-3.2-11.7 1.1-1.9 6-2.7 6-1 0 2.1-1.3 4.1-2.7 4.1-.8 0-1.1.4-.8 1 .3.5.1 1-.4 1-1.6 0-1.3 2.8.3 3.7.8.4 1.5 1.2 1.5 1.8 0 1.5 3 1.8 4.6.5 1.8-1.5 2-9.1.3-10.9-1.1-1-.9-1.2.7-.9 1.8.3 2 1.1 1.9 7.1-.1 9.1 1.9 7.2 2.4-2.3.2-3.9.8-7 1.2-7 1.6 0 7 2.2 7 2.9 0 .4.7 1.6 1.5 2.7 1.3 1.7 1.3 1.5.4-2.1-.6-2.2-1.7-4.6-2.4-5.4-1.4-1.4-19.2-3.1-21.8-2.1zm-3 10.2c-.3.8-.6.5-.6-.6-.1-1.1.2-1.7.5-1.3.3.3.4 1.2.1 1.9zM199 188.6c0 .9 1 1.4 2.8 1.4 1.5 0 3.9.7 5.5 1.4 1.5.8 2.7 1.1 2.7.5 0-.5-.1-.9-.3-.9-.1 0-2.6-.9-5.5-1.9-4.2-1.6-5.2-1.7-5.2-.5zM193.5 189l-3 .8 3.2.1c1.7 0 3.5-.4 3.8-.9.7-1.1.3-1.1-4 0zM187.4 192.9c-1.1.5-2.5 2.6-3.2 4.9-1.7 5.6-1.5 6.2.8 2.4 2.8-4.6 5-4.3 4.3.8-.6 4.2 1.3 13 2.8 13 .5 0 .6-1.2.2-2.8-1.3-4.5-.9-11.1.8-12.7 1.8-1.8 1.8-1.2.4 5.8-.5 2.7-.3 4.4.9 6.2 2 3.1 6.1 3.5 5.3.6-.3-1.3 0-1.8.8-1.5 2.8 1.1 2.5-2.9-.6-6.3-2.8-3.2-2.9-3.7-1.5-5.1 1.3-1.3 1.7-1.3 3.2-.1 1.6 1.2 1.7 1.2.9-.1-.6-1.2-.5-1.2.4-.4.7.7 1.5 3.8 1.8 7 .7 8.2-.7 9.7-8.9 10.4l-6.3.5 6.7 1.6c4.9 1.1 6.7 1.2 6.5.3-.2-1.2 14.5-15.4 16.1-15.4.5 0 1.6-.8 2.3-1.7 1.2-1.5 1.2-1.6-.4-1-1.5.6-1.7.3-1.1-1.5.6-2.1.5-2.2-1.1-.8-1.4 1.1-1.7 1.2-1.1.1.6-.9.4-1.2-.5-.9-.8.3-3.3-.4-5.7-1.4-4.8-2.2-20.4-3.4-23.8-1.9zm23.1 6.4l2.6 2.2-2.8 3.7c-1.5 2.1-3 3.7-3.3 3.8-.3 0-.5-2.7-.5-6s.3-6 .7-6c.4 0 1.9 1 3.3 2.3zM149 225.6c0 1.7 2.3 3.4 4.5 3.4s6.9-2.9 4.8-3c-.6 0-1.5.4-1.8 1-.9 1.5-3.6 1.2-5.7-.7-1-.9-1.8-1.2-1.8-.7zM132.5 236.9c2 4 7.8 8.6 12.6 10 5.6 1.7 16.7 1.6 20.9-.1 3.8-1.6 10.4-6.8 9.6-7.5-.3-.3-2.2.9-4.3 2.5-5.2 4.2-11.6 5.5-20 4.2-8.3-1.4-13.7-4.1-16.6-8.5-2.7-4.2-4.3-4.6-2.2-.6zM229 84c1.2 1.6 2.4 3 2.6 3 .3 0-.4-1.4-1.6-3-1.2-1.7-2.4-3-2.6-3-.3 0 .4 1.3 1.6 3zM263.1 144.6c0 1.1.3 1.4.6.6.3-.7.2-1.6-.1-1.9-.3-.4-.6.2-.5 1.3zM42 242.9c0 .6.4 1.3 1 1.6.6.3.7-.1.4-.9-.7-1.8-1.4-2.1-1.4-.7z"/></svg>