<svg version="1" xmlns="http://www.w3.org/2000/svg" width="1066.667" height="1066.667" viewBox="0 0 800.000000 800.000000"><path d="M0 400v400h800V0H0v400zm595.4-185.2c-.1 1.8-.9 4.4-1.8 5.7-1.4 2.2-2.4 2.5-7.4 2.5-6 0-19.2 2.9-36.3 8-31.5 9.3-67.3 27.3-148.8 74.5l-13.4 7.7-3.3-1.6c-1.9-.8-3.4-2.1-3.4-2.8 0-1.7 23.1-16.4 48-30.7 36-20.7 73.1-37.9 110-51.1 21.9-7.8 50.1-16 54-15.7 2.2.2 2.5.7 2.4 3.5zm11.3 5.4c1.6 1.8 3.3 4.1 3.6 5 .8 2.3-3 9.2-11.2 20.2-16.1 21.5-34.2 40.2-65.8 67.6-26.1 22.8-44.6 38.5-46.2 39.4-.9.5-2.7 1.9-4.1 3.2-1.4 1.3-4.2 3-6.3 3.9-3.6 1.5-4.1 1.5-7-.3-1.8-1-3.2-2.3-3.2-2.9 0-.6 6.1-5.9 13.5-11.7 32.2-25.3 57.8-48.8 80.6-74.2 18.2-20.2 36.8-43.9 39.3-50.2.8-1.7 1.9-3.2 2.5-3.2.7 0 2.6 1.5 4.3 3.2zm-16.7 6.4c0 2.3-32.3 40.6-47.4 56.3-25.7 26.6-56.4 52.6-79.7 67.7-6.5 4.3-7.1 4.4-10.8 3.4-5.4-1.4-25.7-12-34.9-18.2-11.8-7.9-24.2-17.2-23.9-18 .4-1.3 30-20 52.2-33.1 20.7-12.1 48.5-26.4 65.5-33.7 19.1-8.1 46.8-17.6 64.1-22 11.6-2.9 14.9-3.4 14.9-2.4zm28 8.6c16.9 22.9 27.2 44.4 33.7 70.5 2.5 10.1 2.7 12.3 2.8 32.8 0 25.9-1.1 33.9-5.8 41.1-2.9 4.4-7.8 7.7-9.2 6.2-.3-.3.1-2 .9-3.9 8.9-21.8-1.5-79.9-20.4-114.2-3.3-5.9-7.8-13.2-10.1-16.2l-4.1-5.5 3.4-5.2c1.9-2.9 3.8-6.1 4.1-7.1.9-2.5 2-2.1 4.7 1.5zm-5.3 30.7c17.6 28 24.9 56.5 25.4 99.1.3 23.5-3.4 28.5-31.5 42.6-6.1 3.1-11.6 6-12.2 6.5-1.3 1-31.1 15.9-58.9 29.4-22.4 10.8-39.9 20.6-55.5 30.8-5.8 3.8-14.8 9.1-20 11.7-5.2 2.6-17.4 9.2-27 14.5-24 13.4-62.4 32.8-80.7 40.8-47 20.6-93.4 29.9-132.8 26.8-31.8-2.6-58-9.2-73.7-18.7-6.8-4.2-15.7-13.6-18.8-19.9-2.1-4.3-2.2-5.6-1.7-18.3.3-9.7 1.1-16 2.6-21.7 2.4-8.8 14-33.2 17.2-36.1 1.7-1.5 3.4-1.8 10.2-1.6 8.4.3 21.8-1.7 25.8-3.9 3.5-1.8 5.1 1.2 4.7 8.6-.3 5.1-1.1 7.3-5.2 14-9.8 16-14.3 24.1-17.1 31-2.5 6.1-2.9 8.3-2.9 17.5-.1 9 .2 11.3 2.3 15.7 2.1 4.7 2.8 5.4 7.2 6.8 4.6 1.6 5.4 1.5 15.6-.5 14-2.8 25.5-6.7 39.5-13.3 10.3-4.9 31.6-18.4 40.6-25.7 2.1-1.6 7.1-5.6 11.3-8.9 6.2-4.8 7.8-6.6 8.3-9.4.9-4.7 3.8-5.8 12.9-5.1 6.2.6 8.6.2 16.2-2.1 12-3.6 27.8-11 41.9-19.3 15.3-9.2 24.1-15.4 55.8-39.6 7.9-6 18.9-14.5 24.6-18.8l10.3-7.7 4.7 1.8c2.6 1 12.1 4.6 21.2 8.1 9.1 3.4 18 6.8 19.9 7.6 2.4 1.1 5.2 1.3 10.5.8 8.1-.7 12.1.2 29.6 6.6 15.9 5.8 15.1 5.8 22 .5 3.3-2.5 9.2-8.3 13.1-12.8 6.4-7.4 6.9-8.2 5.3-9.4-1-.7-2.5-1.3-3.3-1.3-10.3-.4-45.1-6.9-49.9-9.4-1.5-.8-5-3.6-7.8-6.3-4.6-4.4-6.5-5.4-16.8-8.8-6.4-2.1-12.1-4.4-12.6-5-.8-.9 3.4-4.8 15.7-14.6 33.3-26.7 59.8-51.1 94.3-87.2 11-11.5 9.6-11.8 19.7 4.2zm-175.6-1.6l4.3 1.3-10 5.7c-8.8 5-10.7 5.7-15.5 5.7-7.9 0-21.6 1.8-27.4 3.7-6.2 1.9-12.9 6.1-17.4 10.7-3.9 4-5.1 3.5-5.1-2.2 0-4.9 1.2-6.4 9.8-12.9 13.6-10.3 28.5-14.7 46.8-13.8 5.6.3 12.1 1.1 14.5 1.8zm-26.5 18.4c-.3.4-8.4 5.3-17.9 10.9-13 7.8-17.5 10-18.3 9.1-7.2-7.3 7-16.7 29.6-19.7 3-.4 5.9-.8 6.4-.9.5 0 .6.2.2.6zm-42.4 20.5c5.5 6.9 17.2 16.5 34.2 28.1 18.9 13 21.1 14.3 33.7 20.7 5.7 3 11.4 6 12.6 6.7l2.2 1.4-3 6.2c-1.6 3.4-2.9 6.7-2.9 7.4 0 .6-.5 1.5-1 1.8-3 1.9-40.4-17.7-55.2-28.7-10.6-8-24.8-22-29.6-29.2-4-6.2-4.2-10.8-.6-18.5l2.7-5.6 1.6 2.5c.9 1.3 3.3 4.6 5.3 7.2zm-8.6 23.9c1.9 2.1 1.8 2.1-1.1 4.2-3.2 2.5-35 24.3-49.3 33.9-25.2 17-49.5 34.5-60.7 43.6-8.3 6.9-10.7 10.8-10.9 17.9l-.1 4.3h-6.2c-5.9 0-6.3-.1-6.3-2.3 0-1.6 2-4 6.9-8 3.8-3.1 10.4-9.7 14.7-14.7 7-8.1 17.8-17.4 32-27.5 2.3-1.7 8-5.7 12.6-9 16.9-12.2 64.3-44.5 65.4-44.5.6 0 1.9.9 3 2.1zm9.5 9.5c3 3.2 15.9 13.3 25.9 20.1 7.6 5.2 28.8 17.3 30.3 17.3 2.6 0-2.2 2.9-15.1 9.2-39.7 19.1-67.6 28.8-92.7 32.2-17.6 2.4-40.5 8.9-55.7 15.8l-6.7 3.1-5.7-1.9c-6.5-2.2-7.5-3.8-6.2-10.1.8-3.8 2-5 14.5-15 7.6-5.9 15.7-12.2 18.3-13.9 2.5-1.6 9-6.2 14.5-10 5.5-3.9 23.3-15.9 39.5-26.8s30.2-20.4 31-21.2c2.2-2.1 5.4-1.7 8.1 1.2zm99.3 25.8c2.3 1.2 11.9 5.2 21.5 8.7 19.6 7.3 19.6 7.3 18.8 17.3-.4 4.3-1.4 7.2-4.1 11.5-3.3 5.3-3.7 5.6-7.4 5.5-3.6 0-11.2-2.8-11.2-4 0-.3 1.7-.5 3.8-.4 7.1.3 8.4 0 11.2-3 3.5-3.8 5.7-12.2 4.1-16.2-1.3-3.5-5-5.3-16.5-8.3-5.2-1.3-11.3-3.5-13.6-5-4.5-2.9-11.2-5.5-13.9-5.5-.9 0-2.5 1.3-3.4 3-1 1.7-2.7 3-3.8 3-2.6 0-2.4-.9 1.2-5.3 3.7-4.5 7.2-4.8 13.3-1.3zm3.3 10.2c5.3 2.5 13.7 5.6 18.7 6.9 7.7 1.9 9.2 2.6 10 4.7 2.1 5.9-2.8 12.8-9 12.8-3.7 0-25.1-7.5-30.5-10.7-4-2.4-4.6-4.5-1.1-3.7 1.5.3 3.3.7 4 1 1.8.5 5.4-3.4 5-5.4-.2-.9-1.8-2.4-3.6-3.3-1.9-.8-3.7-2.1-4.2-2.9-.8-1.3-.3-4 .7-4 .3 0 4.8 2.1 10 4.6zm-223 .5l6.4 1.1-4 4.3c-4.4 4.8-11 14.7-16.4 24.5-2 3.6-5.8 9.2-8.6 12.5-2.8 3.2-5.1 6.3-5.1 6.8 0 .4-.8.6-1.7.3-1-.3-3.8-1-6.1-1.6-4.4-1.1-4.4-1.2-3.7-4.8 1.1-5.7 4.1-10.8 8-13.2 4-2.5 4.1-4.3.3-4.8-5.5-.7-12.8 10.8-12.8 19.9 0 2.8-.6 4.1-2.5 5.3-3.6 2.4-6.8 2-14.5-1.9-8-4-11.3-3.9-15.6.6-2.3 2.4-2.5 3.1-1.4 4.4 1.7 2.1 3.7 1.9 4.5-.5.5-1.5 1.5-2 4.2-2 3.7 0 11.3 3.6 11.3 5.4 0 .5-1.5 3.2-3.2 5.9l-3.3 4.9-18-.7c-9.9-.4-18.2-.8-18.4-1-.7-.8 2.2-10 5-15.7 2.7-5.4 9.8-15 14.3-19.3 9.4-9.2 24.6-18.9 41.6-26.6l10.5-4.8 11.4-.1c6.3 0 14.3.5 17.8 1.1zm209.8 2.9c2.2 1.5 2.5 2 1.2 2-2.3 0-5.7-1.8-5.7-3 0-1.5 1.2-1.2 4.5 1zm-5.9 6.8c.5 2.4 1.9 4.1 5.3 6.5 5.6 3.9 3.4 5.1-3 1.5-5.1-2.8-7-6.3-6.2-11.2.5-3.3.7-3.4 1.9-1.9.7 1 1.6 3.3 2 5.1zm-199.7 5.4c-4 6.7-13.7 19.8-14.7 19.8-1.1 0 9.6-17.2 15.1-24.3 4.6-5.9 4.4-3.5-.4 4.5zm188.2-6.5c1.6 1 2.9 2.5 2.9 3.5s-5.9 6.1-15.2 13.2c-8.4 6.4-23.4 17.7-33.3 25.2-29.6 22.4-46.9 33.3-66.4 41.9-15.5 6.7-22 8.5-31.5 8.5-10.8 0-12.1-.5-13.9-4.8-.8-2.1-2.2-5.4-3.2-7.6-1.6-3.7-1.6-3.8.2-3.1 4.1 1.6 15.6 2.4 22.7 1.5 12.5-1.6 27.5-7.8 43.3-18.1 2.8-1.9 10.1-6.6 16.2-10.4 16.7-10.6 54.6-37.4 66.1-46.9 6.1-5 7.8-5.4 12.1-2.9zm-18.1.7c-1.5 1.4-19.9 15.2-43.5 32.4-23.2 17-48.7 31.4-68 38.3-12.8 4.6-20.8 4.6-29.6.1-7.9-4.1-21-14.8-20.3-16.6 1.3-3.4 27.6-12.1 47.4-15.6 6.3-1.2 15-2.7 19.3-3.5 15.7-2.9 28.9-6.6 37.9-10.6 5.1-2.2 11.7-4.9 14.7-6 3-1 10.2-4.2 16-7.1 13.3-6.5 26.5-12.7 27.1-12.7.2-.1-.2.5-1 1.3zm99.4 7c9 2.8 29.9 7.1 39.1 8.2l6 .7-8.9 8.3c-5 4.6-9.4 8.4-10 8.4-1.8 0-37-11.2-38-12-.9-.9 2.2-16 3.2-16 .3 0 4.2 1.1 8.6 2.4zm-303.6 39c1.1 1.1.6 1.4-3.2 1.9-6.8 1-13.2 4.4-20.3 11-6.2 5.9-6.3 5.9-6.3 3.1 0-3.9 2.9-8.4 8.1-12.6 6.3-5.2 10.4-6.6 15.9-5.6 2.4.4 5.1 1.4 5.8 2.2zm32.3 10.6c8.6 2.9 15.4 7.4 18.8 12.4 4.2 6.2 11 21.1 11.7 25.5.6 3.8.3 4.3-4.7 9.6-12 12.7-46.9 35.2-67.1 43.3-7.7 3.1-21.8 6.5-31.9 7.7-4.6.6-5.9.4-7.3-1-4.6-4.6-5.1-6.5-5-18.5.1-11.2.1-11.7 3.8-18.9 2-4 4.9-9.2 6.4-11.5 8.6-12.8 16.1-27.6 16.2-31.9 0-2.2 6.1-12.6 7.3-12.7 1.3 0 4.7 8.2 4.7 11.5 0 1.6-1.2 7.3-2.6 12.5-1.9 6.8-2.5 11.1-2.2 15.3.5 6.7 3.2 11.2 6.9 11.2 3.3 0 3.5-2.6.4-6.3-3.1-3.7-3.1-6.5-.3-16.2 2.8-9.9 3-22 .4-27.3-2.3-4.7-1-6.9 3.7-6 5.1.9 8.7 3.6 17.4 13.1 8.5 9.2 13.5 12.6 18 12 4.5-.5 3.7-2.5-2.1-5.1-4-1.8-8.4-5.4-15.5-12.5-5.5-5.5-9.8-10.2-9.5-10.4 1-1.1 26.8 2.3 32.5 4.2zm-79.6 5.7c6.8 1.1 1.1 2.2-12.2 2.2-11.2.1-13.5-.3-11.6-2.2.8-.9 18.6-.9 23.8 0z"/><path d="M480 385.5c-1 1.3-1 1.9.5 3.5 2.8 3.1 5.5 2.6 5.5-.9 0-3.9-3.6-5.5-6-2.6z"/></svg>